<svg width="20" height="21" viewBox="0 0 20 21" fill="none" xmlns="http://www.w3.org/2000/svg">
<path fill-rule="evenodd" clip-rule="evenodd" d="M9.99996 0.0517578C4.48608 0.0517578 0 4.53669 0 10.0517C0 15.5657 4.48608 20.0512 9.99996 20.0512C15.5138 20.0512 20 15.5657 20 10.0517C20 4.53669 15.5138 0.0517578 9.99996 0.0517578ZM15.575 6.71679L9.42112 13.6399C9.2696 13.8098 9.05846 13.8974 8.84571 13.8974C8.67691 13.8974 8.50731 13.8421 8.3654 13.7297L4.51916 10.6523C4.18761 10.3872 4.13384 9.90282 4.39921 9.57056C4.66426 9.23938 5.1488 9.18508 5.48035 9.45066L8.7561 12.0711L14.4249 5.69421C14.7066 5.37594 15.1934 5.34744 15.5107 5.63025C15.8284 5.9125 15.8573 6.39852 15.575 6.71679Z" fill="#ef9e48"/>
</svg>
