<?xml version="1.0" encoding="UTF-8"?>
<svg width="147px" height="146px" viewBox="0 0 147 146" version="1.1" xmlns="http://www.w3.org/2000/svg" xmlns:xlink="http://www.w3.org/1999/xlink">
    <title>C6C9B625-359B-46AB-BA58-4CDD48A28B4D</title>
    <g id="Design" stroke="none" stroke-width="1" fill="none" fill-rule="evenodd">
        <g id="Home-design" transform="translate(-348.000000, -6518.000000)" fill="#FFDC6B">
            <g id="_Project-/-Blog" transform="translate(348.000000, 5962.000000)">
                <g id="graphic-green" transform="translate(73.500000, 629.000000) scale(-1, 1) rotate(-90.000000) translate(-73.500000, -629.000000) translate(1.000000, 556.000000)">
                    <circle id="Oval-Copy-251" cx="143.108193" cy="143.784828" r="1.69158621"></circle>
                    <circle id="Oval-Copy-250" cx="130.252138" cy="143.784828" r="1.69158621"></circle>
                    <circle id="Oval-Copy-249" cx="117.396083" cy="143.784828" r="1.69158621"></circle>
                    <circle id="Oval-Copy-248" cx="104.540028" cy="143.784828" r="1.69158621"></circle>
                    <circle id="Oval-Copy-247" cx="91.6839724" cy="143.784828" r="1.69158621"></circle>
                    <circle id="Oval-Copy-246" cx="78.8279172" cy="143.784828" r="1.69158621"></circle>
                    <circle id="Oval-Copy-245" cx="65.9718621" cy="143.784828" r="1.69158621"></circle>
                    <circle id="Oval-Copy-244" cx="53.1158069" cy="143.784828" r="1.69158621"></circle>
                    <circle id="Oval-Copy-243" cx="40.2597517" cy="143.784828" r="1.69158621"></circle>
                    <circle id="Oval-Copy-242" cx="27.4036966" cy="143.784828" r="1.69158621"></circle>
                    <circle id="Oval-Copy-241" cx="14.5476414" cy="143.784828" r="1.69158621"></circle>
                    <circle id="Oval-Copy-240" cx="1.69158621" cy="143.784828" r="1.69158621"></circle>
                    <circle id="Oval-Copy-234" cx="130.252138" cy="130.928772" r="1.69158621"></circle>
                    <circle id="Oval-Copy-233" cx="117.396083" cy="130.928772" r="1.69158621"></circle>
                    <circle id="Oval-Copy-232" cx="104.540028" cy="130.928772" r="1.69158621"></circle>
                    <circle id="Oval-Copy-231" cx="91.6839724" cy="130.928772" r="1.69158621"></circle>
                    <circle id="Oval-Copy-230" cx="78.8279172" cy="130.928772" r="1.69158621"></circle>
                    <circle id="Oval-Copy-229" cx="65.9718621" cy="130.928772" r="1.69158621"></circle>
                    <circle id="Oval-Copy-228" cx="53.1158069" cy="130.928772" r="1.69158621"></circle>
                    <circle id="Oval-Copy-227" cx="40.2597517" cy="130.928772" r="1.69158621"></circle>
                    <circle id="Oval-Copy-226" cx="27.4036966" cy="130.928772" r="1.69158621"></circle>
                    <circle id="Oval-Copy-225" cx="14.5476414" cy="130.928772" r="1.69158621"></circle>
                    <circle id="Oval-Copy-224" cx="1.69158621" cy="130.928772" r="1.69158621"></circle>
                    <circle id="Oval-Copy-217" cx="117.396083" cy="118.072717" r="1.69158621"></circle>
                    <circle id="Oval-Copy-216" cx="104.540028" cy="118.072717" r="1.69158621"></circle>
                    <circle id="Oval-Copy-215" cx="91.6839724" cy="118.072717" r="1.69158621"></circle>
                    <circle id="Oval-Copy-214" cx="78.8279172" cy="118.072717" r="1.69158621"></circle>
                    <circle id="Oval-Copy-213" cx="65.9718621" cy="118.072717" r="1.69158621"></circle>
                    <circle id="Oval-Copy-212" cx="53.1158069" cy="118.072717" r="1.69158621"></circle>
                    <circle id="Oval-Copy-211" cx="40.2597517" cy="118.072717" r="1.69158621"></circle>
                    <circle id="Oval-Copy-210" cx="27.4036966" cy="118.072717" r="1.69158621"></circle>
                    <circle id="Oval-Copy-209" cx="14.5476414" cy="118.072717" r="1.69158621"></circle>
                    <circle id="Oval-Copy-208" cx="1.69158621" cy="118.072717" r="1.69158621"></circle>
                    <circle id="Oval-Copy-200" cx="104.540028" cy="105.216662" r="1.69158621"></circle>
                    <circle id="Oval-Copy-199" cx="91.6839724" cy="105.216662" r="1.69158621"></circle>
                    <circle id="Oval-Copy-198" cx="78.8279172" cy="105.216662" r="1.69158621"></circle>
                    <circle id="Oval-Copy-197" cx="65.9718621" cy="105.216662" r="1.69158621"></circle>
                    <circle id="Oval-Copy-196" cx="53.1158069" cy="105.216662" r="1.69158621"></circle>
                    <circle id="Oval-Copy-195" cx="40.2597517" cy="105.216662" r="1.69158621"></circle>
                    <circle id="Oval-Copy-194" cx="27.4036966" cy="105.216662" r="1.69158621"></circle>
                    <circle id="Oval-Copy-193" cx="14.5476414" cy="105.216662" r="1.69158621"></circle>
                    <circle id="Oval-Copy-192" cx="1.69158621" cy="105.216662" r="1.69158621"></circle>
                    <circle id="Oval-Copy-183" cx="91.6839724" cy="92.3606069" r="1.69158621"></circle>
                    <circle id="Oval-Copy-182" cx="78.8279172" cy="92.3606069" r="1.69158621"></circle>
                    <circle id="Oval-Copy-181" cx="65.9718621" cy="92.3606069" r="1.69158621"></circle>
                    <circle id="Oval-Copy-180" cx="53.1158069" cy="92.3606069" r="1.69158621"></circle>
                    <circle id="Oval-Copy-179" cx="40.2597517" cy="92.3606069" r="1.69158621"></circle>
                    <circle id="Oval-Copy-178" cx="27.4036966" cy="92.3606069" r="1.69158621"></circle>
                    <circle id="Oval-Copy-177" cx="14.5476414" cy="92.3606069" r="1.69158621"></circle>
                    <circle id="Oval-Copy-176" cx="1.69158621" cy="92.3606069" r="1.69158621"></circle>
                    <circle id="Oval-Copy-166" cx="78.8279172" cy="79.5045517" r="1.69158621"></circle>
                    <circle id="Oval-Copy-165" cx="65.9718621" cy="79.5045517" r="1.69158621"></circle>
                    <circle id="Oval-Copy-164" cx="53.1158069" cy="79.5045517" r="1.69158621"></circle>
                    <circle id="Oval-Copy-163" cx="40.2597517" cy="79.5045517" r="1.69158621"></circle>
                    <circle id="Oval-Copy-162" cx="27.4036966" cy="79.5045517" r="1.69158621"></circle>
                    <circle id="Oval-Copy-161" cx="14.5476414" cy="79.5045517" r="1.69158621"></circle>
                    <circle id="Oval-Copy-160" cx="1.69158621" cy="79.5045517" r="1.69158621"></circle>
                    <circle id="Oval-Copy-149" cx="65.9718621" cy="66.6484966" r="1.69158621"></circle>
                    <circle id="Oval-Copy-148" cx="53.1158069" cy="66.6484966" r="1.69158621"></circle>
                    <circle id="Oval-Copy-147" cx="40.2597517" cy="66.6484966" r="1.69158621"></circle>
                    <circle id="Oval-Copy-146" cx="27.4036966" cy="66.6484966" r="1.69158621"></circle>
                    <circle id="Oval-Copy-145" cx="14.5476414" cy="66.6484966" r="1.69158621"></circle>
                    <circle id="Oval-Copy-144" cx="1.69158621" cy="66.6484966" r="1.69158621"></circle>
                    <circle id="Oval-Copy-132" cx="53.1158069" cy="53.7924414" r="1.69158621"></circle>
                    <circle id="Oval-Copy-131" cx="40.2597517" cy="53.7924414" r="1.69158621"></circle>
                    <circle id="Oval-Copy-130" cx="27.4036966" cy="53.7924414" r="1.69158621"></circle>
                    <circle id="Oval-Copy-129" cx="14.5476414" cy="53.7924414" r="1.69158621"></circle>
                    <circle id="Oval-Copy-128" cx="1.69158621" cy="53.7924414" r="1.69158621"></circle>
                    <circle id="Oval-Copy-114" cx="27.4036966" cy="40.9363862" r="1.69158621"></circle>
                    <circle id="Oval-Copy-115" cx="40.2221609" cy="40.9363862" r="1.69158621"></circle>
                    <circle id="Oval-Copy-113" cx="14.5476414" cy="40.9363862" r="1.69158621"></circle>
                    <circle id="Oval-Copy-112" cx="1.69158621" cy="40.9363862" r="1.69158621"></circle>
                    <circle id="Oval-Copy-98" cx="27.4036966" cy="28.080331" r="1.69158621"></circle>
                    <circle id="Oval-Copy-97" cx="14.5476414" cy="28.080331" r="1.69158621"></circle>
                    <circle id="Oval-Copy-96" cx="1.69158621" cy="28.080331" r="1.69158621"></circle>
                    <circle id="Oval-Copy-81" cx="14.5476414" cy="15.2242759" r="1.69158621"></circle>
                    <circle id="Oval-Copy-80" cx="1.69158621" cy="15.2242759" r="1.69158621"></circle>
                    <circle id="Oval-Copy-64" cx="1.69158621" cy="2.36822069" r="1.69158621"></circle>
                </g>
            </g>
        </g>
    </g>
</svg>