<?xml version="1.0" encoding="utf-8"?>
<!-- Generator: Adobe Illustrator 22.0.1, SVG Export Plug-In . SVG Version: 6.00 Build 0)  -->
<svg version="1.1" id="Слой_2" xmlns="http://www.w3.org/2000/svg" xmlns:xlink="http://www.w3.org/1999/xlink" x="0px" y="0px"
	 viewBox="0 0 2000 1562.2" style="enable-background:new 0 0 2000 1562.2;" xml:space="preserve">
<style type="text/css">
	.st0{fill:#4B3584;}
	.st1{fill:#E6325C;}
	.st2{fill:#F7AF4D;}
	.st3{fill:#C2DEF5;}
	.st4{fill:#2A2150;}
	.st5{fill:#2B2150;}
	.st6{fill:#2BB19E;}
	.st7{fill:#5970B4;}
	.st8{fill:#4A5DA6;}
	.st9{fill:#8396CC;}
	.st10{fill:#EA5E83;}
	.st11{fill:#F5AE9E;}
	.st12{fill:#A4C6E9;}
	.st13{fill:#EE7E94;}
	.st14{fill:#313C85;}
	.st15{fill:#8ECFD4;}
</style>
<g>
	<path class="st0" d="M1553.7,1049.3c1,3.9,1.1,8.1,1.5,12.3h-18.5c0.1-0.1,0.1-0.3,0.2-0.4l2-5.1l8-19.9
		C1550.1,1039.9,1552.5,1044.3,1553.7,1049.3z"/>
	<path class="st0" d="M1561.1,960c-2.4,8.9-4.5,17.7-5.7,25.7c-1.8,1.3-3.5,2.8-5.1,4.5c-7.5,8.2-10.9,19.7-12.9,30.8
		c-0.2,1.4-0.7,4.9-0.7,4.9l-9,30.2l-0.5,1.8c-0.4,1.2-0.3,2.7,0.4,3.8H586.9c-3,0-5.4-2.4-5.4-5.4v-90.8c0-3,2.4-5.4,5.4-5.4
		H1561.1z"/>
	<path class="st0" d="M1633.3,979l0.5,74.9c0,0.9-0.3,1.8-0.8,2.6c-1.8,3-6.9,5.2-12.8,5.2h-9.8c-2.3-1.8-4.9-3.5-7.1-5.6
		c-0.7-0.7-1.5-1.4-2.1-2.2c-8.4-10.2-4.6-26.6-3.2-41c0.4,0,0.9,0,1.3-0.1c1.1-0.4,2.3-1.3,2.6-2.4c2.5-11.9,12.5-31,21.5-50.1
		c2,0.3,3.8,0.8,5.3,1.4C1628.6,961.6,1633.3,976.5,1633.3,979z"/>
	<g>
		<path class="st1" d="M1610.2,1091.2c-1.1,1.6-2.3,3.2-3.9,3.9c-1.6,0.7-3.4,0.4-5,0c-11.8-2.6-23.1-6.9-33.6-12.9
			c-3.3-1.9-6.6-4-8.8-7.3c-4.7-7-3.1-17.1-5.2-25.6c-1.2-5-3.7-9.4-6.7-13.2l-8,19.9c-0.9,2.3-1.5,4.7-3.1,6.7
			c-1.2,1.5-3.5,1.9-5.3,1.3l-0.1,0c-1.4-0.5-2.8-1.7-3.1-3.2c-0.7-1.5,0-3.3,0.5-4.8l9-30.2c0,0,0.5-3.6,0.7-4.9
			c1.9-11.1,5.4-22.6,12.9-30.8c1.5-1.7,3.3-3.2,5.1-4.5c2.7,2,5.6,4.1,8.8,6.1c0.7,8.3,3.8,18.4,6.3,23.9
			c22.8,51.1,25.4,18.5,26.3-0.4c0,0-4.1,28.5,4.3,38.7c5.1,6.2,14.2,8.8,16.1,17.1C1618.9,1077.9,1614.4,1085.2,1610.2,1091.2z"/>
		<path class="st2" d="M746.9,366.7c-10.3,11.3-16.9,25.5-19.1,40.6c-0.5,3.4-3.4,6-6.9,6h-62.3c-3.5,0-6.4-2.6-6.9-6
			c-2.2-15.4-8.7-29-19.3-40.7c-12.5-13.7-20-32-20-52c0-44.6,37.7-80.3,82.9-77.1c38,2.7,68.8,33.4,71.6,71.5
			C768.4,331.2,760.6,351.7,746.9,366.7z"/>
		<path class="st3" d="M690,475.7h-0.7c-18.3,0-33.1-12.7-33.1-28.5v-21.3c0-1.1,0.9-2,2-2h62.9c1.1,0,2,0.9,2,2v21.3
			C723.1,463,708.3,475.7,690,475.7z"/>
		<path class="st4" d="M690,478.4h-0.7c-19.7,0-35.8-14-35.8-31.2v-21.3c0-2.6,2.1-4.7,4.7-4.7h62.9c2.6,0,4.7,2.1,4.7,4.7v21.3
			C725.8,464.4,709.8,478.4,690,478.4z M659,426.7v20.5c0,14.2,13.6,25.7,30.3,25.7h0.7c16.7,0,30.3-11.5,30.3-25.7v-20.5H659z"/>
		<path class="st5" d="M578.3,330.1h-62.9c-1,0-1.8-0.8-1.8-1.8c0-1,0.8-1.8,1.8-1.8h62.9c1,0,1.8,0.8,1.8,1.8
			C580.1,329.3,579.3,330.1,578.3,330.1z"/>
		<path class="st5" d="M864,330.1h-62.9c-1,0-1.8-0.8-1.8-1.8c0-1,0.8-1.8,1.8-1.8H864c1,0,1.8,0.8,1.8,1.8
			C865.9,329.3,865,330.1,864,330.1z"/>
		<path class="st5" d="M689.7,218.7c-1,0-1.8-0.8-1.8-1.8V154c0-1,0.8-1.8,1.8-1.8c1,0,1.8,0.8,1.8,1.8v62.9
			C691.5,217.9,690.7,218.7,689.7,218.7z"/>
		<path class="st5" d="M610.9,251.3c-0.5,0-0.9-0.2-1.3-0.5l-44.5-44.5c-0.7-0.7-0.7-1.9,0-2.6c0.7-0.7,1.9-0.7,2.6,0l44.5,44.5
			c0.7,0.7,0.7,1.9,0,2.6C611.8,251.1,611.4,251.3,610.9,251.3z"/>
		<path class="st5" d="M768.5,251.3c-0.5,0-0.9-0.2-1.3-0.5c-0.7-0.7-0.7-1.9,0-2.6l44.5-44.5c0.7-0.7,1.9-0.7,2.6,0
			c0.7,0.7,0.7,1.9,0,2.6l-44.5,44.5C769.4,251.1,769,251.3,768.5,251.3z"/>
	</g>
	<path class="st6" d="M1675.2,1297.8v42.8c0,36-32.9,64.1-73.4,64.1H631.4c-4.7,0-8.4-3.3-8.4-8v-0.2c0-4.7,3.8-8.5,8.4-8.5h4.8
		l-0.7,0.8v0.5h412.7c24.6,0,44.6-19.5,44.6-43.5v-52.2c0-24-20-43.5-44.6-43.5H784v-0.2H631.4c-4.7,0-8.4-3.8-8.4-8.4v-0.1
		c0-4.7,3.8-8.5,8.4-8.5h772.6v26.2c0,2,1.5,3.2,2.6,1.9l24.2-28.1h5.9l24.2,28.1c1.1,1.2,2.6,0.1,2.6-1.9v-26.2h138.2
		C1642.4,1232.7,1675.2,1261.9,1675.2,1297.8z"/>
	<path class="st3" d="M635.5,1388.8v0.5h412.7c24.6,0,44.6-19.5,44.6-43.5v-52.2c0-24-20-43.5-44.6-43.5H635.5v0.5
		C652.4,1270.9,653.2,1369.9,635.5,1388.8z"/>
	<path class="st2" d="M1638.8,1064.7c0,0.5,0,1-0.1,1.5c-0.7,4.8-4.9,7.3-9.4,7.3c0,0-11.8-0.6-11.8-0.6c0-0.7-0.1-1.3-0.3-2
		c-1-4.1-3.7-6.9-6.9-9.4h9.8c5.9,0,11-2.2,12.8-5.2c0.1-0.2,2.3,1.2,2.5,1.4C1637.6,1059.4,1638.8,1062,1638.8,1064.7z"/>
	<path class="st2" d="M1638.8,1223.5v0.2c0,4.8-3.7,9.2-8.4,9.2H786.7h-75.4H660c-40.5,0-73.4-29.8-73.4-66.6v-43.7
		c0-27.3,18.1-50.7,44-61h924.6c0.3,3.3,0.7,6.5,1.8,9.4c0.3,0.7,0.5,1.4,0.8,2h-481.5c-25.1,0-45.4,19.7-45.4,44.1v52.8
		c0,11.4,4.5,21.8,11.8,29.6c8.3,8.9,20.3,14.4,33.6,14.4l554,1.1C1635.1,1214.9,1638.8,1218.8,1638.8,1223.5z"/>
	<path class="st3" d="M1626.3,1072.9c-16.1,23.6-16.4,119.8,1.1,138.4v0.5h-163.8v-78h-59.6v78h-329.7c-12.3,0-23.4-4.8-31.6-12.4
		c-8.5-8-13.8-19.2-13.8-31.6V1115c0-24.3,20.4-44,45.4-44H1557c0.3,0.7,0.5,1.4,0.8,2c0.3,0.7,0.7,1.4,1.1,2
		c2.2,3.3,5.5,5.4,8.8,7.3c10.5,6,21.8,10.3,33.6,12.9c1.6,0.4,3.4,0.7,5,0c1.6-0.7,2.8-2.4,3.9-3.9c3.8-5.4,7.8-11.9,7.3-18.3
		c0-0.7-0.1-1.3-0.3-2h10.1C1627.4,1070.9,1626.6,1072.4,1626.3,1072.9z"/>
	<path class="st7" d="M786.7,1232.9l-69.1,0.1c-15.6-19.2-19.4-36.7-19.4-57.7v-56.5c0-21,11.4-45.4,31.5-57.2h55
		c-24.4,4.6-43.2,28.5-43.2,57.2v56.5C741.5,1204.9,761.3,1229.3,786.7,1232.9z"/>
	<path class="st7" d="M903.9,1232.9l-69.1,0.1c-15.6-19.3-19.4-36.8-19.4-58v-56.8c0-20.6,10.9-44.5,30.2-56.7h52.9
		c-22.8,6.1-39.8,29.2-39.8,56.7v56.8C858.7,1204.7,878.5,1229.3,903.9,1232.9z"/>
	<path class="st8" d="M1351.1,686.4v0.2c0,4.8-3.9,8.7-8.8,8.7h-1.2c0,0,0-0.1,0.1-0.1v-0.5H764.9c-26.1,0-47.3,20-47.3,44.6v53.5
		c0,24.6,21.2,44.6,47.3,44.6H793v18.8l-2.7,0h-15.6c-6.9,0-13.5-0.8-19.8-2.3c-32.6-7.7-56.6-33.8-56.6-64.9v-44.2
		c0-37.1,34.2-67.2,76.5-67.2h567.7C1347.2,677.6,1351.1,681.6,1351.1,686.4z"/>
	<path class="st8" d="M1351.1,846.7v0.2c0,4.8-3.9,8.7-8.8,8.7l-472.4,0.5v-18.7l472.4,0.5C1347.2,838,1351.1,841.9,1351.1,846.7z"
		/>
	<path class="st3" d="M1341.2,695.3c-17.8,21.2-18.6,122.3,0.1,141.7v0.5H869.9v-84.6h-77v84.6h-28.1c-26.1,0-47.3-20-47.3-44.6
		v-53.5c0-24.6,21.2-44.6,47.3-44.6h576.4v0.5C1341.2,695.2,1341.2,695.2,1341.2,695.3z"/>
	<path class="st1" d="M1589.3,854.9c-1.9,14-12.1,37.2-18.5,68.3c-2.3,11.2-6.3,24.1-9.6,36.8h0l-927.8-0.4c-4.7,0-8.4-2.4-8.4-5.3
		v-0.1c0-2.9,3.8-5.3,8.4-5.3H786v-0.6h401.4c25.1,0,45.4-12.2,45.4-27.2v-32.6c0-15.1-20.4-27.2-45.4-27.2H869.9v59.3
		c0,2.6-2,4.1-3.4,2.5l-35.1-40.7L796.4,923c-1.4,1.6-3.4,0.1-3.4-2.5v-59.3H634.4v0.3c0.2,0.1,0.4,0.3,0.6,0.5h-1.6
		c-4.7,0-8.4-2.4-8.4-5.3v-0.1c0-3,3.8-5.3,8.4-5.3h792.9c1.5,0.7,3.1,1.3,4.7,1.9c18.7,6.8,101,5.7,126.5,4.7
		C1565.5,857.5,1586.2,856.4,1589.3,854.9z"/>
	<path class="st3" d="M1232.8,888.4V921c0,15-20.4,27.2-45.4,27.2h-553v-0.3c18-11.8,17.2-73.7,0-86.5v-0.3H793v59.3
		c0,2.6,2,4.1,3.4,2.5l35.1-40.7l35.1,40.7c1.4,1.6,3.4,0.1,3.4-2.5v-59.3h317.5C1212.5,861.1,1232.8,873.3,1232.8,888.4z"/>
	<path class="st1" d="M1157.6,534c-0.4-1.2-0.9-2.4-1.3-3.6c0,0-40.6-115.3-42.1-119.2c-4.7-12.4-15.3-22.5-28.4-25.4l-29.7-6.7
		c-5.9-1.3-11.8-2.6-17.6-4c2.4,0.6-0.5,5-0.5,5.9c0,6.6-4.5,11.6-9.2,15.6c-5.6,4.7-11.6,8.6-18.2,11.5c-0.4,0.2-2.3-1.1-2.6-1.3
		c-4.2-2.2-8.3-4.7-12.1-7.6c-3.2-2.4-6.2-5.2-8.5-8.3c-0.8-1.2-1.6-2.3-2.2-3.6c-1.9-4.3-1.6-8.8-1.6-13.4c-1.5,0.5-3,1-4.4,1.5
		c-3.2,1.1-6.8,0.7-10,1.9c-8.3,3.3-17.3,4.8-25.7,7.9c-7.5,2.8-14.2,9.2-20.8,14c-4.4,3.2-7.5,7.2-10.2,11.9
		C907,420.7,862,515.9,861,518.5c-1,2.4-2.5,5.4-2.7,8c-0.3,5.2-0.5,10.7,0.8,15.8c1,4.5,5.9,12.6,9.6,15.5
		c12.8,10.1,52.7-7.7,52.7-7.7c-0.4,1.6-5.9,13.1-6.9,16c-0.4,0.9-0.7,1.8-1,2.7c-0.1,0.2-0.1,0.4-0.2,0.5l97.9,35.9
		c0,0,80-26.1,79.8-26.6C1119.7,571.1,1167.6,554.5,1157.6,534z M1093.2,535.4l0.7-32.9l9.5,15.9l2.2,3.6l1.9,3.2L1093.2,535.4z"/>
	<path class="st2" d="M939.1,693.8c-12.8,1-40.7,1.9-53.5,2.8c-2.7,0.2-5.6,0.4-8.4-0.5c-5.5-1.8-8.6-7.1-10.3-11.8
		c-6.9-18.7-4.9-42.7,6.6-57.2l55,18L939.1,693.8z"/>
	<path class="st5" d="M901,675.8c-0.2,0-0.4,0-0.6-0.1c-0.9-0.3-1.4-1.4-1.1-2.3c2.8-7.7,3.8-16,2.7-24.7c-0.1-1,0.6-1.9,1.6-2
		c1-0.1,1.9,0.6,2,1.6c1.1,9.2,0.1,18.1-2.9,26.4C902.4,675.4,901.7,675.8,901,675.8z"/>
	<path class="st5" d="M913.9,677.4c-0.2,0-0.4,0-0.6-0.1c-0.9-0.3-1.4-1.4-1.1-2.3c2.8-7.6,3.8-16.2,2.7-24.7c-0.1-1,0.6-1.9,1.6-2
		c1-0.1,1.9,0.6,2,1.6c1.1,9.1,0.1,18.2-2.9,26.4C915.3,677,914.6,677.4,913.9,677.4z"/>
	<g>
		<path class="st2" d="M1118.9,617.5c14,16.7,19.3,45.7,14.6,67c-1.1,5-3.4,10.5-8.3,11.9c-2.5,0.7-5.1,0.2-7.6-0.2
			c-11.8-2.3-37.5-6-49.3-8.3l0.4-53.4C1081.2,629.9,1116.9,615.2,1118.9,617.5z"/>
		<path class="st5" d="M1101.2,671.7c-0.7,0-1.4-0.4-1.7-1.2c-3.6-9.3-5.4-19.1-5.3-29.1c0-1,0.8-1.8,1.8-1.8c0,0,0,0,0,0
			c1,0,1.8,0.8,1.8,1.8c-0.1,9.4,1.7,19,5.1,27.7c0.4,0.9-0.1,2-1,2.4C1101.6,671.7,1101.4,671.7,1101.2,671.7z"/>
		<path class="st5" d="M1089.5,672.3c-0.7,0-1.4-0.4-1.7-1.2c-3.6-9.3-5.4-19.1-5.3-29.1c0-1,0.8-1.8,1.8-1.8c0,0,0,0,0,0
			c1,0,1.8,0.8,1.8,1.8c-0.1,9.4,1.7,19,5.1,27.7c0.4,0.9-0.1,2-1,2.4C1090,672.2,1089.7,672.3,1089.5,672.3z"/>
		<path class="st5" d="M1079.1,675c-0.7,0-1.4-0.4-1.7-1.2c-3.6-9.3-5.4-19.1-5.3-29.1c0-1,0.7-1.7,1.8-1.8c1,0,1.8,0.8,1.8,1.8
			c-0.1,9.4,1.7,19,5.1,27.7c0.4,0.9-0.1,2-1,2.4C1079.6,674.9,1079.3,675,1079.1,675z"/>
		<path class="st6" d="M1153.9,632.6l-23.4,6.7c-2.7-8.2-6.6-15.7-11.6-21.7c-2-2.4-37.7,12.3-50.3,17c1.2,16.9-1.2,37.1-0.4,53.3
			c0.1,0,0.3,3.1,0.3,3.1l-55.7-18.3l-73.7,21l-10.7-48.6l-66.9-21.9c-17.8-5.8-27.5-24.9-21.6-42.7l0.2-0.6
			c3.3-10.1,10.9-17.6,20.2-21.1c0.5-0.2,1.1-0.4,1.6-0.6c1.6-0.5,3.3-1,5-1.2c2.3,0.5,4.4,2.4,6.6,3.5c4.3,2.1,9.4,1,14.1-0.4
			l123.7,45.4c0,0,122.2-38.1,122.2-38.1c17-5.3,35.7,3.9,41.8,20.6c6.1,16.6-1.1,35.7-17.5,43.2
			C1156.6,631.6,1155.3,632.1,1153.9,632.6z"/>
		<path class="st9" d="M983,379h-21.5c5.6-1.2,11.2-2.4,16.8-3.6h4.6C982.8,376.6,982.9,377.8,983,379z"/>
		<path class="st9" d="M1058.4,379h-19.1c0-1.2-0.2-2.4-0.6-3.6h0.2C1045.4,376.6,1051.9,377.8,1058.4,379z"/>
		<path class="st9" d="M985.9,387.3c0.7,1.3,1.6,2.5,2.6,3.6h-61.2c1.4-1.1,2.9-2.1,4.5-3c0.4-0.2,0.8-0.4,1.2-0.6H985.9z"/>
		<path class="st9" d="M1098,390.9h-62.7c0.8-1.1,1.6-2.3,2.2-3.6h53.9C1093.7,388.3,1095.9,389.5,1098,390.9z"/>
		<path class="st9" d="M998.1,399.2c1.9,1.2,3.8,2.4,5.7,3.6h-87.6c0.9-1.2,1.8-2.5,2.7-3.6H998.1z"/>
		<path class="st9" d="M1110,402.9h-90c0.3-0.2,0.6-0.4,0.9-0.5c1.6-1,3.3-2,4.9-3.1h81.5C1108.3,400.4,1109.2,401.6,1110,402.9z"/>
		<path class="st9" d="M1116.5,414.8H908.9c0.6-1.2,1.3-2.4,2-3.6h203.9C1115.5,412.3,1116,413.5,1116.5,414.8z"/>
		<path class="st9" d="M1120.8,426.7H902.9c0.5-0.9,0.9-1.8,1.4-2.8c0.1-0.3,0.3-0.5,0.4-0.8h214.9
			C1120,424.3,1120.4,425.5,1120.8,426.7z"/>
		<path class="st9" d="M898.9,435h17.2v3.6h-18.9C897.8,437.4,898.3,436.2,898.9,435z"/>
		<polygon class="st9" points="1086.5,435 1072.4,438.6 936.9,438.6 922.7,435 		"/>
		<path class="st9" d="M1124,438.6h-30.8V435h29.9C1123.4,436.2,1123.7,437.4,1124,438.6z"/>
		<path class="st9" d="M893.1,447h22.9v3.6h-24.7C891.9,449.3,892.5,448.1,893.1,447z"/>
		<polygon class="st9" points="1039.9,447 1025.9,450.5 983.2,450.5 969.3,447 		"/>
		<path class="st9" d="M1127.1,450.5h-33.9V447h32.9c0.1,0.4,0.2,0.8,0.3,1.3C1126.7,449,1126.9,449.8,1127.1,450.5z"/>
		<path class="st9" d="M887.3,458.9h28.8v3.6h-30.6C886.1,461.2,886.7,460,887.3,458.9z"/>
		<path class="st9" d="M1130.6,462.4h-37.4v-3.6h36.3C1129.8,460.1,1130.2,461.3,1130.6,462.4z"/>
		<path class="st9" d="M881.5,470.8h34.6v3.6h-36.4C880.2,473.2,880.9,472,881.5,470.8z"/>
		<path class="st9" d="M1134.7,474.4h-41.5v-3.6h40.2C1133.8,472,1134.3,473.2,1134.7,474.4z"/>
		<path class="st9" d="M875.6,482.7h40.4v3.6h-42.2C874.4,485.1,875.1,483.9,875.6,482.7z"/>
		<path class="st9" d="M1139.4,486.3h-46.2v-3.6h44.7C1138.4,483.9,1138.9,485.1,1139.4,486.3z"/>
		<path class="st9" d="M869.8,494.6h46.3v3.6H868C868.6,497.1,869.2,495.8,869.8,494.6z"/>
		<path class="st9" d="M1144.8,498.3h-51.5v-3.6h49.8C1143.6,495.8,1144.1,497.1,1144.8,498.3z"/>
		<path class="st9" d="M864,506.6h52.1v3.6h-53.8C862.9,508.9,863.4,507.7,864,506.6z"/>
		<path class="st9" d="M1150.4,510.2h-48.7c-0.6-1.2-1.3-2.4-1.9-3.6h49C1149.3,507.7,1149.9,508.9,1150.4,510.2z"/>
		<path class="st9" d="M935.7,522.1h-76.7c-0.3,0-0.7-0.1-1-0.3c-0.5-0.3-0.8-0.8-0.8-1.5c0-1,0.8-1.8,1.8-1.8h74.1L935.7,522.1z"/>
		<path class="st9" d="M1152.4,522.2l-46.8-0.2l-2.2-3.6l47.9,0.2C1151.7,519.8,1152.1,521,1152.4,522.2z"/>
		<path class="st9" d="M944.5,534h-85.4c-0.3,0-0.6-0.1-0.8-0.2c-0.6-0.3-1-0.9-1-1.6c0-0.7,0.4-1.3,1-1.6c0.3-0.2,0.5-0.3,0.8-0.3
			h82.7L944.5,534z"/>
		<path class="st9" d="M1156.8,534h-62.1c1.5-1.3,3.1-2.5,4.7-3.6h57.3c0,0.3,0.1,0.5,0.1,0.8C1156.7,532.1,1156.8,533.1,1156.8,534
			z"/>
		<path class="st9" d="M947.7,542.3c-0.2,0.3-0.3,0.5-0.4,0.5c-1.5,0.4-5,1.9-8.2,3.1h-80c-0.3,0-0.7-0.1-0.9-0.3
			c-0.5-0.3-0.9-0.9-0.9-1.5c0-0.4,0.1-0.7,0.3-1v0c0.4-0.5,0.9-0.8,1.5-0.8H947.7z"/>
		<path class="st9" d="M1155.5,542.3c-0.2,0.7-0.4,1.4-0.7,2c-0.2,0.5-0.5,1.1-0.7,1.6h-77.9c-0.8-1.2-1.9-2.4-3.1-3.5
			c-0.1,0-0.1-0.1-0.2-0.1H1155.5z"/>
		<path class="st9" d="M906.6,554.2c-2,0.9-3.9,2-5.8,3.2c0.3,0.1,0.6,0.3,1,0.4h-35.9c-0.7-0.4-1.3-0.9-1.9-1.5
			c-0.7-0.6-1.3-1.3-1.9-2.1H906.6z"/>
		<path class="st9" d="M973,557.9h-55.6c0.3-1.2,0.5-2.4,0.7-3.6h40.7L973,557.9z"/>
		<path class="st9" d="M1147.9,554.2c-1.3,1.3-2.8,2.5-4.3,3.6h-68.2l0.7-3.6H1147.9z"/>
		<path class="st9" d="M1010.6,569.8h-94.9c-0.7-0.3-1.5-0.6-2.2-0.9c-0.4-0.2-0.9-0.4-1.4-0.5c0.3-0.7,0.6-1.4,0.8-2.2h93.1
			C1007.6,567.5,1009.1,568.7,1010.6,569.8z"/>
		<path class="st9" d="M1127.2,566.2c-2,0.8-4.1,1.5-6.1,2.2c-1.3,0.5-2.7,1-4.1,1.4h-43.7l0.7-3.6H1127.2z"/>
		<path class="st9" d="M1093,578.1c-3.4,1.2-6.9,2.4-10.5,3.6H944.3c-2.9-1.2-5.7-2.4-8.6-3.6H1093z"/>
		<path class="st9" d="M1051.6,590c0,0-9.4,2.5-12.4,3.6h-65.9c-2.9-1.2-5.7-2.4-8.6-3.6H1051.6z"/>
	</g>
	<path class="st10" d="M759.4,538.3l-52,120.6l-42.4,11c1.5-3.9,3.3-9.4,3.4-11.7c0.5-10-0.3-19.6-3.9-28.6
		c-1.7-4.4-5.7-5.2-10.3-4.1c-0.5,0.1-12.2,1.1-13.4,8.2c-4.3,26.8-15.1,29.2-20.4,33.8c-1,0.8-1.8,2.1-2.3,3.5l-69.5-7.9l39-116.1
		l96.6,7.5l0-0.1L759.4,538.3z"/>
	<path class="st2" d="M350.3,1372.2c-0.1,8.3-7.6,14.8-14.4,20c-1.8,1.4-3.7,2.8-5.8,3c-2.1,0.2-4.1-0.7-5.9-1.7
		c-13.1-7-25.2-15.8-35.7-26.1c-3.4-3.3-6.6-6.8-8.2-11.2c-3.4-9.4,1.5-20.1,1.6-30.3c0.1-6-1.5-11.7-4-17l-19.4,24.3
		c-1.9,2.4-5.6,2.9-8.4,1l-0.1,0c-2.7-1.9-3.6-5.4-1.9-8l20.8-32.2c0,0,1.6-3.8,2.3-5.2c5.6-11.7,13.2-23.2,24.5-29.8
		c6.2-3.7,13.9-5.3,20.8-4.4l-1.8,1.8c-5.2,8.1-2.8,25.3,0.6,34.6c1.9,5.3,4.3,9.4,6.8,12.3c4.4,5.1,10.8,7.4,17.4,4.8
		c1.1-0.4,2.2-1,3.3-1.6c-5.7,13.9-12.4,28.5-6.3,41.1C340.6,1356.3,350.5,1362.4,350.3,1372.2z"/>
	<path class="st11" d="M345.3,1300.2c-5.4,12.6-21.3,14.5-29.9-9.2c-3.4-9.4-5.8-26.5-0.6-34.6l3.9-4c-0.8,1.5,19.5,18.8,21,20
		c4.1,3.3,8.5,6.5,12.7,8.8c1,0.5,2,1.1,2.9,1.5c0,0-3,5.5-2.2,4.3C353.5,1286.3,345.3,1300.2,345.3,1300.2z"/>
	<path class="st2" d="M546.7,1397.9c-0.6,2.1-1.3,4.3-2.9,5.8c-1.6,1.4-3.7,1.8-5.8,2c-14.8,1.9-29.9,1.7-44.6-0.6
		c-4.6-0.7-9.4-1.7-13.3-4.3c-8.4-5.6-10.8-17.1-16.8-25.4c-3.5-4.9-8.2-8.6-13.4-11.5l-1.2,30.9c-0.1,3.1-2.9,5.6-6.2,5.6h-0.1
		c-3.4,0.1-6.1-2.3-6.3-5.4l-2.4-38.1c0,0-0.9-4-1.2-5.6c-2.4-12.7-3.2-26.4,2-38.2c3-6.8,7.7-12.2,14.1-15.4c-0.1,0.3,0.4-0.1,0,0
		c2.5,10.7,5.5,22.2,13.7,29.5c8.2,7.4,20.2,9.1,31.2,8c2.7-0.3,5.7-0.8,7.4-3c0.6-0.7,1-1.6,1.3-2.5c5,14.6,6.6,26.8,18.2,31.8
		c8.9,3.8,20.2,3.9,25.9,11.9C551.2,1380.2,549.1,1389.8,546.7,1397.9z"/>
	<path class="st11" d="M500,1331.6c-3.8,6.1-18,6.1-35.5-3.2c-8.7-4.6-15.1-18-16-27.6c1-0.6,1.9-1.1,2.9-1.6l43,4.5
		C495.7,1306.4,499,1328.6,500,1331.6z"/>
	<path class="st0" d="M541,916.5c-0.9,45.6-9.5,114.2-14.8,152.9v0.1c-1.7,12.2-3,21.4-3.7,25.9c-0.1,0.6-0.2,1.2-0.3,1.6
		c-0.1,0.7-0.2,1.1-0.2,1.4c0,0.1,0,0.2,0,0.3l-0.1,0.5l-12.8,102L505,1235v0.1l-8.6,68.8l-4.2-0.4l-4.1-0.4l-12.8-1.3l-4.2-0.4
		l-12.7-1.3l-4.2-0.4l-12.7-1.3l-0.6-0.1l7.2-146.8c-0.3,0.5-2.7,3.9-6.6,9.5c-1.2,1.8-2.7,3.9-4.3,6.2c-3.6,5.2-8,11.4-12.7,18.2
		c-0.4,0.6-0.8,1.2-1.3,1.8c-24.9,35.6-60.4,86.2-67.1,94.6c-0.2,0.2-0.3,0.4-0.5,0.6c-0.1,0.1-0.3,0.3-0.3,0.4c0,0-0.1,0-0.1,0.1
		c-1.6,0.7-12-7.4-15.5-10.3c-0.5-0.4-0.9-0.7-1.1-0.9c-1.1-0.9-2.1-1.8-3.2-2.8c-4.4-3.9-8.6-8.1-12.8-12.3
		c-0.1-0.1-0.5-0.4-0.9-0.8c0,0-0.1-0.1-0.1-0.1c-1.3-1.1-3.2-2.6-3-3.2c4.5-10.4,38.8-76.4,50.7-99.6c1.4-2.8,13.2-24.8,17-31.4
		c4.3-7.6,8.6-15.4,13.8-22.4c1.3-1.7,5-5,7.3-7.1c0,0,0,0,0,0c0.9-0.8,1.6-1.5,1.9-1.8c2.3-2.8,1.5-4.6,1.5-4.6
		c-0.6-27.2-2.3-54.6-5.9-81.6c2.1,0.5,4.2,0.8,4.8,0.4c4.2-2.6,4.3-4.2,1.5-6.7c-5-4.6-8.1-17.5-8.6-20.2c-0.4-2-1.8-7.1-3.5-12
		c0,0,0,0,0-0.1c-1-6.1-1.8-11.3-2.2-14.8c-1.2-8.4-1.6-16.8-1.6-25.3v-1.5c0.6,0.1,1.3,0.1,2,0.2c14.4,1.5,54.1,5.1,79.4,2.3
		c6.2-0.7,13-32.7,13-32.7c19,0,42-3.4,42-3.4s0.4,22.1,0,26.7C531.5,918.9,536.7,917.7,541,916.5z"/>
	<path class="st11" d="M357,952c-8,5.9-12.5,52-12.5,52c-3.5,13.9,12.7,29.7,26.3,31.6c9.3,1,20.4-34.6,21.3-42.3c0,0,5,6.3,7.5,8.4
		c1.9,1.6,8.8,3.4,10.2,2.5c4.2-2.6,4.3-4.2,1.5-6.7c-5-4.6-8.1-17.5-8.6-20.3c-0.8-3.9-5.6-20.3-8.8-23.3L357,952z"/>
	<path class="st6" d="M488.4,733c-4-12.6-13-22.9-22-32.6c-14.3-15.2-29.3-29.8-45.1-43.5l-27,6.5c-0.6,0.1-1.1,0.3-1.7,0.5
		c-9.3,2.6-16.9,6.4-18.5,13.7l-20.2,134.2c-3.8,15-3.9,140.2-3.9,140.2h47l0.5-28.1c14.4,1.5,54.1,5.1,79.4,2.3
		c6.2-0.7,13-32.7,13-32.7c1.8-41.9-0.7-84.7,1.1-127C491.3,755.2,491.8,743.7,488.4,733z M397.8,899.8l1.4-79.2l11.4-47l7.4,45.1
		L397.8,899.8z"/>
	<path class="st6" d="M649,696.7l-67.6,104.9c-2.9,9.3-14,13.2-22.1,7.7L539.5,796c2.9,42.4,7.2,107.4,7.3,118.8
		c-1.7,0.3-15.3,5.4-15.1,1.9c0.4-4.6,0-26.7,0-26.7s-6.9-53.9-7.6-61.1c-1.3-13.4,1.5-90.2,1.6-95.7c0.1-5.2-2-10.1-4-14.9
		c-8.8-20.5-18.1-40.8-27.8-60.9c-1.2-2.4-2.4-4.9-4.7-6.5c-1.3-1-2.9-1.4-4.5-1.7c-0.1-0.9-0.2-1.8-0.3-2.6l24.3,6.7
		c11.8,3.8,26.8,39.4,32,47.8c4.3,7,10.5,16.1,9.8,28.2l6.6,10.5l48.6-62.3L649,696.7z"/>
	<g>
		<path class="st11" d="M515.1,576.8c-0.6,8.8-2.5,17.8-6.1,25.8c-4,9.8-9.7,18.3-16.7,24.6c-2.9,2.6-5.8,4.8-9.1,6.6
			c0.9,9.1,1.7,18.3,2.7,27.4c0.5,4.4,1.3,9.6,0,14c-3.6,12.2-21.4,0.8-27.4-2.8c-14.8-8.9-25.1-22.3-25.1-22.3
			c0-5.3,2-11.5,3.9-20.6c-3-2.3-5.9-4.9-8.6-7.7c-1-1.2,0.5-4,0.4-5.4c-0.1-2.4-1.5-4.4-2.5-6.5c-1.6-3.4-0.1-7.3,1.9-10.5
			c1.9-3.2,4.4-6.3,4.8-10c0.7-7.1-6.7-13.8-4.5-20.6c0.5-1.6,1.5-3,2.3-4.5c4.3-7.7,1.7-18.7-2.2-23.9l80,2.2
			C513.7,553,516,564.9,515.1,576.8z"/>
		<path class="st12" d="M489.8,893.4c1.8-41.9-0.7-84.7,1.1-127c0.5-11.2,0.9-22.7-2.5-33.4c-4-12.6-13-22.9-22-32.6
			c-14.3-15.2-29.3-29.8-45.1-43.5c4.2-2.5,8.6-4.3,13.2-5.7c2.9,3.5,12,13.8,24.1,21.1c6,3.6,23.8,15,27.4,2.9
			c1.3-4.4,0.5-9.5,0-14c-0.5-3.9-0.9-8-1.2-11.9c1.6,0.3,3.2,0.8,4.5,1.7c2.2,1.5,3.5,4.1,4.7,6.5c9.7,20.1,19,40.4,27.8,60.9
			c2,4.8,4.1,9.7,4,14.9c-0.1,5.5-2.9,82.3-1.6,95.7c0.7,7.2,7.6,61.1,7.6,61.1S508.8,893.4,489.8,893.4z"/>
		<path class="st2" d="M536.3,632l-10.6-0.6l0-0.1c-4.2-0.3-8.5-0.5-12.8-0.7c-6.7-0.4-14.4-0.4-20.6-3.4c7-6.3,12.7-14.8,16.7-24.6
			c4.9-12,7.3-27.2,5.6-40.2c-0.9-6.9-2.8-13.6-5.6-20l-1.6,0c0,0-78.3-2.2-78.4-2.2c1.9,0.1,3.8,8.9,4,10.3
			c1.2,7.6-2.1,11.5-4.2,18.2c-2.2,6.8,5.2,13.5,4.5,20.6c-0.7,6.9-10.2,13.2-6.7,20.5c4.2,8.8,2,18.4-5.2,25.1l-58.3-3
			c-4.2-8.3,2.5-18.3,7.2-26.3c1.6-2.7,4.2-5,5.2-8c3.6-10.2-10.4-22.9,5.2-35.2c21.7-16.9-25.9-33,33-73.8
			c32.2-22.3,76.2-10.2,82.5,2.1c0,0,14.4,3.5,23.8,13.3c9.9,10.2,13.5,25.1,12.8,39l-4-0.1c1.6,3.2,2.6,6.7,2.2,10.2
			c-0.9,7.6-8.3,13.8-7.4,21.4c0.7,6.6,7.5,11.5,7.7,18.1c0.1,5-3.8,9.9-2.3,14.8c0.7,2.3,2.4,4.1,3.8,6
			C536.8,618.8,538.1,625.8,536.3,632z"/>
		<path class="st5" d="M452.2,574.6c-0.1,0-0.1,0-0.2,0c-1.5-0.1-2.7-1.4-2.6-2.9l0.3-4.5c0.1-1.5,1.3-2.6,2.9-2.6
			c1.5,0.1,2.7,1.4,2.6,2.9l-0.3,4.5C454.9,573.5,453.7,574.6,452.2,574.6z"/>
		<path class="st5" d="M494.1,576.7c-0.1,0-0.1,0-0.2,0c-1.5-0.1-2.7-1.4-2.6-2.9l0.2-3.7c0.1-1.5,1.3-2.6,2.9-2.6
			c1.5,0.1,2.7,1.4,2.6,2.9l-0.2,3.7C496.7,575.5,495.5,576.7,494.1,576.7z"/>
		<path class="st5" d="M472.1,598.3c-2.9,0-6.2-0.6-8.5-3c-1-1.1-1-2.8,0.1-3.9c1.1-1,2.8-1,3.9,0.1c1.7,1.8,6,1.3,8.3,1
			c0-0.1,0.2-0.7,0.2-0.9L473,560c-0.1-1.5,1-2.8,2.5-3c1.5-0.2,2.8,1,3,2.5l3.1,31.4c0.3,1.6,0,3.2-0.9,4.5
			c-0.9,1.4-2.4,2.3-4.1,2.5C475.3,598.1,473.8,598.3,472.1,598.3z"/>
		<path class="st5" d="M484.3,608.5c-2,1.2-4.6,2.1-7.4,2.7c-2,0.4-4.2,0.5-6.5,0.5c-4.3,0-8.8-0.7-12.5-1.9c2.7,4.4,7.2,5.7,14,4.3
			c1.5-0.3,2.9,0.7,3.2,2.1c0.3,1.5-0.6,2.9-2.1,3.3c-2,0.4-4,0.6-5.8,0.6c-8.6,0-14.3-4.8-16.8-14.1c-0.1-0.5-0.5-2,0.5-3.3
			c0.5-0.7,1.6-1.2,2.5-1.2c0.8,0,1.5,0.4,2,1l0.2,0.1c0.5,0.3,0.8,0.5,1.2,0.7c4.3,2.4,13,3.4,19,2.3c2.2-0.4,4.2-1.1,5.7-2
			c1.3-0.8,3-0.4,3.8,0.9C486,606.1,485.6,607.7,484.3,608.5z"/>
		<path class="st13" d="M487.4,594.6c-0.4,6.6,4.7,12.4,11.4,12.7c4.2,0.2,7.9-1.7,10.3-4.7c0,0,0,0,0,0c0.9-2.2,1.7-4.4,2.4-6.7
			c0.3-6.6-4.7-12.2-11.4-12.6C493.5,582.9,487.8,588,487.4,594.6z"/>
		<path class="st13" d="M451.1,592.5c-0.4,6.7-6.1,11.8-12.8,11.4c-3.9-0.2-7.2-2.3-9.3-5.3c1.9-3.1,4.1-6.1,4.4-9.4
			c0.3-2.4-0.5-4.9-1.5-7.2c2.2-1.5,4.8-2.4,7.7-2.2C446.4,580.2,451.4,585.9,451.1,592.5z"/>
		<path class="st5" d="M499.8,560.6c-0.4,0-0.7-0.1-1.1-0.2c-2.7-1.1-5.7-1.7-8.6-1.8c-1.5,0-2.7-1.3-2.7-2.8c0-1.5,1.1-2.7,2.8-2.7
			c3.6,0,7.3,0.8,10.6,2.2c1.4,0.6,2.1,2.2,1.5,3.6C501.9,560,500.9,560.6,499.8,560.6z"/>
		<path class="st5" d="M445.7,556.8c-1.2,0-2.3-0.8-2.6-2c-0.4-1.5,0.4-3,1.9-3.4c3.5-1,7.2-1.4,10.8-1c1.5,0.2,2.6,1.5,2.4,3
			c-0.2,1.5-1.5,2.6-3,2.4c-2.9-0.3-5.9,0-8.7,0.8C446.3,556.8,446,556.8,445.7,556.8z"/>
		<path class="st5" d="M490.3,501.5c-0.3,0-0.6-0.1-0.9-0.2c-4-2.3-8.1-3.7-11.9-4.3c-1-0.1-1.7-1.1-1.5-2.1c0.2-1,1.1-1.7,2.1-1.5
			c4.3,0.6,8.7,2.2,13.2,4.7c0.9,0.5,1.2,1.6,0.7,2.5C491.6,501.1,491,501.5,490.3,501.5z"/>
		<path class="st5" d="M408,530.1c-0.2,0-0.4,0-0.6-0.1c-1-0.3-1.5-1.4-1.1-2.3c2.6-7.6,6.5-12.8,11.8-16c0.9-0.5,2-0.3,2.5,0.6
			c0.5,0.9,0.3,2-0.6,2.5c-4.5,2.8-7.9,7.4-10.2,14.1C409.5,529.6,408.8,530.1,408,530.1z"/>
		<path class="st5" d="M412,618.8c-1,0-1.8-0.8-1.8-1.8c0-1.7-0.3-3.5-0.5-5.3c-0.4-2.9-0.8-6-0.3-9.1c0.6-3.5,2.4-6.4,4-9.3
			c1-1.7,2-3.4,2.7-5.1c2.4-5.9,1.8-12.8-1.6-18.2c-0.5-0.9-0.3-2,0.6-2.5c0.9-0.5,2-0.3,2.5,0.6c4,6.4,4.7,14.6,1.8,21.5
			c-0.8,2-1.9,3.8-2.9,5.6c-1.6,2.7-3.1,5.3-3.6,8.1c-0.5,2.5-0.1,5.2,0.3,7.9c0.3,1.9,0.5,3.8,0.5,5.8
			C413.8,618,413,618.8,412,618.8C412,618.8,412,618.8,412,618.8z"/>
	</g>
	<g>
		<g>
			<path class="st10" d="M322.6,1253.3v3.3c-0.6-0.7-1-1-1-1C321.9,1254.8,322.3,1254.1,322.6,1253.3z"/>
			<path class="st10" d="M339.6,1215.1v57.4c-1.5-1.2-2.9-2.4-4.2-3.6v-44.5C336.8,1221.2,338.2,1218.1,339.6,1215.1z"/>
			<path class="st10" d="M356.6,1179v101.9c-0.8,1.2-1.3,1.8-1.3,1.8c-1-0.4-2-0.9-2.9-1.5v-93.5
				C353.8,1184.7,355.2,1181.8,356.6,1179z"/>
			<path class="st10" d="M373.5,1145.4V1257c-1.5,2.1-2.9,4.1-4.2,6v-109.5C370.7,1150.7,372.2,1148,373.5,1145.4z"/>
			<path class="st10" d="M390.5,1115.1V1233c-1.4,2-2.8,4-4.2,6v-116.7C387.7,1119.7,389.1,1117.3,390.5,1115.1z"/>
			<path class="st10" d="M407.4,926.2v57.1c-0.9-7-4.2-17.3-4.2-17.3v-40.3C404.6,925.9,406,926,407.4,926.2z"/>
			<path class="st10" d="M403.2,1099.5c1.7-2.3,3.1-6.3,4.2-7.6v117.4c-1.4,1.9-2.8,3.8-4.2,5.8V1099.5z"/>
			<path class="st10" d="M424.4,927.7v257.5c-1.4,2-2.8,4-4.2,6V927.4C421.6,927.5,423,927.6,424.4,927.7z"/>
			<path class="st10" d="M441.4,928.6v232.7c-1.4,1.9-2.8,3.9-4.2,6V928.4C438.5,928.5,439.9,928.6,441.4,928.6z"/>
			<polygon class="st10" points="440.8,1298.2 441.4,1286.9 441.4,1298.2 			"/>
			<path class="st10" d="M458.3,929.2V1300l-4.2-0.4V929.1C455.5,929.1,456.9,929.1,458.3,929.2z"/>
			<path class="st10" d="M475.3,929.2v372.5l-4.2-0.4V929.4C472.5,929.4,473.9,929.4,475.3,929.2z"/>
			<path class="st10" d="M492.3,897.9v404.8c0,0.3,0,0.6-0.1,0.8l-4.1-0.4c0-0.1,0-0.2,0-0.4V909.1c1-3.7,2-7.4,3-11.1
				C491.4,898,491.9,897.9,492.3,897.9z"/>
			<path class="st10" d="M509.2,893.9v307.2l-4.2,34V894.3C506.4,894.1,507.8,894,509.2,893.9z"/>
			<path class="st10" d="M526.2,892.2v177.2c-2.4,17.7-4.2,29-4.2,29l-0.1,0.7V892.6C523.4,892.5,524.8,892.3,526.2,892.2z"/>
		</g>
	</g>
	<path class="st2" d="M866.6,923l-35.1-40.8L796.4,923c-1.4,1.6-3.4,0.1-3.4-2.5V752.8h77v167.7C870,923.1,867.9,924.6,866.6,923z"
		/>
	<path class="st14" d="M1463,1262.8l-27.2-31.6l-27.2,31.6c-1.1,1.2-2.6,0.1-2.6-1.9l0.9-126.4h58.7v126.4
		C1465.6,1262.9,1464.1,1264.1,1463,1262.8z"/>
	<path class="st1" d="M755.3,1375.8l-21.1-24.6l-21.1,24.6c-0.8,1-2,0.1-2-1.5v-101h46.4v101
		C757.3,1375.9,756.1,1376.8,755.3,1375.8z"/>
	<path class="st5" d="M928.9,1271.5H695.4c-1,0-1.8,0.8-1.8,1.8s0.8,1.8,1.8,1.8h12.9v97.8c0,1.1,0.3,2.1,0.9,2.9
		c1.5,2,4.4,2.2,6,0.3l19-22.1l19.1,22.1c0.8,0.9,1.8,1.4,2.9,1.4c2.3,0,4-2,4-4.6v-97.8h168.8c1,0,1.8-0.8,1.8-1.8
		S929.9,1271.5,928.9,1271.5z M754.6,1369.5l-18.4-21.3c-1-1.2-3.1-1.2-4.1,0l-18.4,21.3v-94.3h40.9V1369.5z"/>
	<polygon class="st2" points="679.2,606.9 692.9,572.7 734.6,565.2 719.5,600.2 	"/>
	<path class="st5" d="M692.9,590.8c-0.9,0-1.6-0.6-1.8-1.5c-0.2-1,0.4-2,1.4-2.2l26-5.3c1-0.2,2,0.4,2.2,1.4c0.2,1-0.4,2-1.4,2.2
		l-26,5.3C693.2,590.8,693,590.8,692.9,590.8z"/>
	<path class="st2" d="M1093.2,433.3v102.1c-3.1,1.1-13.4,11-14.9,10.5c-1.9-0.7-8.7-6.4-10.9-6.7c-3.7-0.6-7.3-2.8-10.6-5.2
		c-1.7-1.2-3.3-2.5-4.9-3.6c-4.1-3.1-7.5-5.5-9.7-3.9c-1.9,1.3-0.7,5.8-0.2,7.6c0.9,2.9,4,8.8,5.1,11.6l-11.6-3.3
		c-12.3-4.1-29.7-9.9-36.4-4.8c-2.7,2.1-5.7,4.8-6.3,8.4c-0.4,2.6,0.5,5.3,2.6,8.3c2.9,4.3,6.7,8.4,10.6,11.8l-0.3,0.1l-0.1,0
		l-0.1,0l-32.4-8.3l-14.1-3.6l-25-6.4c1.1-0.3,3.1-1,5.3-1.9c3.1-1.2,6.7-2.7,8.2-3.1c0.1,0,0.2-0.2,0.4-0.5c0.2-0.5,0.5-1.5,1-2.6
		c14.1-1.9,29.2-3.4,42.3-9.3c5.8-2.6,10.7-6.7,14.4-11.9c2.7-3.8,5.5-7.7,7.3-11.9c1.4-3,2.1-5.8,2.2-8.3c0.1-5.1-2.8-9.2-6.9-11.9
		c-1.1-0.8-2.4-1.5-3.8-2.2c-3.8-1.9-9.8-0.5-16.3,2.2c-5.5,2.3-11.3,5.5-16.4,8.3c-2.3,1.3-4.5,2.6-6.5,3.6c-2.7,1.5-5,2.6-6.4,3
		c0.4-0.1,1.1-6.2,1.2-6.7c0.7-2.9,1.9-5.2,1.6-8.3c-0.2-4-2.2-6.5-6-3.6c-1.1,0.9-2.4,2.2-3.7,3.6c-2.4,2.6-5,5.7-7.9,8.3
		c-1.9,1.7-4.1,3.3-6.5,4.2c-1.9,0.7-4.5,4.2-6.3,7.7c-0.9,1.6-1.7,3.4-2.1,5.2l-13,0.6v-79l6.7,1.7l14.1,3.6l32.4,8.3l14,3.6
		l21.3,5.5l21.4-5.5l14-3.6l32.5-8.3l14.1-3.6L1093.2,433.3z"/>
	<path class="st11" d="M1077.2,548.2c-0.9-3.4-6.5-8.4-9.8-9c-10.5-1.8-20.5-16-25.2-12.7c-1.5,1.1-1.2,7.3,1.4,11
		c1.6,2.2,3.4,8.2,3.4,8.2c-7.4-0.6-38.5-15.4-48-8.1c-10.8,8.3-6.9,14.4,3.9,25.6c12.9,13.6,28.7,17.4,68.1,19L1077.2,548.2z"/>
	<path class="st11" d="M948.7,539.8c46.5-6.4,50.8-12,61-27.8c8.4-13.1,6.7-21.9-5.5-27.9c-10.7-5.3-38.4,15.2-45.5,17.2
		c0,0,0.7-6.2,1.8-8.7c1.9-4.1,1-10.3-0.7-11.1c-5.2-2.3-12.4,13.6-22.3,17.3c-3.2,1.2-8.3,10.4-8.5,14.1L948.7,539.8z"/>
	<path class="st11" d="M954.5,297.9l4.5,31.8c-6.2,0.9-10.2-13.6-10.2-13.6C943.6,303.8,948.6,298.3,954.5,297.9z"/>
	<path class="st11" d="M1078.8,313.3c0,0.1-2.7,16-14,16.3c-4.6,15.3-14.4,28.5-26.8,36.5V381c0,15-27.5,27.2-27.5,27.2
		S983.7,396,983.7,381v-15.8c-13.5-10.7-21.6-29.7-24-52c0,0,0,0,0-0.1c1.8-17.2,6.9-47.9,17.2-58.3c3-3,7.8-2.4,10.1,1.1
		c1.8,2.9,4.3,5.5,5.5,6.4c6.2,4.4,16,5.6,28.3-0.7c8.8,5.1,26,7.7,33.5-4.2c11.9,8.4,10.6,48.9,12.2,65l5.6-24l0.1-1.6
		c1.1-0.1,2.2,0,3.1,0.4C1081.2,299.2,1080.5,305.3,1078.8,313.3z"/>
	<path class="st5" d="M989.2,313.9c-1.5,0-2.7-1.2-2.7-2.7V305c0-1.5,1.2-2.7,2.7-2.7c1.5,0,2.7,1.2,2.7,2.7v6.1
		C992,312.7,990.8,313.9,989.2,313.9z"/>
	<path class="st5" d="M1040.3,313.9c-1.5,0-2.7-1.2-2.7-2.7V305c0-1.5,1.2-2.7,2.7-2.7c1.5,0,2.7,1.2,2.7,2.7v6.1
		C1043,312.7,1041.8,313.9,1040.3,313.9z"/>
	<path class="st13" d="M1029,330.5c0,6.9,5.6,12.5,12.5,12.5c6.9,0,12.5-5.6,12.5-12.5c0-6.9-5.6-12.5-12.5-12.5
		C1034.5,318,1029,323.6,1029,330.5z"/>
	<path class="st13" d="M970.4,329.6c0,6.9,5.6,12.5,12.5,12.5c6.9,0,12.5-5.6,12.5-12.5c0-6.9-5.6-12.5-12.5-12.5
		C976,317.2,970.4,322.7,970.4,329.6z"/>
	<path class="st0" d="M1075.1,261.6l-3,36.8l-5.6,24c-1.5-16.1-0.3-56.6-12.2-65c-7.5,11.9-24.7,9.3-33.5,4.2
		c-12.3,6.2-22.1,5-28.3,0.7c-1.2-0.9-3.7-3.5-5.5-6.4c-2.3-3.6-7.1-4.1-10.1-1.1c-11.8,11.9-16.8,50.4-17.8,64.8l-4-20.9l-2.2-38
		c0-16.7,16.4-41.1,34.1-41.1h2.2c6.4,0,15.1,1.8,19.5-2.8c2.8-2.9,7-4.8,11.7-4.8c6.5,0,12.1,3.7,14.4,8.8c0.4-0.1,0.9,0.2,1.1-0.1
		c7.2-8.8,19.7,2.6,17.9,6.5C1061.6,225.1,1075.1,247.4,1075.1,261.6z"/>
	<path class="st5" d="M1012.5,355.1c-4.9,0-9.7-1.8-12.9-5c-1.1-1.1-1.1-2.8,0-3.9c1.1-1.1,2.8-1.1,3.9,0c2.2,2.2,5.7,3.4,9.3,3.4
		c3.6-0.1,6.8-1.4,9.1-3.8c1-1.1,2.8-1.1,3.9-0.1c1.1,1,1.1,2.8,0.1,3.9c-3.3,3.5-7.9,5.4-13,5.5
		C1012.8,355.1,1012.7,355.1,1012.5,355.1z"/>
	<path class="st5" d="M1311.7,1135.7h-68.6c-1,0-1.8-0.8-1.8-1.8c0-1,0.8-1.8,1.8-1.8h68.6c1,0,1.8,0.8,1.8,1.8
		C1313.5,1134.9,1312.7,1135.7,1311.7,1135.7z"/>
	<path class="st6" d="M1351.1,959.9h-29.8l0.2-0.5c11.6-34.7,11.7-72.2,0.2-107l-0.4-1.3h29.8l0.4,1.3c11.4,34.7,11.4,72.3-0.2,107
		L1351.1,959.9z"/>
	<path class="st6" d="M1405.2,959.9h-29.8l0.2-0.5c11.6-34.7,11.7-72.2,0.2-107l-0.4-1.3h29.8l0.4,1.3c11.4,34.7,11.4,72.3-0.2,107
		L1405.2,959.9z"/>
	<path class="st6" d="M1459.7,959.9h-29.8l0.2-0.5c11.6-34.7,11.7-72.2,0.2-107l-0.4-1.3h29.8l0.4,1.3c11.4,34.7,11.4,72.3-0.2,107
		L1459.7,959.9z"/>
	<g>
		<path class="st1" d="M1738.1,1070.3c-0.2,1.8-0.5,3.6-1.5,4.8c-1,1.2-2.6,1.8-4.1,2.1c-10.7,2.9-21.7,4.2-32.8,3.8
			c-3.5-0.1-7.1-0.4-10.3-2.2c-6.8-3.7-9.8-12.5-15.1-18.5c-2.2-2.5-4.9-4.5-7.7-6.1c0,0,2.2,21.3,2.2,21.3c0.6,5.7-8.1,6.9-9.2,1.4
			c0,0-5.3-27.1-5.3-27.4c-1.3-0.4-2.7-0.9-3.6-1.9c-0.8-0.9-1.2-2.1-1.6-3.3c-3.1-9.4-5-19.8-2.9-29.3c4.6-0.3,9.6-1,14.5-1.8
			c3.1,4.5,6.9,8.5,10.6,10.9c26.9,17.2,32.2,13.2,30.5,4.5c3.3,7.1,7.3,13.2,12.9,15.5c6.8,2.8,15.3,1.1,20.4,6.9
			C1739.5,1056,1738.9,1063.7,1738.1,1070.3z"/>
		<path class="st11" d="M1671.4,1024.1c-3.8-2.4-7.6-6.4-10.6-10.9c14.7-2.4,29-6.1,32.4-6.7l0.2,2c0.1,0.4,0.2,0.8,0.4,1.2
			c0.8,1.4,1.6,3,2.5,4.7c0,0,0,0.1,0.1,0.1v0c2.3,4.5,4.7,9.6,5.4,13.8v0c0,0,0,0.1,0,0.1c0,0,0,0,0,0.1
			C1703.5,1037.3,1698.3,1041.3,1671.4,1024.1z"/>
		<path class="st11" d="M1597.7,1012.9l-0.9,2.3c-0.8,18.9-3.5,51.5-26.3,0.4c-2.5-5.6-5.6-15.7-6.3-23.9c9.9,6.5,21.4,13,30,19.4
			C1595.3,1011.8,1596.5,1012.7,1597.7,1012.9z"/>
	</g>
	<path class="st2" d="M1693.3,1006.4c-4.8,0.9-34.1,8.5-52.9,8.8c0,0-8.7-46.5-14.2-61.4c-9.6,21.1-21.6,43.2-24.4,56.4
		c-0.3,1.2-1.4,2-2.6,2.4c-1.7,0.6-3.5-0.5-5-1.7c-11.2-8.4-27.5-17-38.7-25.4c2.7-19.3,11.4-43.3,15.3-62.4
		c6.4-31.1,16.7-54.3,18.5-68.3c-3.1,1.5-23.8,2.6-31.9,2.9c-25.5,1-107.8,2.1-126.5-4.7c-17.4-6.4-33.6-18.9-38.9-36.6
		c-6-20.2,3.4-41.5,12.5-60.6c3.9-8,9.5-28.5,12.9-35.6c0.1,0,0.2,0,0.3,0c1,0.3,2,0.7,2.9,1c-3,7.1-6.3,14.4-10,22
		c0,0,0.1,0.1,0.3,0.2c3.9,2.2,44.3,23.8,87.9,27.4c30.6,2.5,39-10.5,41.1-19.8c0.2-0.8,0.3-1.6,0.4-2.3v0c0-1.1,0-2.4,0.2-4
		c0-0.2,0-0.4,0-0.5c0,0,0,0,0-0.1c0.1-1.1,0.2-2.7,0.3-4.4c22,4.3,81.1,23.2,112.9,34c6.1,2,18.1,9.4,21.6,14.8
		c8.1,12.3,8.5,132,10,151.5C1687.3,962.6,1690.2,973.5,1693.3,1006.4z"/>
	<path class="st0" d="M1585.7,701l-22.4,7.9c-6.1,2.2-12.8-1.1-15-7.2l-1.9-5.5c-1.7,4.7-4.4,26.2-4.6,31
		c-0.7,11.6,1.2,25.6-7.5,34.8c-8.8,9.3-23.5,9.8-35.4,8.9c-43.7-3.6-84-25.2-87.9-27.4c-0.2-0.1-0.3-0.2-0.3-0.2
		c3.7-7.6,7-15,10-22c-1.8-0.6-3.6-1.2-5.5-1.8c-6.2-2.1-12.2-4.1-12.8-4.4c-8.5-3.5-12.8-13.4-11.3-23.3l16.6-97.6l3.4-22.2
		c0.1-3.1,1-5.8,2.3-8.1c2.8-4.8,7.7-8.1,12.6-10.3c2.3-1.1,30.2-11.9,33.8-13.4c1-0.4,2.2-0.8,3.4-1.1c-0.1,0.2-0.1,0.3-0.1,0.3
		c-0.9,8.9,6.8,16.2,6.8,16.2c19.4,14.3,39.8,7.4,41.6-8.8l0.2-0.3l-0.5-6.2c5.2,0.7,8.3,1.6,8.3,1.6c13.4,1.8,20.1,4.1,24.4,19.7
		c0.7,2.7,2,5.4,3.4,8c0,0-7.5,49.3-7.5,49.3l-14,5.6l10.7,23.6l0.5,5l-7.9,36.6L1585.7,701z"/>
	<path class="st10" d="M1556.8,436.8c-2.4,3.6-8.3,5.8-12.4,7.5c-10.5,4.2-24.7-2.5-35.8-4.3c-25.4-4-40.2,18.8-40.2,18.8
		c-2.8-10.6-13.2-12.9-18.7-9c-2.9,2-4.5,5.8-2.9,11c0.7,2.3,1.3,4.2,2,5.8c3.4,8.7,6.4,9.4,9,26.3c-3.6-2.9-7-6.1-10-9.5
		c-0.6,6.1-1.8,12.2-4.6,17.7c-6,11.7-18.8,19.1-32,21.1c-13.2,2-26.8-1-39.3-5.7c12.1-5.3,24.2-13.8,27-26.4
		c2.4-11-1.7-23.1-3.1-34c-1.3-9.7-2.1-19.5-1.5-29.3c1.2-18.9,8.8-37.3,28.5-43.7c11.3-3.7,24.3-2.1,34.3,4.1
		c0.2,0.1,0.4,0.3,0.6,0.4c0.2,0.1,0.3,0.2,0.5,0.4c0.1-0.1,0.3-0.3,0.5-0.4c14.9-9.4,32.1-9.6,48.7-5.1
		c23.8,6.5,31.2,20.6,33.2,21.6C1551.2,409.1,1564.6,424.9,1556.8,436.8z"/>
	<path class="st11" d="M1555.8,467.6c-0.8,5.6-1.9,11.1-3.3,16.3c-1.5,5.6-3.4,10.8-5.6,15.7c-7.9,17.6-20.1,30.1-36.5,31l1.1,16
		c-1.7,16.2-22.1,23.1-41.6,8.8c0,0-7.7-7.3-6.8-16.2c0,0,6-13.2,7.5-28.1c-5.4-5.6-10-12.1-13.6-18.7c0.2,0.2,0.4,0.4,0.7,0.5
		c-3-20.1-6.6-17.4-10.9-32.1c-4.5-15.2,17.4-18.1,21.6-2c0,0,14.8-22.8,40.2-18.8c11.1,1.8,25.4,8.4,35.8,4.3
		c4.1-1.6,10-3.9,12.4-7.5C1558,445.6,1557.5,455.8,1555.8,467.6z"/>
	<path class="st5" d="M1519.1,511.5c-4.5,0-9.2-1.4-12.1-3.8c-0.3-0.3-0.6-0.5-0.9-0.8c-1.1-1-1.3-2.9-0.3-4c1-1.1,2.6-1.3,3.7-0.3
		c0,0,0.2,0.2,0.2,0.2c0.4,0.4,0.6,0.6,0.9,0.8c2.6,2.2,8.1,3.2,11.9,2.1c1.4-0.4,2.7-1,3.7-1.8c1.2-1,2.9-0.8,3.9,0.4
		c1,1.2,0.8,2.9-0.4,3.9c-1.6,1.3-3.6,2.3-5.7,2.9C1522.4,511.3,1520.7,511.5,1519.1,511.5z"/>
	<path class="st5" d="M1479.6,423.2c-0.5,0-1.1-0.2-1.4-0.7c-0.6-0.8-0.5-1.9,0.3-2.6c4.6-3.7,10.3-5.5,17.4-5.6
		c1.1,0,1.8,0.8,1.9,1.8c0,1-0.8,1.8-1.8,1.9c-6.2,0.1-11.2,1.7-15.2,4.8C1480.4,423.1,1480,423.2,1479.6,423.2z"/>
	<path class="st5" d="M1406.1,512.2c-0.7,0-1.5,0-2.3-0.1c-1-0.1-1.7-1-1.7-2c0.1-1,1-1.7,2-1.7c12.6,1.1,21.1-8.8,25.1-14.9
		c0.6-0.8,1.7-1.1,2.5-0.5c0.8,0.6,1.1,1.7,0.5,2.5C1428.1,502,1419.3,512.2,1406.1,512.2z"/>
	<path class="st13" d="M1507.3,489.8c-0.6,6.8-6.5,11.8-13.3,11.2c-6.8-0.6-11.8-6.5-11.2-13.3c0.6-6.8,6.5-11.8,13.3-11.2
		C1502.8,477.1,1507.8,483,1507.3,489.8z"/>
	<path class="st5" d="M1460.4,470.5c-0.5,0-1.1-0.2-1.5-0.7c-2.4-3.2-4.7-7.7-4.5-10.7c0.1-1,1-1.8,2-1.7c1,0.1,1.7,1,1.7,2
		c-0.1,1.7,1.5,5.3,3.7,8.2c0.6,0.8,0.5,1.9-0.3,2.6C1461.2,470.4,1460.8,470.5,1460.4,470.5z"/>
	<path class="st5" d="M1544.5,475.4c-0.1,0-0.2,0-0.2,0c-1.5-0.1-2.6-1.5-2.5-3l0.3-3.8c0.1-1.5,1.5-2.6,3-2.5
		c1.5,0.1,2.6,1.5,2.5,3l-0.3,3.8C1547.1,474.3,1545.9,475.4,1544.5,475.4z"/>
	<path class="st5" d="M1502.1,474c-0.1,0-0.2,0-0.2,0c-1.5-0.1-2.6-1.5-2.5-3l0.3-3.5c0.1-1.5,1.5-2.6,3-2.5c1.5,0.1,2.6,1.5,2.5,3
		l-0.3,3.5C1504.8,472.9,1503.6,474,1502.1,474z"/>
	<path class="st13" d="M1550.2,482.3c-0.2,0.9-0.5,1.9-0.8,2.8c-1.6,5.5-3.6,10.7-5.9,15.5c-0.7,1.5-1.5,3-2.2,4.5
		c-5.1-1.7-8.4-7.2-7.7-13.2c0.9-6.8,6.6-11.6,12.8-10.8C1547.8,481.2,1549.1,481.6,1550.2,482.3z"/>
	<path class="st15" d="M1701.3,541.3l-29.7,142.1l-52,23.9l-0.7,0.3h0l-33.2-6.6l-56.8-11.3l5.6-36.3l59.2-11.7
		c5.5-1.1,9.2-7,8.1-13.2v-0.1c-2.4-14.4-25.9-20.6-42-17.5l-20.2,8.1l7.5-49.3l2.9-19.1l90,17.9h0L1701.3,541.3z"/>
	<path class="st11" d="M1593.7,641.6l-55.5,11l-12.5-28.1l34.1-13.7c16.1-3.2,39.5,3,41.9,17.5l0,0.1
		C1602.9,634.6,1599.3,640.5,1593.7,641.6z"/>
	<path class="st11" d="M1687.6,609.9c0.6-7.2-14.6-5.2-18.8,0.7c-2.5,3.5-4.9,7.1-6.1,11.3c-2.5,8.8-2.5,35.6,3.6,36.1
		c4.5,0.4,9,0.3,13.4-0.2c0.6-0.1,2.4-1.6,2.5-2.2C1684.3,647.5,1686.4,624.1,1687.6,609.9z"/>
	<path class="st5" d="M1647.9,592.6c-0.7,0-1.4-0.4-1.7-1.1c-0.4-0.9,0-2,1-2.4l34.7-14.5c0.9-0.4,2,0.1,2.4,1c0.4,0.9,0,2-1,2.4
		l-34.7,14.5C1648.4,592.6,1648.2,592.6,1647.9,592.6z"/>
	<path class="st5" d="M1645.6,601.3c-0.7,0-1.4-0.4-1.7-1.1c-0.4-0.9,0-2,1-2.4l34.7-14.5c0.9-0.4,2,0,2.4,1c0.4,0.9,0,2-1,2.4
		l-34.7,14.5C1646.1,601.2,1645.8,601.3,1645.6,601.3z"/>
	<polygon class="st3" points="1023.4,513.1 1023.4,479.6 1079.1,464.4 1079.1,498.2 	"/>
	<path class="st5" d="M1052.4,484.5c-0.8,0-1.5-0.5-1.8-1.3c-0.3-1,0.3-2,1.3-2.2l20.5-5.6c1-0.3,2,0.3,2.2,1.3c0.3,1-0.3,2-1.3,2.2
		l-20.5,5.6C1052.7,484.5,1052.5,484.5,1052.4,484.5z"/>
	<path class="st5" d="M1028.7,491c-0.8,0-1.5-0.5-1.8-1.3c-0.3-1,0.3-2,1.3-2.2l16-4.4c1-0.3,2,0.3,2.2,1.3c0.3,1-0.3,2-1.3,2.2
		l-16,4.4C1029,491,1028.9,491,1028.7,491z"/>
	<path class="st5" d="M1029.2,502.5c-0.8,0-1.5-0.5-1.8-1.3c-0.3-1,0.3-2,1.3-2.2l44.2-12.2c1-0.3,2,0.3,2.2,1.3
		c0.3,1-0.3,2-1.3,2.2l-44.2,12.2C1029.5,502.5,1029.3,502.5,1029.2,502.5z"/>
	<path class="st11" d="M618,682.3L643,694c4.3-6.8,18.1-14.3,21.1-21.7c1.5-3.7,4.1-11.2,4.3-14.1c0.6-10-0.3-19.6-3.9-28.6
		c-1.7-4.4-5.7-5.2-10.3-4.1c-0.6,0.1-12.3,1.1-13.4,8.2c-4.3,26.8-15.1,29.2-20.4,33.8C617.2,670.3,616.3,677,618,682.3z"/>
	<path class="st5" d="M769.6,308.7c-2.8-39.4-34.6-71.2-74.1-74c-46.8-3.3-85.9,33.8-85.9,79.9c0,20,7.4,39.1,20.8,53.8
		c10.3,11.3,16.6,24.6,18.7,39.3c0.7,4.8,4.8,8.4,9.6,8.4h62.3c4.9,0,8.9-3.5,9.6-8.4c2.1-14.8,8.5-28.3,18.4-39.2
		C763.8,352.2,771.1,331,769.6,308.7z M744.9,364.9c-10.7,11.7-17.5,26.2-19.8,42.1c-0.3,2.1-2,3.7-4.2,3.7h-29.3v-45.4l24.9-29.7
		c0.7-0.8,0.5-1.9-0.2-2.6c-0.8-0.7-1.9-0.5-2.6,0.2l-24,28.6l-24-28.6c-0.7-0.8-1.8-0.9-2.6-0.2c-0.8,0.7-0.9,1.8-0.2,2.6l25,29.7
		v45.4h-29.3c-2.1,0-3.9-1.5-4.2-3.7c-2.2-15.8-9-30-20-42.2c-12.5-13.7-19.3-31.5-19.3-50.1c0-41.1,33.5-74.6,74.6-74.6
		c1.8,0,3.6,0.1,5.4,0.2c36.7,2.6,66.4,32.2,69,68.9C765.6,329.9,758.7,349.6,744.9,364.9z"/>
	<path class="st5" d="M1799.8,1404.6h-172.9c29.7-9.2,51.1-34.5,51.1-64.1v-42.8c0-28.6-19.9-53.1-48.1-63h2c6.3,0,11.2-5,11.2-11.5
		c0-6.3-5-11.4-11.2-11.4c-0.1,0-0.1,0-0.2,0c-0.1-0.1-0.2-0.3-0.3-0.4c-16.6-17.6-16.8-112.7-0.7-135.2c6-0.1,10.9-5.2,10.9-11.5
		c0-4-2.1-7.6-5.2-9.6c0.1-0.4,0.1-45.6,0.1-45.6c0.7,3.7,1.2,6.1,1.2,6.2c0.8,2.5,3.1,2.2,5.2,2.3c-0.9,9.2,0.8,18.3,3.6,27.1
		c0.4,1.2,1,2.9,2.2,4.2c1,1.1,2,1.7,3.1,2.1c0,0,5.1,25.9,5.1,25.9c1.8,9,15.6,6.9,14.7-2.2l-1.5-15.3c3,2.5,5.2,5.9,7.2,9.2
		c2.9,4.6,6,9.4,10.9,12.1c3.8,2.1,7.9,2.4,11.4,2.5c11.3,0.5,22.8-0.8,33.6-3.8c1.4-0.4,3.8-1,5.4-3c1.6-1.9,1.9-4.4,2.1-6.2
		c1-7.9,1.3-15.9-3.5-21.5c-3.8-4.4-9.2-5.3-14-6c-2.7-0.4-5.2-0.8-7.4-1.7c-4.7-1.9-8.3-7.5-11.4-13.9c-2.1-4.5-7.4-17.6-8.4-19.4
		c-0.4-0.8-0.2-2.6-0.1-2.5c0-9.4-2.4-19.4-3.8-28.8c-1.7-12.4-3.1-22.2-3.8-35.8c0-0.4-0.8-18.7-1.2-34.1
		c-1.3-49.2-2.9-94.6-6.8-112.9c-2.3-10.6-12.1-17-21.4-21.3c-6.8-3.2-14.3-5.2-21.5-7.5c-11.5-3.8-48.6-15.4-55.5-17.5
		c-1.4-0.4-38.6-10.5-38.6-10.5c0.6-9.1,2.4-23,3.8-31.7c2.6,4.1,7.2,6.6,12.1,6.6c1.6,0,3.3-0.3,4.8-0.8l21.7-7.6
		c0,0,32.8,6.5,33,6.5c0.4,0,53.8-24.4,53.8-24.4c0.8-0.4,1.4-1.1,1.5-1.9l4.9-23.5c0.3,0,0.5,0,0.7-0.1c1.7-0.2,4.4-2.5,4.8-4.2
		c2.2-7.9,4.2-29.5,5.5-46.1c0-0.7,0-1.4-0.1-2l13.9-66.2c0.2-1-0.2-2-1-2.7s-1.9-0.8-2.8-0.4l-60.4,26.6l-89.1-17.8
		c-0.7-0.1-1.5,0-2.1,0.4c-0.6,0.4-1,1.1-1.1,1.8l-1.2,8.1c-0.8-1.8-1.5-3.5-2.1-5.3c-4.3-13.5-24.2-14.2-28.1-14.2
		c-0.9,0-2.3,0.3-2.3,0.3l-0.4-5.9c14.9-2,27.6-13.3,36.1-32.3c2-4.5,3.7-9.2,5.2-14.3c5.7-2.6,9.9-8.1,10.4-14.6
		c0.5-5.5-1.6-10.6-5.3-14.1c0.7-7.6,0.7-14.4,0-20.3c2.3-4.2,2.8-9,1.4-14.1c-2.8-9.7-11.9-18.3-19.3-21.6
		c-0.3-0.3-0.8-0.8-1.4-1.5c-3.8-4.5-12.9-14.9-32.5-20.4c-19-5.2-36.1-3.6-50,4.8c-10.5-6.4-24.6-8.1-36.3-4.3
		c-18.1,5.9-28.8,22.3-30.3,46.2c-0.5,8.6-0.1,17.8,1.5,29.8c0.4,3.1,1.1,6.4,1.7,9.6c1.5,7.9,3.1,16.2,1.5,23.5
		c-2.7,12.2-15.3,20.1-25.5,24.5c-2.2,1-2.1,4.2,0.1,5c11.3,4.3,22,6.5,31.7,6.5c3.1,0,6.1-0.2,9-0.7c15.1-2.2,28.1-10.9,34.1-22.6
		c2.1-4.1,3.3-8.4,4.1-12.9c1.7,1.6,3.4,3.2,5.3,4.8c3.4,6.3,7.7,12.5,12.8,18c-1.3,11.4-5.3,21.7-6.6,24.9c0,0-26,10.1-27,10.5
		c-8.1,2.7-25.1,8.4-25.7,24c0,0-20.9,124.3-20.9,124.5c-1.7,9.8,8.3,18.7,16.1,22.8c0.8,0.4,9.7,4.3,10,3.5
		c-1.4,3.7-3.1,8.6-4.8,13.8c-2.3,7.1-4.8,14.5-6.7,18.5c-9.8,20.3-18.8,41.9-12.6,62.6c2.3,7.5,6.5,14.4,11.9,20.1
		c4,4.3,8.7,8,13.7,11.1h-61.2c0.1-0.5,0.1-1.1,0.1-1.7c0-6-4.6-10.9-10.4-11.4c0-0.1-0.1-0.2-0.2-0.3
		c-17.3-17.8-17.5-114.3-0.7-137c6.2-0.1,11.4-5.2,11.4-11.6c0-6.3-5.2-11.5-11.5-11.5h-204.7c0.9-11.2-0.4-23-3.7-33.8l20.7-5.9
		c16.9-4.8,27.7-22.7,25.4-39.8c-2.4-18.2-17.9-32.4-36.4-32.4c-0.8,0-1.6,0-2.4,0.1c8.8-4.9,15.8-10.4,18.8-16.4
		c2.3-4.6,2.3-9.2,0.2-13.5l-42.5-120.4c-4.1-14.9-16.1-26.3-31.2-29.7l-45.6-10.3v-3c12.5-8.1,22-21.4,26.4-37.6
		c10.9-2.1,14-16.6,14.3-18.2c1.4-6.4,3.6-16.2-5.3-19.3c-0.3-0.1-0.7-0.2-1.1-0.3l2.7-32.7c0-14.9-10.5-34.4-22.1-36.8
		c-0.1-1.6-0.6-3-1.5-4.5c-2.4-3.9-7.5-6.5-12.4-6.2c-2.5,0.1-4.8,1-6.4,2.5c-3.3-4.6-8.9-7.4-15.1-7.4c-5.2,0-10.2,2-13.7,5.6
		c-2.6,2.7-7.9,2.4-13,2.1c-2.3-0.2-4.5-0.2-6.8-0.2c-18.6,0-36.8,25.1-36.8,44l2,34.6c-2.8,0.7-5.1,2.4-6.5,4.7
		c-1.7,2.9-3,8.1,0.7,16.7c0.9,3,4.8,15.4,12.2,15.5c3.8,15.2,11.8,27.6,22.5,35.6v2.9c-3.3,1.2-8.2,2.5-13.8,4
		c-11.7,3.1-26.3,6.9-36.4,12.5c-8.6,4.7-16.9,16-18.6,18.5c-0.1,0.1-47.6,97.1-54,109.1c-1.7,3.3-3.7,13.6-2.6,23.9
		c0.7,6.2,2.7,11.4,5.7,16.7c-0.3-0.4-7.1,3.3-7.7,3.7c-2.5,1.5-4.9,3.3-7,5.4c-13.4,12.9-14.7,34.8-3.1,49.3
		c4.4,5.6,10.5,9.8,17.2,12l8.4,2.7c-8,12.3-10.9,29.7-7.6,46.3h-86.8c-43.7,0-79.2,31.4-79.2,69.9V789c0,25.1,15,47.1,37.5,59.5
		h-99.6c-6.3,0-11.2,3.5-11.2,8.2c0,4.5,4.9,8,11.2,8h0.6c6.9,6.7,11.4,24.8,10.8,44.4c-0.5,17.8-6.8,34.4-12.4,37.1
		c-5.8,0.3-10.2,3.8-10.2,8.1c0,1.1,0.3,2,0.8,3h-36c-4.5,0-8.1,3.7-8.1,8.1v90.8c0,4.5,3.7,8.1,8.1,8.1h31
		c-21.8,12.2-36.4,34.1-36.4,59.1v43.8c0,28.4,18.8,52.9,45.7,63.6c-4.1,1.6-7,5.7-7,10.5c0,6.2,5,11.2,11.2,11.2h2.2
		c15.9,20.1,16.4,112.3,1.2,133.6h-3.4c-6.2,0-11.2,4.2-11.2,10.6c0,3.1,1.3,5.9,3.4,8h-76.9c1.5-1.9,2.2-4.1,2.7-5.9
		c2.7-9.5,4.6-19.4-0.7-26.9c-6.3-8.9-17.9-9-27.1-12.9c-2.2-1-4.3-2.4-6-4.2c-2.7-3-4.5-6.9-6.2-11.8c-2.7-7.8-5.8-15.7-8-23.7
		c-0.5-1.7-0.9-3.5-1.3-5.2c-0.3-1.1-2.4-7.6-1.8-8.3c0.4-0.4,0.7-1,0.8-1.6l25.7-205.3l0.2-1.4c3.1-21.2,11.9-82.6,16.3-136.2
		c0.1-1.4,0.2-2.7,0.3-4c1.1-13.4,2.1-38.4,2-38.7c0.5-0.1,3.3-1,3.6-1.1c1.4-0.2,2.4-1.4,2.3-2.7c-0.1-10.8-3.8-67.8-6.9-113.4
		l15.1,10.2c4.6,3.1,10.7,3.8,15.9,1.8c4.9-1.9,7.8-6.2,10.2-10.6c0,0,67.3-104.5,67.4-104.6c0.9-1.4,0.3-3.3-1.2-4l-2.8-1.2
		c1.9-2,4.5-4.2,7.1-6.3c5.1-4.2,10.3-8.6,12.2-13.2c0.1-0.3,0.3-0.7,0.4-1.1l41-10.7c0.8-0.2,1.5-0.8,1.8-1.5
		c0,0,51.9-120.3,52-120.6c0.8-2-0.9-4.2-3.1-3.8l-75.1,16.1l-95.8-7.5c-1.2-0.1-2.4,0.7-2.8,1.9c0,0-38.9,115.8-39,116.1
		c-0.5,1.6,0.5,3.4,2.3,3.6l66.4,7.6c-0.3,1.5-0.4,3.1-0.3,4.7l-7.5-3.4c-1.1-0.5-2.5-0.1-3.3,0.8l-46.2,59.2c0,0-4-6.2-4.2-6.5
		c-0.9-1.5-0.3-6.3-0.7-8.3c-0.5-2.8-1.4-5.4-2.5-8c-2.2-5.1-5.4-9.6-8.1-14.4c-2.8-4.9-14.2-25.7-17-31.3
		c-3.1-6.3-6.3-12.8-15.5-15.7l-22.4-6.1l-1-9.3c2.4-1.5,4.8-3.1,7-5.1c0,0,19.6,3.2,19.8,3.2c3.1,0,3.8-4.9,0.4-5.4l-15.2-2.5
		c1.6,0,6.6-8.6,7.4-9.8c3.7-5.8,6.5-12.3,8.6-18.9c2-6.3,3.3-12.9,3.7-19.7c0.8-10.6-0.9-21.5-4.7-31.7l14,0.4
		c2.5,5.8,0.7,10.5-2.2,15.8c-4.7,8.6-5,14.9,0.3,23.3c2.1,3.4,3.5,6.9,3,11c-0.5,4.2-3.1,8.1-1.8,12.5c1.1,3.6,4.1,6.1,5.8,9.4
		c0.4,0.9,3.2,11.5,1.8,11.4c0,0-8.2-0.5-8.2-0.5c-3.4-0.2-3.9,5.2-0.3,5.5l10.6,0.6h0.1c1.2,0,2.3-0.8,2.7-2
		c1.2-4.6,1.1-9.4-0.3-13.9c-1.5-4.5-5.6-7.8-6.8-12.1c-1.4-4.6,1.9-8.5,2.4-12.9c0.4-4.4-1.9-8.4-4.2-12
		c-4.2-6.6-3.8-10.9-0.1-17.8c3.2-5.8,5.4-11.7,3.3-18.2c1.3,0,2.5-1.2,2.6-2.6c1-16.3-4-31.3-13.5-41.1c-8.4-8.7-20.3-12.7-24-13.8
		c-5.5-8.4-23.7-14.9-42.5-14.9c-11.3,0-27.9,2.3-43.3,12.9c-38.2,26.4-33.3,43.8-29.7,56.5c2.1,7.6,3.4,12.1-3.4,17.4
		c-11.3,8.8-8.9,18.3-7,25.9c1.1,4,1.9,7.5,0.9,10.5c-1.2,3.4-4.3,6.3-6.1,9.4c-4.8,8-10.7,18.1-6.1,27c0.4,0.9,1.3,1.5,2.3,1.5
		l58.3,3h0.1c0.7,0,1.4-0.3,1.9-0.7c3-2.8,5.2-6.3,6.6-10c1.4,1.3,2.8,2.5,4.3,3.7c-0.4,1.9-3.1,16.4-3.7,19.4c0,0.1-28,7.9-39,11.3
		c-10.1,2.9-18.5,7.1-20.4,15.9l-20.2,133.9c-3.8,15.1-4,135.7-4,140.8c0,0.7,0.3,1.4,0.8,1.9c0.5,0.5,1.2,0.8,1.9,0.8h1.8
		c-6.1,12.6-9.2,41.7-9.9,48.8c-1.4,5.9,0,12.2,4.2,18.5c2.9,4.3,6.7,8.1,11.1,11c3.9,2.6,9.2,5.4,14.1,5.4
		c10.3,0,19.2-26.5,22.4-39c1.3,1.5,2.6,3.1,4.2,4.4c0.5,0.4,4.6,2.1,4.7,2.3c0.8,6.4,2.2,22,2.2,22c1.9,20.1,3,39.2,3.4,58.4
		c0.1,3.5,5.6,3.4,5.5-0.1c-0.4-19.3-1.5-38.5-3.4-58.8c0,0-1.4-15.2-2-20.4c1.2,0.1,2.3-0.1,3.1-0.5c2.2-1.4,4.4-3.1,4.7-5.6
		c0.2-2.4-1.4-4.2-2.7-5.4c-3.8-3.5-6.9-14.1-7.8-18.8c-0.3-1.4-3.9-15.6-7.7-22.2c1.1-0.3,1.9-1.3,1.9-2.5l0.4-25.1
		c11.7,1.2,33.7,3,53.9,3c8.9,0,16.7-0.4,23.1-1.1c6.5-0.7,11.6-17.7,14.9-32.7c14.4-0.1,30.4-2.1,37-2.9c0.1,8.1,0.2,20.2,0,23.3
		c-0.2,2.8,2.3,4.2,4.7,4.2c1.3,0,2.9-0.3,4.5-0.6c-1.6,58-14.6,149.8-18.6,176.7c-0.1,1-0.2,1.5-0.2,1.5L494,1300.9l-50.3-5.3
		l7-143.5c1.5-2.2,26.5-37,27-38.3c3-6.1,7.1-22.5,13-51.7c1.4-6.8,9.6-50.9,12.2-65.1c1.6-9,7.4-40.3,8.6-46.5
		c0.7-3.5-4.7-4.5-5.4-1c-1.2,6.1-6.9,37.5-8.6,46.5c-2.6,14.2-10.9,58.2-12.2,65c-5.6,28-9.8,44.9-12.6,50.5
		c-0.2,0.5-104.7,148.1-105.8,149.7c0,0-11.4,16.2-12.7,18c-0.2-0.1-8.7-5.4-13.1-9c-4.5-3.6-17-16.1-19.7-17.8c0,0-0.1-0.1-0.2-0.1
		c0.1-0.1,46.2-90,50.4-98.2c1.4-2.7,19.8-36.1,21.1-38.4c4.4-7.4,8.6-13.9,12.6-19.4c2-2.9-2.4-6.1-4.5-3.2
		c-4.1,5.6-8.4,12.3-12.8,19.8c-1.4,2.3-19.9,36-21.3,38.7c-4.2,8.2-50.9,99.1-51.3,100.1c-0.9-0.1-1.8-0.1-2.6-0.1
		c-6.4,0-12.9,1.8-18.5,5c-10,5.8-18.3,16-25.5,31c-0.7,1.4-1.3,2.7-1.5,4.2c-0.3,0.1-21.5,32.9-21.5,32.9
		c-2.5,3.9-1.4,9.1,2.7,11.8c1.6,1.1,3.4,1.6,5.3,1.6c2.7,0,5.2-1.1,6.8-3.2l16.5-20.6c1.4,4.1,2,7.9,2,11.6c0,3.5-0.7,7.1-1.4,10.9
		c-1.2,6.7-2.5,13.7-0.1,20.4c1.8,5.1,5.5,9,8.8,12.2c10.8,10.5,23,19.4,36.4,26.6c1.9,1,4.1,2,6.6,2c0.3,0,0.6,0,0.9,0
		c3-0.3,5.4-2.2,7.2-3.5c7.9-6.1,15.3-13.1,15.5-22.2c0.1-7.2-4.1-12.4-8.3-17.5c-2.3-2.8-4.5-5.4-5.9-8.4c-5.7-11.7,1-26,5.6-36.9
		c2.7-6.2,5.6-11.9,9.1-17.8c5.6-9.5,11.7-18.5,18-27.4c1.1-1.5,14.7-20.8,17-24l56.3-79.7l-6.7,137.4c0,1.3,0.8,2.4,1.9,2.7
		c-3.3,3.1-6,6.9-7.9,11.3c-4.6,10.5-5.4,23.5-2.2,39.8c0.2,1.1,0.5,2.7,1.3,4.2c-0.1,0.3,2.3,39,2.3,39.1
		c0.5,8.6,13.5,10.9,17.2,3.3c0.8-1.7,0.9-3.7,1-5.6c0.3-8,0.6-16,1-24.1c4,2.4,7.1,6,9.6,9.9c2.5,3.9,4.5,8.1,6.6,12.2
		c3,5.6,6.7,11.2,12.5,13.7H200.2c-1.5,0-2.7,1.2-2.7,2.7c0,1.5,1.2,2.7,2.7,2.7h1599.6c1.5,0,2.7-1.2,2.7-2.7
		C1802.5,1405.9,1801.3,1404.6,1799.8,1404.6z M665.7,658.1c-0.1,2.2-2.3,8.9-4.1,13.2c-1.4,3.4-6.1,7.3-10.6,11.1
		c-3.4,2.8-6.6,5.5-8.8,8.2l-21.8-10.2c-1-4.1-0.2-8.9,1.9-10.7c0.8-0.7,1.8-1.4,2.9-2c5.9-3.9,14.8-9.9,18.5-33.4
		c0.4-2.9,4.3-5,10.7-5.8c0.4,0,0.6-0.1,0.7-0.1c3.8-0.9,6-0.3,7.1,2.4C665.1,638.6,666.2,647.3,665.7,658.1z M686.4,556.8
		l68.4-14.7l-49.4,114.5l-36.1,9.4c0.9-2.9,1.7-5.8,1.8-7.6c0.6-11.4-0.7-21.2-4.1-29.7c-0.5-1.3-1.6-3.3-2.8-4.1L686.4,556.8z
		 M552.3,660.8L589.6,550l91.7,7.1c0,0-20.9,65.5-20.9,65.6c-2.2-0.4-6.4,0.2-6.8,0.3c-12.2,1.6-14.9,7.2-15.3,10.4
		c-3.4,21.1-10.7,26.1-16.2,29.7c-1.2,0.8-2.4,1.6-3.3,2.4c-0.8,0.7-1.6,1.6-2.2,2.7L552.3,660.8z M552.2,736.7c0,0,3.2,4.9,3.4,5.1
		c-0.7,11.1-1.7,22.3-2.8,33.4c-0.3,3.5,5.1,4.1,5.4,0.5c1.2-12.2,2.3-24.7,3-36.9l45.4-58.2l34.5,15.4l2.8,1.3l0.9,0.4
		c0,0-63.5,99.3-66.1,102.9c-2.9,3.9-3.8,6.4-7.4,7.6c-3.6,1.2-7.4,0.7-10.6-1.4l-18.7-12.6c-0.9-13-2.4-34.7-2.4-34.7
		C546.7,751.3,550.5,743.6,552.2,736.7z M420.6,632.2l-37-1.9c-0.2-5.3,2.7-10.1,5.8-15.2c2.5-4.2,5.2-8.6,6.2-13.5
		c0.9-4.3,0.4-8.6,0-12.8c-0.4-4.2-0.8-8.2,0.1-12.1c1.2-5.1,4.3-9.4,6.5-14.1c1.8-4,2.7-9.6,3.7-15.6c0.5-3.1,1-6.3,1.7-9.5
		c0.5-2.2-3.1-3.1-3.6-0.7c-0.7,3.2-1.2,6.5-1.7,9.6c-0.9,5.7-1.8,11.1-3.4,14.7c-2.2,4.9-5.4,9.4-6.7,14.8c-1,4.4-0.6,8.9-0.2,13.2
		c0.4,4.1,0.8,8,0,11.7c-0.9,4.3-3.4,8.4-5.7,12.4c-3.1,5.3-6.4,10.7-6.3,16.9l-14.6-0.8c-1.9-6.1,2.6-13.6,6.5-20.4
		c2-3.4,5.3-6.5,6.6-10.4c1.6-4.5,0.4-9.2-0.7-13.7c-1.9-7.3-3.5-13.6,5-20.2c9.7-7.5,7.5-15.5,5.3-23.2
		c-3.3-11.8-7.3-26.3,27.6-50.5c14.3-9.9,29.7-12,40.2-12c18.9,0,35,6.7,38.3,13c0.3,0.7,1,1.2,1.8,1.4c0.1,0,13.8,3.5,22.5,12.6
		c7.9,8.2,12.2,20.6,12,34.3l-8.9-0.3c-1.8-12.4-10.2-26.4-21.8-36.1c-1.6-1.4-4.3,1.2-2.3,2.8c10.6,8.8,18.6,21.9,20.4,33.2
		c0,0-88.1-2.4-88.5-2.4c-2.3-0.1-3.6,2.6-2.3,4.4c2.8,3.8,4.1,8.8,3.9,13.6c-0.3,4.9-3,8-4.5,12.4c-1.5,4.7,0.4,9.1,2.1,12.9
		c1.3,3,2.5,5.7,2.3,8.3c-0.3,3.3-2.7,6.1-4.4,8.8c-3.9,6.2-3.3,10.6-2,13.2c1.1,2.2,2.3,3.6,2.3,6.2
		C426.5,622.7,424.3,628.1,420.6,632.2z M431.8,620.7c0.2-1.1,0.3-2.3,0.3-3.4c0-1.5-0.1-3.6-1.1-5.6c-1.9-4.2-3-6.5,0-10.9
		c2.3-3.4,4.8-7,5.2-11.1c0.4-4-1.2-7.7-2.7-11c-1.5-3.4-2.8-6.4-1.9-9.1c1.6-4.6,4.3-7.8,4.6-13c0.1-1.4-0.3-13.3-2.3-13.4l73.4,2
		c4.1,10,5.9,20.9,5.1,31.5c-0.4,6.3-1.6,12.5-3.5,18.4c-6.6,20.9-23.4,42.9-47.8,41.1C450.4,635.3,440.1,629.2,431.8,620.7z
		 M482.3,676.8c-4.6,5-18.5-4.5-22.3-6.8c-8.7-5.2-15.8-12-20-16.6c-0.1-0.1-3.1-3.5-3.7-4.2c0-0.1,2.6-13.2,2.8-14.4
		c3.5,2,9.9,4.2,11,4.6c4.4,1.5,9,2.3,13.7,2.3c5.9,0,11.7-1.3,17.1-3.7C481.7,645.4,485.8,673,482.3,676.8z M352.7,939.6
		c0,0,41.5,0.1,41.7,0l-0.2,9.6h-41.6C352.7,946.2,352.7,943,352.7,939.6z M400,977.8c0,0.1,3.1,16,9.4,21.7
		c0.5,0.4,0.7,0.7,0.9,0.9c0.1,0.2-1.8,1.4-2,1.4c-2.7,0.1-5.8-1.4-6.9-2.2c-1.9-1.6-5.8-6.4-7.2-8c-1.5-1.9-4.5-1-4.9,1.4
		c-1.2,10.8-12.6,40.5-18.2,39.9c-7.4-1.1-15.9-6.8-20.7-14c-2.2-3.3-3.7-7.1-3.7-11c0-3.4,0.7-7,1.1-10.4
		c0.8-7.2,1.9-14.3,3.3-21.3c0.9-4.6,1.8-9.1,3.2-13.5c0.8-2.6,1.7-5.8,3.6-7.9c0,0,33.2,0,33.3,0c1.3-0.3,4.2,8.1,4.5,8.9
		C397.6,968.2,398.9,973,400,977.8z M488.4,759.5c-0.3,0-0.5,0-0.8,0.1c-15.3,6.7-25.5,5.2-37.3,3.3c-1.3-0.2-3.3-0.8-3.8,0.9
		c-0.7,2.2,1.9,2.4,3.3,2.7c5.4,0.8,10.6,1.6,16,1.6c6.6,0,13.7-1.2,22.4-4.9c0,1-0.1,2-0.1,3c-0.9,21.2-0.7,42.9-0.5,63.8
		c0.2,20.8,0.4,42.2-0.5,63c-3.2,15-8.1,29.1-10.5,30.2c-6.2,0.7-13.7,1.1-22.5,1.1c-20.2,0-42.4-1.9-53.8-3l0.4-21.2l20.1-80.9
		c0.1-0.4,0.1-0.7,0-1.1l-7.3-44.5c0,0,17-70.2,17.1-70.5c0.8-3.4-4.5-4.7-5.3-1.3l-17.3,71.5L396.6,820c-0.1,0.2-0.1,0.4-0.1,0.6
		l-1.4,78.9l-0.7,36.7c-0.3-0.1-41.7-0.2-41.7-0.2c0.2-45.3,1.2-113.2,3.8-123.7l20.2-134c1.1-5.3,6.5-8.4,13.6-10.7
		c1.7-0.6,5.3-1.6,5.3-1.6l23.9-6.7c0,0,5.5,4.8,8,7.1c12.8,11.5,25.1,23.6,36.8,36.1c8.7,9.3,17.5,19.4,21.4,31.6
		C488.4,742.1,488.6,750.8,488.4,759.5z M401,875.8l1-54.8l8.1-33.6l5.2,31.2L401,875.8z M492.6,890.7c0-0.2,0-0.4,0-0.6
		c0.7-19.9,0.5-40.2,0.4-59.9c-0.2-20.9-0.4-42.5,0.5-63.6c0.4-10.8,1-23.1-2.6-34.4c-4.2-13.3-13.4-23.9-22.6-33.7
		c-13.4-14.3-27.6-28.1-42.4-41.1c0.4-0.2,5.7-1.6,7.8-2.3c1.9,1.9,3.4,3.2,5.3,5.2c5.4,5.4,11.5,10.4,18.1,14.4
		c7.7,4.6,24.3,16,30.6,3.7c2.1-4.1,1.7-9,1.3-13.4c-0.2-2.4-0.5-8.8-1.1-11.4c1.5,1.7,9.3,17.8,9.3,17.8c1.3,2.9-1.2,8-2.8,10.4
		c-4,5.9-10.1,7.3-16.8,7.3c-2.3,0-4.9,0.1-7-1.2c-2-1.2-3.9,1.9-1.9,3.1c2.6,1.6,5.8,1.7,8.7,1.7c5.3,0,10.6-0.5,15-3.7
		c3.8-2.7,6.7-6.8,7.9-11.4c6.5,13.8,12.7,27.8,18.7,41.7c1.8,4.2,3.9,9,3.8,13.7c0,1-2.1,90.6-1.6,96c0.6,6.3,7.2,58.5,7.2,58.5
		C522.5,888.5,506.8,890.4,492.6,890.7z M534.5,915.2c0.1-5,0.1-9.9,0-14.9c0-4.9,0-9.7-0.7-14.6c-0.5-3.9-1-7.7-1.5-11.6
		c-1.3-10.3-5.1-40.6-5.6-45.5c-0.5-5,1.6-94.4,1.6-95.4c0.1-5.9-2.3-11.5-4.2-16c-8.8-20.5-29.2-63.8-30.2-65.2l13.9,3.8
		c6.8,2.2,9.2,6.9,12.1,12.9c1.5,3,19.1,34.8,19.1,34.8c2.4,3.9,5.2,8.3,7,13.4c1.4,3.9,2.1,8.1,1.7,12.9
		c-0.6,7.7-4.2,16.7-13.1,27.3c-0.6,0.8-0.6,0.9-0.4,3.8c0.5,6.9,9.2,136.5,9.6,151.8c-0.2,0-0.4,0.1-0.6,0.2
		C541.1,913.6,537,914.9,534.5,915.2z M256.3,1331.6c-2.3,3-8.1-0.5-5.9-3.9l18.6-28.8c2.3,2.1,5.7,9.6,5.7,9.6
		S256.4,1331.5,256.3,1331.6z M334,1321.6c-5.5-0.7-11.1-1.4-16.7-1.2c-2,0.1-3.6,1.6-3.7,3.5c-0.2,4.2,0.3,12.9,0.5,15.9
		c0.1,1.9,1.9,3.3,3.8,3.1c2.6-0.4,8.7-1,14-0.3c0.4,2.1,1.1,4.2,2.1,6.2c1.7,3.5,4.2,6.5,6.6,9.4c3.7,4.5,7.1,8.7,7,13.9
		c-0.1,6.8-6.5,12.6-13.3,17.9c-3.1,2.4-5.1,3-8.7,1c-12.9-6.9-24.7-15.5-35.1-25.7c-2.9-2.8-6.1-6.2-7.5-10.2
		c-1.1-3-1.2-6.1-0.9-9.5c1.6,2.4,3.6,4.5,5.6,6.5c6.5,6.4,13.3,12.9,20.1,19.2c2.4,2.2,4.7,4.2,7.1,6c3.1,2.3,6.6,4.2,10.2,5.6
		c2.2,0.7,3.5-2.6,1.3-3.4c-3.4-1.3-6.5-3-9.4-5.1c-2.3-1.7-4.5-3.6-6.8-5.8c-6.8-6.2-13.5-12.7-20-19.1c-3.3-3.3-6.5-6.7-7.2-10.7
		c0.1-0.4,0.1-0.8,0.2-1.3c0.7-3.8,1.4-7.8,1.5-11.8c0.1-11.7-5.7-22-10.1-28.7c-1-1.5-1.9-2.9-1.9-4.1c0-0.9,0.5-2,1.1-3.3
		c6.7-14,14.4-23.3,23.4-28.6c4.3-2.5,9.2-4,14.1-4.2c-2.5,5.5-2.7,13-1.9,20c-1,0.5-2.9,1.3-3.6,1.6c-1.8,0.8-3.5,1.9-5.1,3.1
		c-6.2,4.6-11.5,10.2-15.7,16.7c-1.2,1.9,1.8,3.9,3,2c4-6.1,9-11.4,14.9-15.8c2.2-1.6,4.5-3,7-3.9c0.7,4.3,1.8,8.2,2.9,11.1
		c3.7,10,12.3,23.8,25,19.4C336.4,1314.8,335.1,1318.2,334,1321.6z M331.3,1338.9c-5-0.6-10.4-0.1-13.6,0.3
		c-0.2-3.2-0.6-11.2-0.3-15.1c4.4-0.2,15.4,1.1,15.5,1.1C331.7,1329.8,331,1334.4,331.3,1338.9z M342.8,1299.2
		c-2,4.8-5.8,7.5-9.8,7.5c-5.7-0.1-11.4-6.4-15.1-16.5c-3.2-8.9-5.3-24.8-1-32l1.2-1.3c1.2,0.7,9.5,9,15.3,14
		c3.5,3.1,7.1,5.9,11,8.5c2.3,1.5,4.7,3.6,7.3,4.7L342.8,1299.2z M504.7,1346.1c1.5,4,3.1,7.6,5.5,10.7c-3.9,2.3-7.5,5.2-9.8,7.3
		c-2.5-3-6.3-7.7-8.3-10.5c3.4-2.5,8.8-5.4,12.4-7.4C504.5,1346.2,504.6,1346.1,504.7,1346.1z M492.8,1306.3
		c0.9,4.6,7.3,21.5,4.3,24.5c-3.7,3.8-16,3.4-31.4-4.8c-7.3-3.8-13.1-15.2-14.4-24L492.8,1306.3z M446,1394.6
		c-0.1,3.8-6.9,3.9-7.2,0.2l-2.1-34c1.2,0.6,10.4,3.5,10.4,4.6C447.2,1365.4,446,1394.5,446,1394.6z M544.1,1397.2
		c-0.5,1.6-1,3.5-2.1,4.5c-1,0.8-2.6,1.1-4.3,1.3c-6.6,0.8-13.3,1.3-19.9,1.3c-8,0-16-0.6-23.9-1.8c-4-0.6-8.6-1.5-12.2-3.9
		c-4.7-3.2-7.4-8.6-10.2-14.4c-1.7-3.5-3.5-7.1-5.8-10.4c-3.5-4.9-8.1-8.6-12.8-11.4c-4-2.4-8.2-4.3-12.5-6c-1.6-0.7-3.2-1.2-4-2.3
		c-0.5-0.8-0.8-1.9-1.1-3.3c-2.9-15.2-2.3-27.2,1.9-36.6c2-4.6,5.2-8.7,8.9-11.6c1,6.9,4.3,15,9.1,21c-1,1.5-1.9,3.1-2.7,4.8
		c-0.5,1.2-1,2.4-1.5,4.1c-2.2,7-3.1,14.2-2.8,21.4c0,1.2,0.1,2.5,1.5,2.8c3.4,0.7,2.1-7.5,2.2-9.2c0.3-4.7,1.2-9.4,2.6-13.9
		c0.8-2.5,1.8-4.9,3.3-7.1c1.7,1.8,3.6,3.2,5.6,4.3c9.6,5.1,18.9,7.8,26.1,7.8c5,0,9.1-1.3,11.7-3.9c0.1,0.4,2,6,1.9,6.1
		c-0.4,0.2-0.7,0.4-1.1,0.6c-3.9,2.2-9.9,5.4-13.6,8.3c-2,1.6-2.4,4.2-1.1,6.2c2.3,3.6,7.9,10.4,9.9,12.7c1.6,1.8,4.5,2,6.2,0.3
		c1.9-1.7,6.3-5.7,10.9-8.1c1.5,1.2,3.3,2.2,5.3,3.1c3,1.2,6.1,2.1,9.2,3c6.2,1.7,12.2,3.3,15.5,8
		C548.1,1380.6,546.5,1388.9,544.1,1397.2z M1631.9,1230h-163.5v-13.4c0,0,161.1,0,161.6,0C1638.1,1215.9,1640.7,1230,1631.9,1230z
		 M1624.4,1211.1h-156v-75.4h93.1c1,0,1.8-0.8,1.8-1.8c0-1-0.8-1.8-1.8-1.8h-231.3c-1,0-1.8,0.8-1.8,1.8c0,1,0.8,1.8,1.8,1.8h73.1
		v75.4h-326.9c-23.5,0-42.7-18.5-42.7-41.3V1117c0-22.8,19.1-41.3,42.7-41.3h479.8c0.1,0.3,0.3,0.5,0.5,0.8c2.6,3.9,6.4,6.2,9.7,8.1
		c10.7,6.1,22.3,10.6,34.4,13.2c2.2,0.5,4.5,0.8,6.7-0.2c2.4-1,3.9-3.3,5.1-4.9c3.7-5.3,7-10.8,7.7-16.5h4.1
		C1609.9,1103.5,1610,1185.9,1624.4,1211.1z M1462.9,1135.7v122.8l-25-29c-0.5-0.6-1.3-1-2.1-1c-0.8,0-1.5,0.3-2,1l-25,29v-122.8
		H1462.9z M1547.7,1041.8c1.6,2.7,2.7,5.3,3.4,8.1c0.7,2.8,1,5.8,1.2,8.9h-11.5L1547.7,1041.8z M1534.4,1060.1
		c-1.1,2.7-5.3,1.2-4.5-1.6l8.3-27.8c0.1,0.1,4.1,4.1,5.7,5.8C1543.9,1036.5,1534.6,1059.7,1534.4,1060.1z M1542.3,1027
		c-1-1-2-1.8-2.2-2.8c-0.1-0.6,0.8-5.2,0.6-5.3c7.1,4.9,11.9,11.1,15,19.3c0.8,2.1,4.2,1,3.4-1.3c-3.5-9.4-9.1-16.3-17.6-21.8
		c2.4-10.1,6-17.7,10.9-23.2c0.9-1.1,1.9-2,3-2.9c1.9,1.4,4,2.9,6.2,4.2c0.9,8.8,4.2,18.6,6.4,23.5c11.4,25.5,17.1,29,21.2,29
		c1.8,0,3.3-0.7,4.5-2c0.8,4.4,2.4,8.4,5.3,11.9c2.1,2.6,4.7,4.5,7.2,6.3c3.9,2.9,7.3,5.4,8.3,9.6c1.2,4.9-1.5,10.3-4.9,15.6
		c-6.9-1.3-23.2-7.3-27.7-9.9c-2-1.2-3.8,2-1.8,3.2c4.2,2.4,19,8.1,27.3,10c-1.6,2.2-2.9,2.7-5.5,2c-11.5-2.6-22.5-6.8-32.8-12.6
		c-2.8-1.6-6-3.5-7.9-6.4c-4.7-7.1-2.9-16.8-4.8-24.7C1554,1038.7,1547.2,1031.6,1542.3,1027z M1567.8,997.2L1567.8,997.2
		c0.1,0.1,3.8,2.4,5.6,3.4c6.7,4.2,20.7,13.6,20.8,13.6l0-0.1c0,0-1.8,19.4-2.8,22.6c-1,3.2-1.9,3.4-2.2,3.4
		c-0.5,0-5.1-0.7-16.2-25.7C1571.1,1010.1,1569,1003.5,1567.8,997.2z M1599.9,1020.3c0.2-1.7,0.9-5.2,1.4-5.5c1.6-1,2.9-2,3.3-3.9
		c2-9.2,8.7-23.1,15.7-37.8c1-2.2,4.2-9.8,5.5-11.6c1.8,6.5,5.2,21.6,5.3,22.5c0,0,0,0,0,0v69.8c0,2-4.2,5-10.9,5h-9
		c-0.5-0.4-1.1-0.9-1.7-1.3c-2.4-1.8-4.6-3.4-6.3-5.4C1596.9,1044.5,1598.4,1032.2,1599.9,1020.3z M1631,1070.7
		c-0.2,0.1-11.1-0.5-11.1-0.5c-0.5-2.3-1.6-4.2-2.9-5.8h3.1c5.6,0,10.5-1.8,13.4-4.5c1.5,1.1,2.4,2.9,2.4,5
		C1636.1,1067.9,1633.9,1070.4,1631,1070.7z M1655.6,1047c-1.2-0.3-2.3-0.6-2.9-1.2c-0.4-0.5-0.8-1.5-1-2.3
		c-3.4-10.2-4.4-18.7-3.2-25.9c3.2-0.3,6.9-0.8,11-1.4c1.4,2,3,3.9,4.7,5.5c-1.1,2.2-3.1,6.1-3.5,7.7c-0.3,1.1-0.5,2.2-0.7,3.4
		c-0.8,5.2-0.8,10.5,0,15.6C1658.4,1047.8,1657,1047.4,1655.6,1047z M1664.4,1077.9c-0.9,0.1-1.9-0.4-2.2-1.5l-4.5-23
		c2.3,0.8,4.5,1.6,6.3,2.6c0,0,2,19.7,2,19.8C1666.3,1077.1,1665.4,1077.8,1664.4,1077.9z M1713.8,1046.6c3,0.5,5.8,1.6,8.6,2.1
		c4.4,0.7,8.1,1.2,10.7,4.1c2.2,2.6,2.9,6.2,2.8,10.4c-3.5,4.5-10.4,5.2-15.6,6.1c-9.2,1.6-18.9,1.9-28.2,0.2
		c-2.3-0.4-3,3.1-0.7,3.6c4.5,0.8,9.1,1.2,13.7,1.2c9.9,0,21.7-1.1,30.5-5.9c-0.4,1.7,0,4.1-1.5,5.3c-0.5,0.4-1.1,0.6-1.7,0.7
		c-10.5,2.9-21.6,4.2-32.5,3.8c-2.9-0.1-6.2-0.4-9-1.8c-3.7-2-6.2-6-8.9-10.2c-1.6-2.6-3.4-5.3-5.5-7.7c-3.7-4.1-8.1-6.8-12.4-8.7
		c-1-5.5-1.2-11.1-0.3-16.6c0.1-1,0.3-2,0.5-3c0.5-1.6,2-4.8,2.7-6.1c1,0.8,2,1.6,3,2.3c13,8.3,22,12.4,27.7,12.4c2.1,0,4-0.7,5.5-2
		C1703.8,1039.8,1712.8,1046.4,1713.8,1046.6z M1699.3,1029.4C1699.3,1029.4,1699.3,1029.4,1699.3,1029.4c0.5,2.7-0.1,3.4-0.3,3.5
		c-0.1,0.1-3.7,3.2-26.1-11.2c-2.5-1.6-4.9-3.9-7.2-6.7l0,0c1-0.2,25.8-5.3,26-5.3C1692.5,1011.9,1698.9,1026.9,1699.3,1029.4z
		 M1559,746.9c20.4,5.1,40.3,12.1,60.4,18.3c4.8,1.5,9.4,3,13.8,4.3c8.6,2.7,17.2,5.1,25.3,9.2c5.4,2.7,11.3,6.2,14.8,11.3
		c6.2,8.8,8,91.1,8.8,126.2c0.2,11,0.4,19.7,0.7,24v0.1c0.9,11.2,2,19.5,3.3,29.1c1.3,9.2,2.7,19.6,4.2,34.9c0,0-44.8,8.1-46,8.2
		c0,0,0-0.1,0-0.1c-1.3-5.3-2.7-10.8-4.2-16.4c2.8,0.6,6.2,0.9,9.8,0.9c13.5,0,30.3-3.5,31.2-3.7c1-0.2,1.6-1.2,1.4-2.2
		c-0.2-1-1.2-1.6-2.2-1.4c-0.3,0.1-30.3,6.4-41.4,2.3c-0.6-2.3-7.5-26.8-8.8-32.5c-0.5-2-0.8-3.8-1.1-5.2c0-0.1,0.1-0.2,0.1-0.3
		c17-44.9,30.7-115.1,30.8-115.8c4.5-23.1-13.4-38.3-30.3-44.4l-95.8-27.4c1-0.8,2-1.7,2.9-2.7c7.1-7.7,7.1-17.1,6.8-20.6
		C1543.4,743.1,1556.7,746.3,1559,746.9z M1562.4,706.3c-1,0.3-2,0.5-3,0.5c-3.8,0-7.2-2.4-8.5-6l-1.5-4.2l25.9,5.2L1562.4,706.3z
		 M1679.6,654.4c-0.2,0.2-0.5,0.5-0.7,0.7c-2.2,0.3-4.5,0.4-6.8,0.4c-1.9,0-3.8-0.1-5.4-0.2c-3-2-3.9-23.7-1.4-32.7
		c1-3.6,3.2-6.8,5.7-10.5c1.6-2.3,6.2-4.2,10.2-4.2c1.9,0,3.1,0.5,3.4,0.9c0.1,0.1,0.2,0.3,0.2,0.8
		C1683.8,622.9,1681.7,646.2,1679.6,654.4z M1552.5,553.7l85.4,17c0,0-6,41-6.1,41.3c-0.3,2.3,3.3,2.9,3.6,0.5l6.2-41.8l55.9-24.7
		l-12,57.2c-1.2-0.4-2.7-0.7-4.4-0.7c-5,0-11.7,2.2-14.7,6.5c-2.8,4-5.3,7.7-6.5,12.1c-2.2,8-2.8,30.2,1.9,36.9c1.4,2,3,2.5,4.1,2.6
		c2,0.2,7.1,0.3,7.5,0.3l-4.3,20.6l-47.1,21.7l11.6-78.5c0.1-1-0.5-1.9-1.5-2c-1-0.2-1.9,0.5-2.1,1.5l-11.9,80.5l-86.1-17.2
		l4.3-28.4c1.9-1.4,5.2-3.8,5.2-3.8l52.7-10.9c6.9-1.4,11.6-8.7,10.3-16.5c-2.3-13.5-19.8-20.6-35.9-20.6c-3.3,0-6.4,0.3-9.2,0.9
		l-16.2,6.5L1552.5,553.7z M1529.4,626l31.3-12.6c14.4-2.7,36.4,2.7,38.5,15.4c0.8,4.8-1.9,9.3-6,10.1l-53.9,10.7L1529.4,626z
		 M1553.1,467.2c-0.8,5.4-3.4,16.6-3.5,17c-1.1,0.2-2.2,0.2-3.3,0.1c-7.7-0.7-13.4-7.5-12.8-15.2c0.6-7.2,6.7-12.8,14-12.8
		c0.8,0,6.9,0.7,6.8,1.8C1553.9,461,1553.5,464,1553.1,467.2z M1554.5,454.2c-1.7-0.8-3.6-1.3-5.6-1.5c-9.8-0.8-18.3,6.5-19.1,16.1
		c-0.1,0.8-0.1,1.6,0,2.4h-1.8l-0.8-6.2c-0.2-1.5-1.6-2.6-3.1-2.4c-1.5,0.2-2.6,1.6-2.3,3.1l0.7,5.4c0,0-2.5-0.1-2.5-0.1
		c0.4-4.7-1.1-9.3-4.1-12.9c-3.1-3.6-7.3-5.8-12-6.2c-8.1-0.7-15.5,4.3-18.1,11.6l-13.5-5.1c3.8-4.7,14.5-16,30.4-16
		c5.3,0,10.5,1.5,15.6,2.8c6.1,1.6,12.4,3.3,18.4,3.3c3.3,0,6.2-0.5,8.8-1.6c0.9-0.4,9.1-3,9.1-4.3
		C1554.8,446.1,1554.7,450,1554.5,454.2z M1516.3,470.7c-0.7,7.6-7.4,13.4-15.2,12.8c-7.6-0.6-13.4-7.6-12.8-15.2
		c0.7-7.5,7.6-13.4,15.1-12.8C1511.1,456.2,1516.9,463,1516.3,470.7z M1559.2,462.8c1.6,2.5,2.4,5.6,2.2,8.8c-0.3,4-2.4,7.6-5.4,9.9
		c1.1-4.3,1.9-8.9,2.6-13.4C1558.8,466.2,1559,464.5,1559.2,462.8z M1440.5,499.9c-5.2,10.2-16.7,17.7-30,19.7
		c-2.6,0.4-5.4,0.6-8.2,0.6c-7.3,0-15.2-1.4-23.6-4c9.8-5.3,20-13.4,22.6-25.4c2.6-11.7-1.6-23.4-3.1-35c-1.5-11.6-2-20.5-1.5-28.7
		c1-15.2,6.4-34.8,26.6-41.3c9.4-3.1,20.6-2.1,29.5,2.4c-2.1,1.6-4,3.3-5.8,5.1c-0.1-0.1-5.2-2.1-7.6-2.5
		c-9.9-1.5-19.7,3.3-26.9,13.4c-1.4,1.9,1.5,4,3,2.1c7.6-10.9,18.6-14.7,28.8-10.3c-10,11.2-16.1,26.2-17.1,43
		c-0.9,15.6,5.4,31.6,17.5,45.3C1444.1,489.9,1442.9,495.2,1440.5,499.9z M1432.7,439.3c1.2-21.3,11.1-39.3,27.1-49.4
		c7.9-5,17-7.5,27.1-7.5c6.1,0,12.7,1,19.5,2.8c18.1,4.9,26.3,14.5,29.8,18.6c0,0.4-4.3,8.8-23.6,9.5c-1.4,0-3.2,0.6-2.6,2.5
		c0.4,1.4,1.8,1.3,3,1.2c8.8-0.9,20.5-2,26.4-10.3c6.2,2.9,14.1,10.3,16.4,18.2c0.9,3.3,0.8,6.9-0.9,9.9c-1.7,2.9-4.8,4.4-7.9,5.7
		c-3.3,1.3-6.8,2.5-10.3,2.5c-5.3,0-11.3-1.6-17-3.1c-5.6-1.5-11.2-3-17.1-3c-16.9,0-28.4,10.6-33.5,16.6c-3.2-5.6-8.7-8.1-13.5-8.1
		c-4.1,0-7.7,1.7-10,4.6c-2.3,3.1-2.9,7.2-1.5,11.7c1.8,6.2,3.5,9.5,5,12.4c1.6,3,3,5.8,4.4,11.6
		C1439.3,471.9,1431.8,455.4,1432.7,439.3z M1460.5,493c0-0.4-2.1-13.9-6.5-21.5c-1.6-2.7-3-5.7-4.6-11.4c-1.4-4.8,0.8-9.3,6.2-9.3
		c3.6,0,8.4,2.3,10.1,8.7c0.4,1.6,2.4,2.5,3.9,1.8l15.2,5.7c-0.5,5,0.7,9.9,4,13.9c3.3,3.9,8.4,6.3,13.5,6.3
		c7.8,0,14.6-5.2,16.9-12.5l3.7,0.1l2,14.9v0.1c-2.6,0.1-5.8-0.4-6.5-1.1c-1.1-1.1-2.8-1.1-3.9,0c-1.1,1.1-1.1,2.8,0,3.9
		c3.1,3.1,8.4,2.9,12.4,2.6c3.5-0.2,3.7-4.2,3.4-6.6l-1.8-13.7l1.9,0c1.9,7,8,12.4,15.6,13c0.8,0.1,1.7,0.1,2.5,0
		c-1.2,3.7-2.5,7.2-4,10.5c-6.3,14.1-18.5,31-38.8,29.3C1488.1,526.3,1470.2,510.4,1460.5,493z M1472.5,517
		c9.6,8.9,21,15.3,32.6,16.3c0.9,0.1,1.8,0.1,2.7,0.1l0.9,13c-0.9,8.4-7.9,14.1-17.5,14.1c-6.5,0-13.3-2.5-19.5-7.1
		c-0.1-0.1-6.5-6.2-6-13.5C1466.7,537.8,1470.6,528.4,1472.5,517z M1403.1,712.2c-4.9-3.3-11.3-8.6-10.2-15.3l20.9-124.9
		c0.3-6.8,4.5-11.2,10-14.4c7.2-3.2,14.6-6.2,21.6-9.2c2.7,7.7,14.3,17.7,27.1,23.8c6.2,3,14.5,5.8,23.4,5.8c4.8,0,9.6-0.8,14.5-2.9
		c6.1-2.5,9.9-6.9,12.7-14.6c0.8-2.2-2.6-3.5-3.4-1.3c-2.4,6.7-5.6,10.3-10.7,12.5c-12.7,5.3-26,1.4-34.9-2.9
		c-13.3-6.4-23.3-16-25.3-22l11.7-4.5c0.9,8.4,7.3,14.6,7.9,15.1c7.4,5.4,15.3,8.3,23,8.3c5.6,0,11.2-1.6,15.6-5.2
		c2.1-1.7,3.7-3.9,5-6.2c1.6-2.7,2.7-10.8,2.7-10.8c2,0,21.1,0.6,24.4,10.7c1.4,4.3,3.5,8.6,5.9,12.8l-7.6,49.6l-10,4l-86.1,40.5
		c0,0,12.1-57.6,12.1-57.8c0.7-3.4-4.7-4.6-5.4-1.1l-12.9,61.8c-0.5,0.2-4.3,1.3-5.7,2c-6.9,3.8-10.4,7.3-13.6,11.6
		c-2.1,2.9,2.3,6.1,4.4,3.3c2.8-3.8,5.7-6.8,11.7-10.1c2.2-1.2,4.8-1.5,6.9-2.5c11.5-5.4,58.5-27.6,70.6-33.3l0.1-0.1
		c2.3,8,4.4,16.1,6.3,24.2c0.5,2.3,4.1,1.5,3.6-0.8c-1.9-8.3-4.1-16.7-6.5-24.9l11.4-5.3l10.5,25.2c-0.9,0.7-82.8,59.2-111.6,63.7
		C1416.2,718.3,1408.9,716.2,1403.1,712.2z M1419.4,723c1.6,0,3.2-0.1,4.8-0.4c28.4-4.5,83.6-42.7,106-58.9l-3.9,25.6
		c-0.2,1.5,0.7,2.8,2.2,3.1l15.2,3.1c-0.4,0-5.6,42.8-5.8,47.1c-0.5,9.3-3.9,18-11.8,22c-8.1,4.2-18.1,4.2-26.9,3.5
		c-41-3.4-79.6-23.2-86.1-26.7C1413,741.4,1419.3,723,1419.4,723z M1408,743.1c0,0.1,0,0.1,0,0.2h0
		C1407.9,743.2,1407.9,743.1,1408,743.1z M1394.7,815.7c-5.6-18.8,2.6-38.5,12.4-58.7c0.6-1.3,3.8-9.9,4.1-10.5
		c8.6,4.5,46.8,23.6,87.6,27c2.7,0.2,5.2,0.3,7.6,0.3c8.4,0,15.4-1.3,21-3.8l100.5,28.8c14.7,5.3,30.4,18.5,26.6,38.2
		c-0.1,0.7-13.9,71.3-30.8,115.8c-1.5,3.3-7.2,15.3-8.4,17.9c-7.2,15.1-14.3,30.3-16.3,40c-0.2,0-15.9-10.5-22.7-14.7
		c-6.2-3.8-12.6-7.7-17.9-11.6c0-0.2,2.2-11,2.7-13.3c4.5,3,34.2,17.7,35.1,18.5c1.8,1.6,4.1-1.4,2.3-2.8
		c-1.2-1-32.3-16.4-36.5-19.5c0.4-1.5,0.8-3,1.2-4.6c1.1-4.3,18.2-70,21.9-81.7c2.7-8.6,5.2-17.2,8.1-25.8c1.6-5,4.8-14.4,6.1-15.9
		c2.3-2.7-1.8-6.3-4.1-3.6c-1.8,2.1-5.3,12-7.1,16.7c0,0-7.7,1.2-11.1,1.5c-21.3,1.8-42.8,1.9-64.2,1.9c-42.8,0-71.6-1.9-80.9-5.3
		C1413,843.6,1399.1,830.6,1394.7,815.7z M1348.4,846.9c0,0.5-0.1,1.1-0.3,1.5H872.7v-8.3l469.7,0.5
		C1345.7,840.7,1348.4,843.4,1348.4,846.9z M1336.1,698c-15,27.6-14.9,111.2,0.1,136.7H872.7v-80.2h132.8c1,0,1.8-0.8,1.8-1.8
		c0-1-0.8-1.8-1.8-1.8H772c-1,0-1.8,0.8-1.8,1.8c0,1,0.8,1.8,1.8,1.8h18.3v80.2h-25.3c-24.6,0-44.6-18.8-44.6-41.9v-53.5
		c0-23.1,20-41.9,44.6-41.9h108.7c2.5,1.6,5.5,2.1,8.4,2.1c1.3,0,2.5-0.1,3.7-0.2c6.4-0.5,33.8-1.7,37.2-1.9h185.7
		c3.2,0.5,6.1,1.1,8.4,1.5c2.9,0.5,6,1.1,8.9,0.2c1.2-0.4,2.4-0.9,3.4-1.7h207C1336.3,697.6,1336.2,697.8,1336.1,698z M867.2,755.6
		v164c0,0-33.5-39-33.7-39.1c-1.1-1.3-3.1-1.2-4.2,0l-33.7,39.1v-164H867.2z M941.2,690.3l-9-41.1l71.3,23.4L941.2,690.3z
		 M1027.2,680.4l35.4,11.6h-107l40.7-11.6H1027.2z M939.8,696.4c-0.1,0-0.3,0.1-0.4,0.1h-0.2C939.3,696.5,939.6,696.5,939.8,696.4z
		 M1121.3,685.1c0.9,0.3,1.9-0.1,2.2-1.2c3.5-13.9,2-27.3-1.7-39.4c-1.2-4.1-2.7-8-4.4-11.9c-0.4-1-4.8-11.2-5.3-11.2
		c2.3-0.7,4.2-1.2,5.3-1.4c3.8,4.8,7.1,10.7,9.5,17.3c0.6,1.7,1.2,3.4,1.8,5.2c4,13.3,4.9,28.4,2.1,41.3c-0.6,2.7-1.7,6-3.5,8
		c-2.5,2.8-5.8,2.2-9.2,1.6c-2.4-0.5-40.9-6.8-46.8-7.8l0.1-49.3c9.7-3.8,26.4-10.3,37.2-13.9c1.6-0.5,9,20.6,9.8,23
		c3.5,11.6,5,24.3,1.7,37.5C1119.7,684.1,1120.4,684.9,1121.3,685.1z M1136.1,685.1c0.4-1.6,0.7-3.1,0.9-4.8h205.4
		c3.3,0,6,2.7,6,6.2c0,3.1-2.4,5.4-5.5,5.6c-0.4-0.3-209.1,0-209.1,0C1134.8,690.3,1135.5,687.7,1136.1,685.1z M1143.6,568.5
		c18.2,0,32.9,16.7,31.2,34.7c-1.2,12.3-9.8,23.1-21.7,26.8l-20.8,6c-2.8-7.6-6.6-14.6-11.3-20.1c-0.7-0.8-1.6-1.2-2.9-1.2
		c-5,0-24.7,7.5-46.7,16v-4.2c0-1.2-0.7-2.2-1.8-2.6l-49.7-18.2l114.5-35.7C1137.4,568.9,1140.5,568.5,1143.6,568.5z M963.4,482
		c-0.6-1.5-1.5-2.5-2.6-3c-4.5-2-8.4,2.3-12.8,7.3c-3.5,3.9-7.4,8.3-11.6,9.9c-3.6,1.4-8.1,8.6-9.7,13.6c-1.8-0.1-4.6-0.3-8-0.3
		v-72.7l82.3,21.2l1.7,0.4v22.4c-9.1-1.9-23.1,6.1-34.6,12.6c-2.2,1.2-4.3,2.4-6.1,3.4c0.3-1.2,0.5-2.4,0.8-3
		C964.7,489.9,964.5,484.8,963.4,482z M938.4,501.4c5.5-2,9.9-7,13.7-11.4c1.8-2.1,4.8-5.4,6.2-5.9c0.5,1.4,0.7,4.9-0.4,7.4
		c-1.2,2.8-1.9,8.8-2,9.5c-0.1,0.9,0.3,1.8,1,2.4c0.7,0.6,1.6,0.8,2.5,0.5c2.4-0.7,6.4-3,11.5-5.8c9.7-5.4,25.9-14.6,32.1-11.5
		c5,2.5,7.9,5.3,8.8,8.7c1.1,3.9-0.4,9-4.5,15.3c-9.3,14.7-12.9,20.1-58.7,26.4c-4.3-7-13-19.4-16.8-24.9
		C932.6,508.8,936.7,502.1,938.4,501.4z M1049.7,544.8c-0.2-0.6-2-6.5-3.8-9c-1.6-2.2-2-5.7-1.8-7.2c1.5,0.3,5,3,7.2,4.6
		c4.6,3.5,9.9,7.5,15.7,8.5c2.1,0.4,6.2,4.1,7.3,6.4l-7.2,31c-36.8-1.7-50.5-5.8-62.1-18c-6.2-6.5-9.8-11-9.5-14.5
		c0.2-2.2,1.9-4.5,5.3-7.1c5.5-4.2,23.2,1.7,33.7,5.2c5.5,1.8,9.9,3.3,12.4,3.5C1048.8,548.6,1050.2,546.6,1049.7,544.8z
		 M1067.8,536.5c-4.4-0.8-9.1-4.3-13.3-7.5c-5.3-4.1-9.9-7.6-14-4.8c-1,0.7-1.6,1.8-1.9,3.4c-0.5,3,0.3,8,2.7,11.4
		c0.4,0.6,0.9,1.6,1.4,2.8c-1.9-0.6-4.2-1.4-6.6-2.1c-9-3-19.5-6.5-27.9-6.9v-13.7c1.2-1.7,2.4-3.6,3.7-5.6c5-7.7,6.6-14.2,5.1-19.8
		c-1.2-4.2-4.1-7.6-8.8-10.5v-25.3l82.2-21.1v96.6l-13.4,9.1C1074.6,540.7,1069.6,536.8,1067.8,536.5z M950.6,542.2
		c0.1-0.3,46.7-6.8,52.1-16.5v7.4c-2.1,0.4-3.9,1.1-5.4,2.2c-4.8,3.7-7.1,7.1-7.4,11c-0.4,5,2.8,9.7,7.6,15l-54.6-14
		c1.3-0.5,5.5-2,5.5-2C949.3,545,949.8,544.5,950.6,542.2z M1004.8,568.9h0.2c0,0,0,0,0,0c11.9,10.2,27.4,14.1,60.9,15.7
		c0,0.3,0.1,0.5,0.3,0.8l-54.8,17.1L917.2,567c0.7-2.1,1.6-5,2.8-8.6c0.6-1.8,1.2-3.9,1.6-5.2l10.7-3.2h0
		C932.6,550.3,1004.8,568.9,1004.8,568.9z M1076.1,312.8c-0.1,0.5-1.9,9.7-7.5,12.9c0.2-0.8,0.3-1.7,0.4-2.6v0l5.4-23.3
		C1077.7,301,1078,304.1,1076.1,312.8z M1054.7,230.2c8.1,1.8,17.6,18.2,17.6,31.1l-3,36.7l0,0.1l-1.5,0.7
		c-1.2-19.2-3.3-35-10.1-42.1c0.3-0.7,0.6-1.4,0.9-2.1c2.1-5.6,0.7-13.9-3.3-19.6c-0.7-1-1.4-1.8-2.1-2.5
		C1053.5,232.3,1054.5,230.7,1054.7,230.2z M1041.4,288.4c-10.3,0-18.8,7.9-19.7,18h-2.2c-0.1-8.7,0-16.6,0-16.7
		c0-1.5-1.2-2.7-2.7-2.8c0,0,0,0,0,0c-1.5,0-2.7,1.2-2.7,2.7c0,0.6-0.1,8.3,0,16.8h-8.7c-0.9-10.1-9.4-18-19.7-18
		c-9,0-16.5,6-19,14.1l-2.7-1.4c2.7-17.5,7.7-37.2,14.9-44.4c0.8-0.8,1.9-1.2,3-1.1c1.1,0.1,2.2,0.8,2.8,1.8c1.9,3.1,4.6,6,6.3,7.2
		c7.8,5.5,18.6,5.5,29.8,0.2c3.1,1.6,6.7,2.8,10.2,3.4c2.2,0.4,4.3,0.6,6.3,0.6c7.3,0,13.3-2.5,17.4-7.2c5.5,7.1,7.1,25.4,7.9,40
		l-2.1,1.1C1058,294.3,1050.4,288.4,1041.4,288.4z M1057.6,308.2c0,8.9-7.2,16.2-16.2,16.2c-8.9,0-16.2-7.2-16.2-16.2
		c0-8.9,7.3-16.2,16.2-16.2C1050.3,292,1057.6,299.3,1057.6,308.2z M1001.8,308.2c0,8.9-7.3,16.2-16.2,16.2
		c-8.9,0-16.2-7.2-16.2-16.2c0-8.9,7.2-16.2,16.2-16.2C994.5,292,1001.8,299.3,1001.8,308.2z M951.5,315.3l-0.1-0.4
		c-2.2-5.2-2.6-9.4-1.1-11.9c0.6-1,1.5-1.6,2.4-2l3.6,18.7l0,0.3c0.2,2.1,0.5,4.2,0.8,6.3C955.2,324.6,952.8,319.8,951.5,315.3z
		 M958.3,301.4l-0.6-3.5l-2.2-37.3c0-16,15.8-38.3,31.4-38.3c2.2,0,4.3,0,6.4,0.2c6,0.3,12.9,0.7,17.2-3.8c2.4-2.5,6-3.9,9.7-3.9
		c5.2,0,10,2.9,11.9,7.2c1.1,2.4,4.9,2.2,6.1,0c0.8-1.8,2.6-2.3,3.9-2.3c5.2-0.3,10,4.2,7.1,9.3c-0.1,0.3-0.3,0.5-0.3,0.7
		c-1.2-0.5-2.5-0.7-3.8-0.7c-3.4,0-3.6,5.5,0,5.5c2.7,0,4.7,2.3,5.7,3.7c3.9,5.6,4.6,13.5,0.2,19c-5.4,7-14.9,6.3-19.2,5.6
		c-2.8-0.5-13.8-3.1-13.8-7.2c0-3.5-5.5-3.6-5.5,0c0,2,1.1,3.8,2.8,5.5c-8.3,3.2-15.9,2.9-21.3-1c-0.8-0.6-3.1-2.9-4.8-5.6
		c-3.1-5-10.2-5.8-14.4-1.6c-8.6,8.8-13.5,29.7-16.1,45.7C958.6,299.5,958.5,300.5,958.3,301.4z M961.8,319.4
		c0.3-4.2,0.8-9.2,1.5-14.5l2.6,1.3c-0.1,0.7-0.1,1.3-0.1,2c0,10.9,8.9,19.8,19.8,19.8c10.3,0,18.8-7.9,19.7-18h8.7
		c0.1,5.6,0.3,11.2,0.7,15.2c0.1,0.5,0,1,0,1.3l-6.9,0.3c-1.5,0.1-2.7,1.4-2.6,2.9c0.1,1.5,1.3,2.6,2.7,2.6h0.1l8.2-0.4
		c0.4,0,0.8-0.1,1.2-0.3c2.3-1.3,3-4.4,2.8-6.9c-0.4-3.8-0.5-9.2-0.6-14.7h2.1c0.9,10.1,9.4,18,19.7,18c10.9,0,19.8-8.9,19.8-19.8
		c0-0.7,0-1.3-0.1-2l1.6-0.8c0.1,1.4,0.1,2.8,0.2,4.1c0.2,5,0.4,9.4,0.7,12.8c-2.4,17.2-10.9,31.8-22.8,40.7
		c-1.8,1.3-3.6,2.5-5.5,3.6c-15.1,8.7-34.4,8.3-48.9-1.5c-1.9-1.3-3.7-2.7-5.5-4.3C970.5,351.4,963.5,336.9,961.8,319.4z
		 M1035.3,372.9v8c0,10.3-16.9,20.4-24.7,24.1c-7.7-3.7-24.2-13.8-24.2-24.1v-9.3c5.3,5.3,21.5,6.7,24,6.7
		C1019,378.7,1027.6,376.8,1035.3,372.9z M863,517.4c6.4-12.1,47.7-98.5,53.3-108.1c0-0.1,0.1-0.1,0.1-0.2c1.1-1.5,9.2-12.8,16.9-17
		c9.5-5.2,23.7-9,35.2-11.9c4.8-1.3,9.1-2.4,12.4-3.5v4.3c0,16.6,27.4,29.1,28.5,29.7c2,0.8,4.6-1.1,6.2-2c3.5-1.8,6.9-3.9,10.2-6.2
		c6.9-5,15-12.2,15-21.5v-2.6l3.9,0.9c-0.3,5.5-1.4,10.9-3.3,16.1c-1,2.7-2.1,4.9-3.3,6.8c-3.5,5.3-9,8.9-14.3,12.5l-13,8.7l-14.7-8
		c-7.3-4-13.5-7.8-16.3-14.1c-0.9-2.1-4.3-0.8-3.3,1.5c3.5,7.9,11.8,12.5,17.9,15.8l16.6,9.1l14.9-9.9c5.3-3.5,11.4-7.6,15.3-13.4
		c1.4-2.1,2.6-4.6,3.7-7.5c2-5.3,3.1-10.9,3.5-16.6l37,8.4c13.1,3,23.5,12.9,27.2,26l42.7,120.8c1.5,3,1.5,6,0,9
		c-7.2,14.5-45,27-70.7,33.6c-4.1,1.1-11.8,2.8-12.1,2.9c0,0,7.6-32.6,7.6-32.6l14.2-10c0.7-0.3,15-11.4,15-11.4
		c1.2-0.9,1.5-2.6,0.5-3.8c-0.9-1.2-2.6-1.5-3.8-0.5l-10.1,7.5l-0.3-19.3l2,3.2c0.8,1.3,2.5,1.7,3.8,0.9c1.3-0.8,1.7-2.5,0.9-3.8
		l-6.1-11.8v-65.5c0-1.8-1.7-3-3.4-2.7l-15.2,3.9c-1.2-4.4-1.8-9-1.6-13.5c0.1-3.5-5.4-3.8-5.5-0.2c-0.2,5.1,0.4,10.2,1.8,15.1
		l-67.4,17.3L943,437.3c0,0,1.4-16.1,1.4-16.2c0.3-3.5-5.2-4-5.5-0.5l-1.3,15.3c0,0-20.7-5.3-20.8-5.4c-1.7-0.4-3.4,0.9-3.4,2.7
		v76.3c-13.5,0.5-32.2,3.5-42.2,15.2c-2.3,2.7,1.9,6.2,4.2,3.5c6-7.1,15-10.2,23.9-11.7c9-1.5,28.1-1.3,28.1-1.2
		c6.9,9.9,14.1,20.5,17.2,25.4l-59.7,17.8c-8.8,1.2-15.3-1-19.3-6.6C858,541.2,861,521.2,863,517.4z M915.3,555.2
		c-0.2,0.5-0.3,1-0.5,1.6c-1,3-2.2,6.8-3,9.1l-14.5-5.3L915.3,555.2z M862.4,620.6c-16.7-5.5-25.3-24.6-19.3-40.9
		c3.7-10,12.4-17.6,22.8-19.8c3.4,2.5,8,4.4,14.4,4.4c2.8,0,5.4-0.4,8-1.1l177.5,65.1l-0.1,58.9
		C1065.8,687.2,863.8,621.1,862.4,620.6z M874.5,630.4l7.6,2.5c-5.5,11.3-10.3,25.8-7.2,42c0.7,3.5,1.8,7,3.1,10.3
		c0.9,2.1,4.3,1,3.4-1.4c-1.2-2.9-2.1-5.9-2.7-8.9c-3.3-15.5,1.2-29.5,6.9-40.9l40.6,13.3l2.5,11.4c0.2,6.9-0.8,13.6-3.1,19.8
		c-0.8,2.2,2.6,3.5,3.4,1.2c1-2.8,1.8-5.6,2.4-8.6l4.4,20.1c-6.3,0.4-15.1,0.8-23.5,1.2c-10,0.4-20.4,0.9-26.8,1.4
		c-2.6,0.2-5.4,0.3-7.3-0.4c-3.7-1.2-6.6-4.6-8.6-10.1c-1-2.8-1.8-5.6-2.4-8.5C863.7,658.9,866.5,641.6,874.5,630.4z M700.9,789
		v-44.2c0-35.5,33.1-64.5,73.7-64.5h88.1c0.4,1.6,1,3.3,1.6,4.9c1,2.6,2.1,4.8,3.4,6.7H764.9c-27.6,0-50.1,21.3-50.1,47.4v53.5
		c0,26.1,22.5,47.4,50.1,47.4h25.3v8.3h-44.1C719.6,838.7,700.9,815.7,700.9,789z M627.7,856.5c0-0.9,2.2-2.6,5.7-2.6h156.9v4.5
		H634.4C630.6,858.9,627.7,857.4,627.7,856.5z M650.2,909.2c0.5-15.8-2.3-34.2-9.2-44.5c-0.1-0.3-0.3-0.5-0.5-0.8h149.8v56.6
		c0,1.5,0.4,2.8,1.2,3.9c1.7,2.4,5.1,2.6,7.1,0.4l33-38.3l33,38.3c0.9,1.1,2.1,1.6,3.4,1.6c2.7,0,4.9-2.6,4.9-5.9v-56.6h314.7
		c23.5,0,42.7,11,42.7,24.5V921c0,13.5-19.1,24.4-42.7,24.4H640.8C646.3,938,649.8,925.1,650.2,909.2z M633.4,951.5l554-0.6
		c27,0,48.2-13.2,48.2-29.9v-32.6c0-16.8-21.2-30-48.2-30H872.7v-4.5h553c1.4,0.6,2.9,1.1,4.3,1.7c11.4,4.8,26.7,4.2,39.9,4.8
		c14.3,0.6,78.9,0.4,87.7,0.1c3.8-0.1,19.9-0.8,28.4-2.1c-1.2,5.6-3.4,12.5-6,20.9c-7.2,22.8-20.1,74.9-20.9,77.9l-925.7-0.4
		c-3.4,0-5.7-1.5-5.7-2.7C627.7,953.2,629.8,951.5,633.4,951.5z M586.9,1058.8c-1.5,0-2.7-1.2-2.7-2.7v-90.8c0-1.5,1.2-2.7,2.7-2.7
		h970.6c-0.9,3.3-1.7,6.6-2.4,9.8c-0.8,3.8-1.6,7.7-2.2,11.6c-1.6,1.2-3.2,2.6-4.6,4.1c-6.6,7.3-11,17.9-13.5,32.2
		c-0.2,1.2-0.4,2.5-0.3,3.8c-0.4,1.2-9.9,32.7-9.9,32.7c-0.2,0.6-0.3,1.2-0.3,1.9H586.9z M587,1167.2v-43.8
		c0-26.7,18.2-49.6,44-59.1h895.3c0.9,1,2,1.8,3.4,2.3c3,0.9,6.4,0.1,8.5-2.3h14.6c0.2,2,0.6,3.9,1.1,5.8h-477.5
		c-26.6,0-48.2,21-48.2,46.8v52.8c0,25.8,21.6,46.8,48.2,46.8h326.9v13.8c-0.2-0.1-758.8-0.4-758.8-0.4
		C611.8,1224.4,587,1198.3,587,1167.2z M648,1361.5c1.9-11.2,2.9-24.2,3-37.5c0.3-28.2-3.3-57.4-10.8-71.2h407.9
		c23.1,0,41.8,18.3,41.8,40.8v52.2c0,22.5-18.8,40.4-41.8,40.4H640.5C640.7,1385.7,646.4,1371.2,648,1361.5z M631.4,1404.6
		c-3.1,0-5.7-4.9-5.7-8.1c0-3.2,2.6-5.3,5.7-5.3h416.7c26.1,0,47.3-19.9,47.3-45.4v-52.2c0-25.5-21.2-46.4-47.3-46.4H631.4
		c-3.1,0-5.7-2.7-5.7-6c0-3.1,2.6-5.7,5.7-5.7h771.9v25.5c0,1.2,0.4,2.4,1,3.3c1.6,2.2,4.7,2.4,6.5,0.4l25.1-29.1l25.1,29.1
		c0.8,1,1.9,1.5,3.1,1.5c2.4,0,4.4-2.3,4.4-5.2v-25.5h133.5c39,0,70.6,28,70.6,62.3v42.8c0,34.4-31.7,64.1-70.6,64.1H631.4z"/>
</g>
</svg>
