<?xml version="1.0" encoding="utf-8"?>
<!-- Generator: Adobe Illustrator 22.0.1, SVG Export Plug-In . SVG Version: 6.00 Build 0)  -->
<svg version="1.1" xmlns="http://www.w3.org/2000/svg" xmlns:xlink="http://www.w3.org/1999/xlink" x="0px" y="0px"
	 viewBox="0 0 300 233.8" style="enable-background:new 0 0 300 233.8;" xml:space="preserve">
<style type="text/css">
	.st0{display:none;}
	.st1{display:inline;fill:#F5F5F5;}
	.st2{fill:#E0E0E0;}
	.st3{fill:#FAFAFA;}
	.st4{fill:#EBEBEB;}
	.st5{fill:#F5F5F5;}
	.st6{fill:#263238;}
	.st7{fill:#FF725E;}
	.st8{fill:#455A64;}
	.st9{fill:#BA7E6D;}
	.st10{fill:#875149;}
	.st11{fill:#FFFFFF;}
	.st12{opacity:0.3;}
</style>
<g id="Background_Complete">
</g>
<g id="Background_Simple" class="st0">
	<path class="st1" d="M335.3-54.4l-2.2-3.6c-18.2-30-51.2-48.1-85.9-45.9c-4.5,0.3-8.9,0.9-13.3,1.8c-31.6,6.8-59.1,30.7-70.5,61.2
		c-6.7,18-8.6,38.7-21.3,53c-16.5,18.6-44.6,19.2-69.3,18.4S20,30.5,3.5,49.1c-10.3,11.7-13.6,28.3-12.8,44
		c2.2,41.4,31.1,78.5,67.8,96.9c36.7,18.4,80,20.1,120.1,12c56.3-11.3,109.8-42.5,142-90.7C352.9,63.2,361.1-2.4,335.3-54.4z"/>
	
		<ellipse transform="matrix(0.2262 -0.9741 0.9741 0.2262 103.5438 69.7316)" class="st1" cx="95.7" cy="-30.3" rx="36.2" ry="36.2"/>
</g>
<g id="Screen">
</g>
<g id="Coffee">
</g>
<g id="Character">
</g>
<g id="Device">
</g>
<g id="Table">
	<g>
		<g>
			<g>
				<g>
					<g>
						<g>
							<g>
								<g>
									<g>
										<g>
											<rect x="209.9" y="81.3" class="st2" width="49.1" height="48.4"/>
										</g>
									</g>
								</g>
							</g>
						</g>
					</g>
				</g>
			</g>
			<g>
				<g>
					<g>
						<g>
							<g>
								<g>
									<g>
										<g>
											<rect x="206.6" y="81.3" class="st3" width="49.1" height="48.4"/>
										</g>
									</g>
								</g>
							</g>
						</g>
					</g>
				</g>
				<g>
					<g>
						<g>
							<g>
								<g>
									<g>
										<g>
											<path class="st2" d="M255.7,129.7h-49.1V81.3h49.1V129.7z M206.6,129.7h49.1V81.3h-49.1V129.7z"/>
										</g>
									</g>
								</g>
							</g>
						</g>
					</g>
				</g>
			</g>
			<g>
				<g>
					<g>
						<g>
							<g>
								<g>
									<g>
										<g>
											<rect x="213.2" y="87.8" class="st3" width="35.9" height="35.4"/>
										</g>
									</g>
								</g>
							</g>
						</g>
					</g>
				</g>
			</g>
			<g>
				<g>
					<g>
						<g>
							<g>
								<g>
									<g>
										<g>
											<g>
												<path class="st2" d="M213.2,123.4c0,0-0.3,0.4-0.9,1c-0.6,0.6-1.4,1.3-2.3,2.2c-0.9,0.8-1.7,1.6-2.3,2.1
													c-0.6,0.5-1,0.8-1,0.8c0,0,0.3-0.4,0.9-1c0.6-0.6,1.4-1.3,2.3-2.2c0.9-0.8,1.7-1.6,2.3-2.1
													C212.7,123.7,213.1,123.4,213.2,123.4z"/>
											</g>
										</g>
									</g>
								</g>
							</g>
						</g>
					</g>
				</g>
			</g>
			<g>
				<g>
					<g>
						<g>
							<g>
								<g>
									<g>
										<g>
											<g>
												<path class="st2" d="M249.1,123.3c0,0,0.4,0.3,1,0.8c0.6,0.5,1.4,1.3,2.3,2.2c0.9,0.9,1.7,1.6,2.2,2.2
													c0.6,0.6,0.9,1,0.9,1c0,0-0.4-0.3-1-0.8c-0.6-0.5-1.4-1.3-2.3-2.2c-0.9-0.9-1.7-1.6-2.2-2.2
													C249.4,123.7,249,123.4,249.1,123.3z"/>
											</g>
										</g>
									</g>
								</g>
							</g>
						</g>
					</g>
				</g>
			</g>
			<g>
				<g>
					<g>
						<g>
							<g>
								<g>
									<g>
										<g>
											<g>
												<path class="st2" d="M249,87.9c0,0,0.3-0.4,0.9-1c0.6-0.6,1.4-1.3,2.3-2.2c0.9-0.8,1.7-1.6,2.3-2.1c0.6-0.5,1-0.8,1-0.8
													c0,0-0.3,0.4-0.9,1c-0.6,0.6-1.4,1.3-2.3,2.2c-0.9,0.8-1.7,1.6-2.4,2.1C249.4,87.6,249,87.9,249,87.9z"/>
											</g>
										</g>
									</g>
								</g>
							</g>
						</g>
					</g>
				</g>
			</g>
			<g>
				<g>
					<g>
						<g>
							<g>
								<g>
									<g>
										<g>
											<g>
												<path class="st2" d="M213.1,88c0,0-0.4-0.3-1-0.8c-0.6-0.5-1.4-1.3-2.3-2.2c-0.9-0.9-1.7-1.6-2.2-2.2
													c-0.6-0.6-0.9-1-0.9-1c0,0,0.4,0.3,1,0.8c0.6,0.5,1.4,1.3,2.3,2.2c0.9,0.9,1.7,1.6,2.2,2.2
													C212.8,87.6,213.1,88,213.1,88z"/>
											</g>
										</g>
									</g>
								</g>
							</g>
						</g>
					</g>
				</g>
			</g>
			<g>
				<g>
					<g>
						<g>
							<g>
								<g>
									<g>
										<g>
											<g>
												<path class="st2" d="M249,123.2c0,0,0-0.1,0-0.2c0-0.1,0-0.3,0-0.5c0-0.4,0-1.1,0-1.9c0-1.7,0-4.1,0-7.2
													c0-6.2,0-15-0.1-25.6l0.1,0.1c-10.5,0-22.7,0-35.8,0h0l0.2-0.2c0,13,0,25.1,0,35.4l-0.1-0.1c10.7,0,19.7,0.1,25.9,0.1
													c3.1,0,5.6,0,7.3,0c0.8,0,1.5,0,1.9,0c0.2,0,0.4,0,0.5,0C248.9,123.2,249,123.2,249,123.2c0,0-0.1,0-0.2,0
													c-0.1,0-0.3,0-0.5,0c-0.4,0-1.1,0-1.9,0c-1.7,0-4.1,0-7.3,0c-6.3,0-15.2,0-26,0.1l-0.1,0l0-0.1c0-10.2,0-22.4,0-35.4
													l0-0.2h0.2h0c13.1,0,25.4,0,35.8,0h0.1l0,0.1c0,10.6-0.1,19.5-0.1,25.7c0,3.1,0,5.5,0,7.2c0,0.8,0,1.4,0,1.9
													c0,0.2,0,0.4,0,0.5C249,123.1,249,123.2,249,123.2z"/>
											</g>
										</g>
									</g>
								</g>
							</g>
						</g>
					</g>
				</g>
			</g>
			<g>
				<g>
					<g>
						<g>
							<g>
								<g>
									<g>
										<g>
											<rect x="225.1" y="99.8" class="st4" width="12" height="11.3"/>
										</g>
									</g>
								</g>
							</g>
						</g>
					</g>
				</g>
			</g>
		</g>
		<g>
			<g>
				<g>
					<g>
						<g>
							<g>
								<path class="st2" d="M66.3,178.2c0,0.1-0.4-0.2-0.9-0.5c-0.4-0.3-0.7-0.6-0.7-0.7c0-0.1,0.4,0.2,0.9,0.5
									C66,177.8,66.3,178.1,66.3,178.2z"/>
							</g>
						</g>
					</g>
				</g>
				<g>
					<g>
						<g>
							<g>
								<path class="st4" d="M78.1,161.5c0.1-1.6,0.1-3.2-0.4-4.6c-0.5-1.5-1.7-2.8-3.3-3.2c-1.8-0.4-3.7,0.7-4.8,2.2
									c-1,1.5-1.4,3.3-1.7,5c-2.1,12.1-2.9,24.4-2.3,36.6l7.5,1C76.4,185.8,77.5,174.7,78.1,161.5z"/>
							</g>
						</g>
					</g>
					<g>
						<g>
							<g>
								<g>
									<path class="st2" d="M73.3,153.7c0,0,0,0,0,0.1c0,0.1-0.1,0.2-0.1,0.3c-0.1,0.3-0.3,0.7-0.5,1.2c-0.1,0.3-0.2,0.6-0.4,0.9
										c-0.1,0.3-0.2,0.7-0.4,1.1c-0.1,0.4-0.3,0.8-0.4,1.2c-0.1,0.4-0.3,0.9-0.4,1.4c-0.6,2-1,4.4-1.5,7.1
										c-0.4,2.7-0.7,5.6-0.9,8.8c-0.4,6.2-0.4,11.9-0.6,16c-0.1,2-0.2,3.7-0.2,4.9c0,0.6-0.1,1-0.1,1.3c0,0.1,0,0.3,0,0.3
										c0,0.1,0,0.1,0,0.1c0,0,0,0,0-0.1c0-0.1,0-0.2,0-0.3c0-0.3,0-0.8,0-1.3c0.1-1.1,0.1-2.8,0.2-4.9c0.1-4.1,0.2-9.8,0.5-16
										c0.2-3.1,0.5-6.1,0.9-8.8c0.4-2.7,0.9-5.1,1.5-7.1c0.1-0.5,0.3-1,0.4-1.4c0.2-0.4,0.3-0.9,0.4-1.2c0.1-0.4,0.3-0.7,0.4-1.1
										c0.1-0.3,0.3-0.6,0.4-0.9c0.2-0.5,0.4-0.9,0.6-1.2c0.1-0.1,0.1-0.2,0.1-0.3C73.3,153.7,73.3,153.7,73.3,153.7z"/>
								</g>
							</g>
						</g>
					</g>
					<g>
						<g>
							<g>
								<g>
									<path class="st2" d="M74,153.7c0,0,0.5,0.4,0.9,1.5c0.5,1,0.8,2.6,0.7,4.6c-0.2,3.9-0.6,9.4-1.1,15.4
										c-0.5,6-1.1,11.4-1.5,15.3c-0.2,2-0.4,3.5-0.6,4.6c-0.1,0.5-0.1,0.9-0.2,1.3c0,0.1,0,0.2-0.1,0.3c0,0.1,0,0.1,0,0.1
										c0,0,0,0,0-0.1c0-0.1,0-0.2,0-0.3c0-0.3,0.1-0.7,0.1-1.3c0.1-1.1,0.3-2.7,0.5-4.6c0.4-3.9,0.9-9.3,1.4-15.3
										c0.5-6,0.9-11.4,1.1-15.3c0.1-2-0.2-3.6-0.6-4.6C74.4,154.2,74,153.7,74,153.7z"/>
								</g>
							</g>
						</g>
					</g>
					<g>
						<g>
							<g>
								<g>
									<path class="st2" d="M79.2,172.1c0,0.1-0.7-0.1-1.4-0.3c-0.8-0.3-1.4-0.5-1.3-0.6s0.7,0.1,1.4,0.3
										C78.7,171.8,79.3,172.1,79.2,172.1z"/>
								</g>
							</g>
						</g>
					</g>
					<g>
						<g>
							<g>
								<g>
									<path class="st2" d="M80.1,164.9c0,0.1-0.6,0.4-1.4,0.7c-0.8,0.3-1.4,0.5-1.5,0.5c0-0.1,0.6-0.4,1.4-0.7
										C79.4,165,80.1,164.8,80.1,164.9z"/>
								</g>
							</g>
						</g>
					</g>
					<g>
						<g>
							<g>
								<g>
									<path class="st2" d="M79.7,158.9c0,0.1-0.5,0.1-1.1,0.1c-0.6,0-1.1-0.1-1.1-0.2c0-0.1,0.5-0.1,1.1-0.1
										C79.2,158.8,79.7,158.9,79.7,158.9z"/>
								</g>
							</g>
						</g>
					</g>
					<g>
						<g>
							<g>
								<g>
									<path class="st2" d="M71.9,155.1c-0.1,0-0.4-0.4-0.7-0.9c-0.3-0.5-0.6-1-0.5-1c0.1,0,0.4,0.4,0.7,0.9
										C71.7,154.6,71.9,155.1,71.9,155.1z"/>
								</g>
							</g>
						</g>
					</g>
					<g>
						<g>
							<g>
								<g>
									<path class="st2" d="M69.3,158.7c0,0.1-0.5,0.1-1.1,0.1c-0.6,0-1.1-0.1-1.1-0.1c0-0.1,0.5-0.1,1.1-0.1
										C68.8,158.6,69.3,158.6,69.3,158.7z"/>
								</g>
							</g>
						</g>
					</g>
					<g>
						<g>
							<g>
								<g>
									<path class="st2" d="M67.5,165.9c0,0.1-0.5-0.1-1.1-0.3c-0.6-0.2-1.1-0.5-1-0.5c0-0.1,0.5,0.1,1.1,0.3
										C67,165.6,67.5,165.8,67.5,165.9z"/>
								</g>
							</g>
						</g>
					</g>
					<g>
						<g>
							<g>
								<g>
									<path class="st2" d="M67.3,171.9c0,0.1-0.4,0.2-1,0.3c-0.5,0.1-1,0.1-1,0.1c0-0.1,0.4-0.2,1-0.3
										C66.8,171.9,67.3,171.9,67.3,171.9z"/>
								</g>
							</g>
						</g>
					</g>
					<g>
						<g>
							<g>
								<g>
									<path class="st2" d="M66.4,181.8c0,0.1-0.4,0.2-1,0.3c-0.6,0.1-1.1,0.1-1.1,0.1c0-0.1,0.4-0.2,1-0.3
										C65.9,181.7,66.4,181.7,66.4,181.8z"/>
								</g>
							</g>
						</g>
					</g>
					<g>
						<g>
							<g>
								<g>
									<path class="st2" d="M65.8,187.2c0,0.1-0.3,0.3-0.8,0.6c-0.5,0.3-0.9,0.4-1,0.3c0-0.1,0.3-0.3,0.8-0.6
										C65.4,187.3,65.8,187.2,65.8,187.2z"/>
								</g>
							</g>
						</g>
					</g>
					<g>
						<g>
							<g>
								<g>
									<path class="st2" d="M70.5,193.4c-0.1,0-0.4-0.4-0.7-1c-0.3-0.6-0.6-1.1-0.5-1.1c0.1,0,0.4,0.4,0.7,1
										C70.4,192.9,70.6,193.4,70.5,193.4z"/>
								</g>
							</g>
						</g>
					</g>
					<g>
						<g>
							<g>
								<g>
									<path class="st2" d="M71.9,183.1c0.1,0.1-0.3,0.5-0.8,0.9c-0.5,0.5-1,0.8-1,0.8c-0.1-0.1,0.3-0.5,0.8-0.9
										C71.4,183.4,71.8,183.1,71.9,183.1z"/>
								</g>
							</g>
						</g>
					</g>
					<g>
						<g>
							<g>
								<g>
									<path class="st2" d="M71.6,177.8c-0.1,0-0.4-0.2-0.8-0.6c-0.4-0.4-0.6-0.7-0.6-0.8c0.1,0,0.4,0.2,0.8,0.6
										C71.4,177.4,71.6,177.7,71.6,177.8z"/>
								</g>
							</g>
						</g>
					</g>
					<g>
						<g>
							<g>
								<g>
									<path class="st2" d="M72.5,170.9c0.1,0-0.3,0.5-0.7,0.9c-0.4,0.5-0.8,0.8-0.9,0.7c-0.1,0,0.3-0.5,0.7-0.9
										C72.1,171.2,72.5,170.8,72.5,170.9z"/>
								</g>
							</g>
						</g>
					</g>
					<g>
						<g>
							<g>
								<g>
									<path class="st2" d="M73,165.9c-0.1,0.1-0.5-0.3-1-0.7c-0.5-0.4-0.8-0.8-0.8-0.9c0.1-0.1,0.5,0.3,1,0.7
										C72.8,165.4,73.1,165.8,73,165.9z"/>
								</g>
							</g>
						</g>
					</g>
					<g>
						<g>
							<g>
								<g>
									<path class="st2" d="M74.1,159.1c0.1,0-0.2,0.5-0.5,1c-0.3,0.5-0.6,0.9-0.7,0.9c-0.1,0,0.2-0.5,0.5-1
										C73.7,159.5,74,159.1,74.1,159.1z"/>
								</g>
							</g>
						</g>
					</g>
					<g>
						<g>
							<g>
								<g>
									<path class="st2" d="M76,152.8c0.1,0-0.1,0.5-0.4,1c-0.3,0.5-0.6,0.9-0.7,0.9c-0.1,0,0.1-0.5,0.4-1
										C75.7,153.2,76,152.8,76,152.8z"/>
								</g>
							</g>
						</g>
					</g>
					<g>
						<g>
							<g>
								<g>
									<path class="st2" d="M78.2,155.7c0,0.1-0.3,0.3-0.7,0.4c-0.4,0.2-0.8,0.3-0.8,0.2c0-0.1,0.3-0.3,0.7-0.4
										C77.8,155.7,78.2,155.6,78.2,155.7z"/>
								</g>
							</g>
						</g>
					</g>
					<g>
						<g>
							<g>
								<g>
									<path class="st2" d="M78.3,178.2c0,0.1-0.7,0-1.5-0.3c-0.8-0.3-1.3-0.7-1.3-0.8c0-0.1,0.6,0.2,1.4,0.5
										C77.7,177.9,78.3,178.1,78.3,178.2z"/>
								</g>
							</g>
						</g>
					</g>
					<g>
						<g>
							<g>
								<g>
									<path class="st2" d="M77.4,182.9c0,0.1-0.4,0.2-1,0.3c-0.6,0.1-1.1,0.1-1.1,0.1c0-0.1,0.4-0.2,1-0.3
										C76.9,182.9,77.4,182.9,77.4,182.9z"/>
								</g>
							</g>
						</g>
					</g>
					<g>
						<g>
							<g>
								<g>
									<path class="st2" d="M76.3,191.1c0,0.1-0.6-0.3-1.1-1c-0.5-0.6-0.8-1.2-0.7-1.3c0.1,0,0.4,0.5,0.9,1.1
										C75.8,190.6,76.3,191.1,76.3,191.1z"/>
								</g>
							</g>
						</g>
					</g>
					<g>
						<g>
							<g>
								<g>
									<path class="st2" d="M64.1,194.8c0-0.1,0.3-0.4,0.7-0.7c0.4-0.3,0.8-0.6,0.9-0.5c0,0.1-0.3,0.4-0.7,0.7
										C64.6,194.7,64.2,194.9,64.1,194.8z"/>
								</g>
							</g>
						</g>
					</g>
				</g>
			</g>
			<g>
				<g>
					<g>
						<path class="st4" d="M60.7,177c-0.5-1.4-1.4-3.1-3-3.2c-1,0-1.8,0.6-2.3,1.4c-0.4,0.8-0.6,1.7-0.6,2.6c0.2,6,1.3,12.8,3.5,19
							h5.9C64,190,62.9,183.6,60.7,177z"/>
					</g>
				</g>
			</g>
			<g>
				<g>
					<g>
						<path class="st4" d="M50,167.9c-0.8-3.1-3.3-4.8-6.1-4.9c-2.6,0.4-3.6,2.9-3.9,5.3c-0.3,2.5,0.5,4.9,1.3,7.3
							c2.6,7.6,5.2,15.3,7.8,22.9c2.4-0.3,4.9-0.5,7.3-0.8C54,187.5,52.7,178.1,50,167.9z"/>
					</g>
				</g>
			</g>
			<g>
				<g>
					<g>
						<g>
							<path class="st2" d="M57.6,173.9c0,0-0.2,0.2-0.5,0.8c-0.3,0.5-0.4,1.4-0.3,2.5c0.1,1.1,0.2,2.3,0.4,3.7
								c0.2,1.4,0.5,2.9,0.8,4.5c0.7,3.2,1.4,6.1,1.9,8.2c0.2,1,0.4,1.9,0.5,2.5c0,0.3,0.1,0.5,0.1,0.7c0,0.2,0,0.2,0,0.2
								c0,0,0-0.1-0.1-0.2c0-0.2-0.1-0.4-0.2-0.7c-0.2-0.6-0.4-1.5-0.6-2.5c-0.5-2.1-1.3-4.9-2-8.1c-0.3-1.6-0.6-3.1-0.8-4.5
								c-0.1-0.7-0.2-1.4-0.2-2c-0.1-0.6-0.1-1.2-0.2-1.7c-0.1-1.1,0.1-2,0.4-2.5C57.3,174.1,57.6,173.9,57.6,173.9z"/>
						</g>
					</g>
				</g>
			</g>
			<g>
				<g>
					<g>
						<g>
							<path class="st2" d="M44,162.8c0,0-0.4,0.4-0.9,1.1c-0.5,0.8-1,2-1.1,3.6c-0.1,1.6,0.3,3.5,0.9,5.6c0.6,2.1,1.3,4.3,2.1,6.7
								c1.5,4.7,2.8,9,3.7,12.2c0.5,1.5,0.8,2.8,1.1,3.7c0.1,0.4,0.2,0.8,0.3,1c0.1,0.2,0.1,0.4,0.1,0.4c0,0-0.1-0.1-0.1-0.3
								c-0.1-0.3-0.2-0.6-0.3-1c-0.3-0.9-0.7-2.1-1.2-3.7c-1-3.1-2.3-7.4-3.8-12.2c-0.7-2.4-1.4-4.6-2.1-6.7c-0.6-2.1-1-4-0.9-5.6
								c0.1-1.6,0.7-2.9,1.2-3.7C43.5,163.1,44,162.8,44,162.8z"/>
						</g>
					</g>
				</g>
			</g>
			<g>
				<g>
					<g>
						<g>
							<path class="st2" d="M54.8,197c0,0-0.1-0.1-0.2-0.3c-0.1-0.2-0.3-0.5-0.4-1c-0.3-0.9-0.8-2.1-1.3-3.7
								c-0.5-1.6-0.9-3.5-1.4-5.6c-0.4-2.1-0.9-4.4-1.4-6.9c-0.5-2.4-1.1-4.7-1.7-6.8c-0.7-2.1-1.4-3.9-2.1-5.3
								c-0.7-1.5-1.4-2.6-2-3.4c-0.3-0.4-0.5-0.7-0.6-0.9c-0.1-0.2-0.2-0.3-0.2-0.3c0,0,0.1,0.1,0.2,0.3c0.2,0.2,0.4,0.5,0.7,0.8
								c0.6,0.7,1.3,1.9,2.1,3.3c0.8,1.5,1.5,3.3,2.2,5.3c0.7,2.1,1.3,4.4,1.8,6.8c0.5,2.4,0.9,4.8,1.4,6.9c0.4,2.1,0.9,4,1.3,5.6
								c0.4,1.6,0.9,2.8,1.2,3.7c0.1,0.4,0.3,0.8,0.4,1C54.7,196.9,54.8,197,54.8,197z"/>
						</g>
					</g>
				</g>
			</g>
			<g>
				<g>
					<g>
						<g>
							<path class="st2" d="M41.4,174.5c0,0.1-0.4,0.2-0.9,0.3c-0.5,0.1-0.9,0.2-1,0.1c0-0.1,0.4-0.2,0.9-0.3
								C41,174.4,41.4,174.4,41.4,174.5z"/>
						</g>
					</g>
				</g>
			</g>
			<g>
				<g>
					<g>
						<g>
							<path class="st2" d="M40.6,169.7c0,0.1-0.6,0.1-1.2,0.1c-0.7,0-1.2,0-1.2,0c0-0.1,0.5-0.2,1.2-0.2
								C40.1,169.6,40.6,169.7,40.6,169.7z"/>
						</g>
					</g>
				</g>
			</g>
			<g>
				<g>
					<g>
						<g>
							<path class="st2" d="M41.5,165.4c0,0.1-0.4-0.2-0.9-0.5c-0.4-0.4-0.8-0.7-0.7-0.7c0-0.1,0.4,0.2,0.9,0.5
								C41.2,165,41.5,165.4,41.5,165.4z"/>
						</g>
					</g>
				</g>
			</g>
			<g>
				<g>
					<g>
						<g>
							<path class="st2" d="M43.7,161.4c0.1,0,0.1,0.4,0,0.8c0,0.4,0,0.7-0.1,0.8c-0.1,0-0.2-0.3-0.2-0.8
								C43.5,161.8,43.6,161.4,43.7,161.4z"/>
						</g>
					</g>
				</g>
			</g>
			<g>
				<g>
					<g>
						<g>
							<path class="st2" d="M48.3,163.3c0.1,0-0.1,0.4-0.4,0.8c-0.3,0.4-0.6,0.7-0.6,0.6c-0.1,0,0.1-0.4,0.4-0.8
								C47.9,163.6,48.2,163.3,48.3,163.3z"/>
						</g>
					</g>
				</g>
			</g>
			<g>
				<g>
					<g>
						<g>
							<path class="st2" d="M51.2,168.2c0,0.1-0.4,0.3-0.8,0.5c-0.5,0.2-0.9,0.3-0.9,0.2c0-0.1,0.4-0.3,0.8-0.5
								C50.8,168.2,51.2,168.1,51.2,168.2z"/>
						</g>
					</g>
				</g>
			</g>
			<g>
				<g>
					<g>
						<g>
							<path class="st2" d="M53,173.2c0,0.1-0.5,0.3-1.2,0.5c-0.7,0.1-1.3,0.1-1.3,0c0-0.1,0.5-0.1,1.2-0.3
								C52.5,173.3,53,173.1,53,173.2z"/>
						</g>
					</g>
				</g>
			</g>
			<g>
				<g>
					<g>
						<g>
							<path class="st2" d="M44.8,171.8c-0.1,0,0-0.4,0.1-0.8c0.1-0.4,0.3-0.7,0.4-0.7c0.1,0,0,0.4-0.1,0.8
								C45,171.5,44.8,171.8,44.8,171.8z"/>
						</g>
					</g>
				</g>
			</g>
			<g>
				<g>
					<g>
						<g>
							<path class="st2" d="M45.9,178.1c-0.1,0,0.1-0.5,0.3-1c0.3-0.5,0.5-1,0.6-0.9c0.1,0-0.1,0.5-0.3,1
								C46.2,177.7,46,178.1,45.9,178.1z"/>
						</g>
					</g>
				</g>
			</g>
			<g>
				<g>
					<g>
						<g>
							<path class="st2" d="M43.1,179.8c0,0.1-0.5-0.1-1.1-0.2c-0.6-0.2-1-0.3-1-0.4c0-0.1,0.5,0,1.1,0.1
								C42.7,179.5,43.1,179.7,43.1,179.8z"/>
						</g>
					</g>
				</g>
			</g>
			<g>
				<g>
					<g>
						<g>
							<path class="st2" d="M44.7,184.9c0,0.1-0.3,0.3-0.7,0.6c-0.4,0.3-0.8,0.5-0.9,0.4c0-0.1,0.3-0.3,0.7-0.6
								C44.3,185,44.7,184.8,44.7,184.9z"/>
						</g>
					</g>
				</g>
			</g>
			<g>
				<g>
					<g>
						<g>
							<path class="st2" d="M46,190c0,0.1-0.4,0.2-0.9,0.3c-0.5,0.1-0.9,0.2-0.9,0.1c0-0.1,0.4-0.2,0.9-0.3
								C45.6,190,46,189.9,46,190z"/>
						</g>
					</g>
				</g>
			</g>
			<g>
				<g>
					<g>
						<g>
							<path class="st2" d="M53.2,177.5c0,0.1-0.3,0.3-0.8,0.5c-0.5,0.2-0.9,0.2-0.9,0.1c0-0.1,0.4-0.2,0.8-0.4
								C52.7,177.5,53.1,177.4,53.2,177.5z"/>
						</g>
					</g>
				</g>
			</g>
			<g>
				<g>
					<g>
						<g>
							<path class="st2" d="M54.2,185.4c0,0.1-0.4,0-0.9-0.3c-0.5-0.2-0.8-0.4-0.8-0.5c0-0.1,0.4,0,0.9,0.3
								C53.9,185.1,54.2,185.3,54.2,185.4z"/>
						</g>
					</g>
				</g>
			</g>
			<g>
				<g>
					<g>
						<g>
							<path class="st2" d="M56,191.1c0,0.1-0.5-0.1-1.2-0.3c-0.6-0.2-1.1-0.5-1.1-0.5c0-0.1,0.5,0.1,1.2,0.3
								C55.5,190.8,56,191,56,191.1z"/>
						</g>
					</g>
				</g>
			</g>
			<g>
				<g>
					<g>
						<g>
							<path class="st2" d="M46.3,195.5c0-0.1,0.4-0.4,1-0.8c0.6-0.4,1-0.8,1-0.7c0.1,0-0.3,0.5-0.9,0.9
								C46.9,195.4,46.3,195.6,46.3,195.5z"/>
						</g>
					</g>
				</g>
			</g>
			<g>
				<g>
					<g>
						<g>
							<path class="st2" d="M51.1,192.7c-0.1,0-0.2-0.4-0.4-0.8c-0.2-0.4-0.4-0.8-0.3-0.8c0.1,0,0.4,0.3,0.6,0.7
								C51.2,192.2,51.1,192.6,51.1,192.7z"/>
						</g>
					</g>
				</g>
			</g>
			<g>
				<g>
					<g>
						<g>
							<path class="st2" d="M49.8,185.8c0,0.1-0.4-0.1-0.7-0.3c-0.3-0.2-0.6-0.5-0.5-0.5c0-0.1,0.4,0.1,0.7,0.3
								C49.6,185.5,49.9,185.8,49.8,185.8z"/>
						</g>
					</g>
				</g>
			</g>
			<g>
				<g>
					<g>
						<g>
							<path class="st2" d="M60.9,175.1c0,0.1-0.3,0.3-0.7,0.6c-0.4,0.3-0.8,0.5-0.8,0.4c0-0.1,0.3-0.3,0.7-0.6
								C60.5,175.2,60.9,175,60.9,175.1z"/>
						</g>
					</g>
				</g>
			</g>
			<g>
				<g>
					<g>
						<g>
							<path class="st2" d="M62.6,179.4c0,0.1-0.5,0.2-1,0.1c-0.6-0.1-1-0.2-1-0.3c0-0.1,0.5,0,1,0.1
								C62.1,179.3,62.6,179.3,62.6,179.4z"/>
						</g>
					</g>
				</g>
			</g>
			<g>
				<g>
					<g>
						<g>
							<path class="st2" d="M55.4,180.4c0,0.1-0.4,0.2-1,0.2c-0.6,0-1-0.1-1-0.1c0-0.1,0.4-0.1,1-0.1
								C54.9,180.3,55.4,180.3,55.4,180.4z"/>
						</g>
					</g>
				</g>
			</g>
			<g>
				<g>
					<g>
						<g>
							<path class="st2" d="M56,176.3c0,0.1-0.4,0.1-0.9-0.1c-0.5-0.2-0.8-0.5-0.7-0.6c0.1-0.1,0.4,0.2,0.8,0.3
								C55.6,176.1,56,176.2,56,176.3z"/>
						</g>
					</g>
				</g>
			</g>
			<g>
				<g>
					<g>
						<g>
							<path class="st2" d="M63.2,184.1c0,0.1-0.5-0.1-1-0.4c-0.5-0.3-0.9-0.6-0.9-0.7c0-0.1,0.5,0.1,1,0.4
								C62.8,183.7,63.2,184,63.2,184.1z"/>
						</g>
					</g>
				</g>
			</g>
			<g>
				<g>
					<g>
						<g>
							<rect x="42.4" y="196.2" class="st2" width="38.3" height="6.4"/>
						</g>
					</g>
				</g>
				<g>
					<g>
						<g>
							<polygon class="st2" points="45.2,201.3 49.9,220.5 72.8,220.5 77.9,201.3 							"/>
						</g>
					</g>
				</g>
				<g>
					<g>
						<g>
							<g>
								<path class="st4" d="M80.7,202.6c0,0.1-8.6,0.1-19.3,0.1c-10.7,0-19.3-0.1-19.3-0.1c0-0.1,8.6-0.1,19.3-0.1
									C72.1,202.5,80.7,202.5,80.7,202.6z"/>
							</g>
						</g>
					</g>
				</g>
			</g>
			<g>
				<g>
					<g>
						<g>
							<path class="st2" d="M59.4,180.5c-0.1,0-0.3-0.3-0.6-0.6c-0.3-0.4-0.4-0.7-0.4-0.8c0.1,0,0.3,0.3,0.6,0.6
								C59.3,180.1,59.4,180.5,59.4,180.5z"/>
						</g>
					</g>
				</g>
			</g>
			<g>
				<g>
					<g>
						<g>
							<path class="st2" d="M59.4,185.7c-0.1,0,0-0.5,0.2-1c0.2-0.5,0.4-0.9,0.5-0.9c0.1,0,0,0.5-0.2,1
								C59.7,185.3,59.5,185.7,59.4,185.7z"/>
						</g>
					</g>
				</g>
			</g>
			<g>
				<g>
					<g>
						<g>
							<path class="st2" d="M61.3,191.1c-0.1,0-0.4-0.4-0.6-1c-0.3-0.6-0.5-1-0.4-1.1c0.1,0,0.4,0.4,0.6,1
								C61.2,190.6,61.3,191.1,61.3,191.1z"/>
						</g>
					</g>
				</g>
			</g>
			<g>
				<g>
					<g>
						<g>
							<path class="st2" d="M57.2,195.5c-0.1,0,0.2-0.4,0.5-0.8c0.3-0.4,0.7-0.6,0.7-0.6c0.1,0-0.2,0.4-0.5,0.8
								C57.6,195.3,57.3,195.5,57.2,195.5z"/>
						</g>
					</g>
				</g>
			</g>
			<g>
				<g>
					<g>
						<g>
							<path class="st2" d="M56.4,187.6c0,0.1-0.4,0.1-0.8,0c-0.4-0.1-0.8-0.2-0.8-0.3c0-0.1,0.4-0.1,0.8,0
								C56,187.4,56.4,187.5,56.4,187.6z"/>
						</g>
					</g>
				</g>
			</g>
		</g>
		<g>
			<g>
				<g>
					<g>
						<g>
							<g>
								
									<rect x="230.7" y="17.9" transform="matrix(1 -5.062163e-03 5.062163e-03 1 -0.1603 1.1838)" class="st2" width="6.1" height="28.8"/>
							</g>
						</g>
					</g>
				</g>
			</g>
			<g>
				<g>
					<g>
						<g>
							<g>
								<g>
									
										<rect x="177.7" y="18" transform="matrix(1 -5.053289e-03 5.053289e-03 1 -0.1286 0.9381)" class="st4" width="15.8" height="15.9"/>
								</g>
							</g>
						</g>
					</g>
				</g>
				<g>
					<g>
						<g>
							<g>
								<g>
									
										<rect x="193.4" y="17.9" transform="matrix(1 -5.059609e-03 5.059609e-03 1 -0.1281 1.0191)" class="st5" width="15.8" height="15.9"/>
								</g>
							</g>
						</g>
					</g>
				</g>
				<g>
					<g>
						<g>
							<g>
								<g>
									<g>
										<path class="st2" d="M177.6,22.4c10.5,0.1,21.1,0,31.6-0.1c0.2,0,0.2-0.3,0-0.3c-10.5-0.1-21.1,0-31.6,0.2
											C177.5,22.1,177.5,22.4,177.6,22.4L177.6,22.4z"/>
									</g>
								</g>
							</g>
						</g>
					</g>
				</g>
			</g>
			<g>
				<g>
					<g>
						<g>
							<g>
								<g>
									
										<rect x="167.8" y="33.6" transform="matrix(1 -5.062246e-03 5.062246e-03 1 -0.2007 0.9227)" class="st4" width="28.8" height="12.9"/>
								</g>
							</g>
						</g>
					</g>
				</g>
				<g>
					<g>
						<g>
							<g>
								<g>
									
										<rect x="196.4" y="33.5" transform="matrix(1 -5.062245e-03 5.062245e-03 1 -0.1996 1.0678)" class="st5" width="28.8" height="12.9"/>
								</g>
							</g>
						</g>
					</g>
				</g>
				<g>
					<g>
						<g>
							<g>
								<g>
									<g>
										<path class="st2" d="M167.8,37.3c19.1,0.2,38.3,0,57.5-0.3c0.2,0,0.2-0.3,0-0.3c-19.1-0.1-38.3-0.1-57.5,0.3
											C167.6,37,167.6,37.3,167.8,37.3L167.8,37.3z"/>
									</g>
								</g>
							</g>
						</g>
					</g>
				</g>
			</g>
			<g>
				<g>
					<g>
						<g>
							<g>
								<rect x="157" y="46.6" class="st2" width="111.6" height="4.6"/>
							</g>
						</g>
					</g>
				</g>
				<g>
					<g>
						<g>
							<g>
								<rect x="175.3" y="48.9" class="st2" width="4.5" height="15.8"/>
							</g>
						</g>
					</g>
				</g>
				<g>
					<g>
						<g>
							<g>
								<rect x="242.9" y="48.9" class="st2" width="4.5" height="15.8"/>
							</g>
						</g>
					</g>
				</g>
			</g>
			<g>
				<g>
					<g>
						<g>
							<g>
								
									<rect x="236.7" y="7.1" transform="matrix(1 -5.062070e-03 5.062070e-03 1 -0.1332 1.2141)" class="st4" width="6.1" height="39.6"/>
							</g>
						</g>
					</g>
				</g>
			</g>
			<g>
				<g>
					<g>
						<g>
							<g>
								<g>
									
										<rect x="242.9" y="14.5" transform="matrix(1 -5.074132e-03 5.074132e-03 1 -0.1518 1.2569)" class="st5" width="9.5" height="32.1"/>
								</g>
							</g>
						</g>
					</g>
				</g>
				<g>
					<g>
						<g>
							<g>
								<g>
									<path class="st2" d="M252.2,20.7c0,0.1-2.1,0.2-4.8,0.2c-2.6,0-4.8-0.1-4.8-0.2c0-0.1,2.1-0.2,4.8-0.2
										C250.1,20.5,252.2,20.6,252.2,20.7z"/>
								</g>
							</g>
						</g>
					</g>
				</g>
				<g>
					<g>
						<g>
							<g>
								<g>
									<path class="st2" d="M252.2,19.3c0,0.1-2.1,0.2-4.8,0.2c-2.6,0-4.8-0.1-4.8-0.2c0-0.1,2.1-0.2,4.8-0.2
										C250.1,19.2,252.2,19.2,252.2,19.3z"/>
								</g>
							</g>
						</g>
					</g>
				</g>
				<g>
					<g>
						<g>
							<g>
								<g>
									<path class="st2" d="M252.2,41.7c0,0.1-2.1,0.2-4.8,0.2c-2.6,0-4.8-0.1-4.8-0.2c0-0.1,2.1-0.2,4.8-0.2
										C250.1,41.6,252.2,41.7,252.2,41.7z"/>
								</g>
							</g>
						</g>
					</g>
				</g>
				<g>
					<g>
						<g>
							<g>
								<g>
									<path class="st2" d="M252.2,40.4c0,0.1-2.1,0.2-4.8,0.2c-2.6,0-4.8-0.1-4.8-0.2c0-0.1,2.1-0.2,4.8-0.2
										C250.1,40.2,252.2,40.3,252.2,40.4z"/>
								</g>
							</g>
						</g>
					</g>
				</g>
				<g>
					<g>
						<g>
							<g>
								<g>
									<path class="st2" d="M247.6,37.5c-0.1,0-0.2-3.2-0.2-7.2c0-4,0.1-7.2,0.2-7.2c0.1,0,0.2,3.2,0.2,7.2
										C247.8,34.2,247.7,37.5,247.6,37.5z"/>
								</g>
							</g>
						</g>
					</g>
				</g>
			</g>
			<g>
				<g>
					<g>
						<g>
							<g>
								<rect x="252.3" y="22.4" class="st4" width="10.4" height="24.2"/>
							</g>
						</g>
					</g>
				</g>
			</g>
			<g>
				<g>
					<g>
						<g>
							<path class="st2" d="M241.3,13.9c0,0.9-0.8,1.7-1.8,1.7c-1,0-1.8-0.7-1.8-1.7c0-0.9,0.8-1.7,1.8-1.7
								C240.5,12.2,241.3,13,241.3,13.9z"/>
						</g>
					</g>
				</g>
			</g>
			<g>
				<g>
					<g>
						<g>
							<rect x="239" y="18.5" class="st2" width="1.1" height="23.5"/>
						</g>
					</g>
				</g>
			</g>
		</g>
		<g>
			<rect x="80.5" y="25.5" class="st5" width="69.7" height="65.9"/>
			<g>
				<g>
					<g>
						<g>
							<path class="st2" d="M92.9,87.3c-0.1,0-0.1-12.8-0.1-28.6c0-15.8,0-28.6,0.1-28.6c0.1,0,0.1,12.8,0.1,28.6
								C93,74.5,92.9,87.3,92.9,87.3z"/>
						</g>
					</g>
				</g>
				<g>
					<g>
						<g>
							<path class="st2" d="M90.8,35.1c0,0-0.7,0.1-1.7,0.1c-0.9,0-1.7,0-1.7-0.1c0,0,0.7-0.1,1.7-0.1C90.1,35,90.8,35,90.8,35.1z"
								/>
						</g>
					</g>
				</g>
				<g>
					<g>
						<g>
							<path class="st2" d="M90.9,32c0,0-0.7,0.1-1.7,0.1c-0.9,0-1.7,0-1.7-0.1c0,0,0.7-0.1,1.7-0.1C90.2,31.9,90.9,32,90.9,32z"/>
						</g>
					</g>
				</g>
				<g>
					<g>
						<g>
							<path class="st2" d="M90.8,38.4c0,0-0.7,0.1-1.7,0.1c-0.9,0-1.7,0-1.7-0.1c0,0,0.7-0.1,1.7-0.1
								C90.1,38.3,90.8,38.3,90.8,38.4z"/>
						</g>
					</g>
				</g>
				<g>
					<g>
						<g>
							<path class="st2" d="M90.8,41.7c0,0-0.7,0.1-1.7,0.1c-0.9,0-1.7,0-1.7-0.1c0,0,0.7-0.1,1.7-0.1
								C90.1,41.6,90.8,41.6,90.8,41.7z"/>
						</g>
					</g>
				</g>
				<g>
					<g>
						<g>
							<path class="st2" d="M90.8,45c0,0-0.7,0.1-1.7,0.1c-0.9,0-1.7,0-1.7-0.1s0.7-0.1,1.7-0.1C90.1,44.9,90.8,45,90.8,45z"/>
						</g>
					</g>
				</g>
				<g>
					<g>
						<g>
							<path class="st2" d="M90.8,48.3c0,0-0.7,0.1-1.7,0.1c-0.9,0-1.7,0-1.7-0.1s0.7-0.1,1.7-0.1C90.1,48.2,90.8,48.3,90.8,48.3z"
								/>
						</g>
					</g>
				</g>
				<g>
					<g>
						<g>
							<path class="st2" d="M90.8,51.6c0,0-0.7,0.1-1.7,0.1c-0.9,0-1.7,0-1.7-0.1c0,0,0.7-0.1,1.7-0.1
								C90.1,51.5,90.8,51.6,90.8,51.6z"/>
						</g>
					</g>
				</g>
				<g>
					<g>
						<g>
							<path class="st2" d="M90.8,54.9c0,0-0.7,0.1-1.7,0.1c-0.9,0-1.7,0-1.7-0.1c0,0,0.7-0.1,1.7-0.1
								C90.1,54.8,90.8,54.9,90.8,54.9z"/>
						</g>
					</g>
				</g>
				<g>
					<g>
						<g>
							<path class="st2" d="M90.8,58.2c0,0-0.7,0.1-1.7,0.1c-0.9,0-1.7,0-1.7-0.1c0,0,0.7-0.1,1.7-0.1
								C90.1,58.2,90.8,58.2,90.8,58.2z"/>
						</g>
					</g>
				</g>
				<g>
					<g>
						<g>
							<path class="st2" d="M90.8,61.6c0,0-0.7,0.1-1.7,0.1c-0.9,0-1.7,0-1.7-0.1c0,0,0.7-0.1,1.7-0.1
								C90.1,61.5,90.8,61.5,90.8,61.6z"/>
						</g>
					</g>
				</g>
				<g>
					<g>
						<g>
							<path class="st2" d="M90.8,64.9c0,0-0.7,0.1-1.7,0.1c-0.9,0-1.7,0-1.7-0.1s0.7-0.1,1.7-0.1C90.1,64.8,90.8,64.8,90.8,64.9z"
								/>
						</g>
					</g>
				</g>
				<g>
					<g>
						<g>
							<path class="st2" d="M90.8,68.2c0,0-0.7,0.1-1.7,0.1c-0.9,0-1.7,0-1.7-0.1s0.7-0.1,1.7-0.1C90.1,68.1,90.8,68.1,90.8,68.2z"
								/>
						</g>
					</g>
				</g>
				<g>
					<g>
						<g>
							<path class="st2" d="M90.8,71.5c0,0-0.7,0.1-1.7,0.1c-0.9,0-1.7,0-1.7-0.1c0,0,0.7-0.1,1.7-0.1
								C90.1,71.4,90.8,71.4,90.8,71.5z"/>
						</g>
					</g>
				</g>
				<g>
					<g>
						<g>
							<path class="st2" d="M90.8,74.8c0,0-0.7,0.1-1.7,0.1c-0.9,0-1.7,0-1.7-0.1c0,0,0.7-0.1,1.7-0.1
								C90.1,74.7,90.8,74.7,90.8,74.8z"/>
						</g>
					</g>
				</g>
				<g>
					<g>
						<g>
							<path class="st2" d="M90.8,78.1c0,0-0.7,0.1-1.7,0.1c-0.9,0-1.7,0-1.7-0.1s0.7-0.1,1.7-0.1C90.1,78,90.8,78.1,90.8,78.1z"/>
						</g>
					</g>
				</g>
				<g>
					<g>
						<g>
							<path class="st2" d="M90.8,81.4c0,0-0.7,0.1-1.7,0.1c-0.9,0-1.7,0-1.7-0.1c0,0,0.7-0.1,1.7-0.1
								C90.1,81.3,90.8,81.4,90.8,81.4z"/>
						</g>
					</g>
				</g>
				<g>
					<g>
						<g>
							<path class="st2" d="M104.1,34.9c0,0-1.9,0.1-4.3,0.1c-2.4,0-4.3,0-4.3-0.1s1.9-0.1,4.3-0.1
								C102.2,34.8,104.1,34.8,104.1,34.9z"/>
						</g>
					</g>
				</g>
				<g>
					<g>
						<g>
							<path class="st2" d="M104.1,81.4c0,0-1.9,0-4.3,0c-2.4,0-4.3,0-4.3,0c0,0,1.9,0,4.3,0C102.2,81.3,104.1,81.3,104.1,81.4z"/>
						</g>
					</g>
				</g>
				<g>
					<g>
						<g>
							<path class="st2" d="M116,41.7c0,0-3.6,0.1-8,0.1c-4.4,0-8,0-8-0.1c0,0,3.6-0.1,8-0.1C112.4,41.6,116,41.6,116,41.7z"/>
						</g>
					</g>
				</g>
				<g>
					<g>
						<g>
							<path class="st2" d="M134.6,41.7c0,0-3.6,0.1-8,0.1c-4.4,0-8,0-8-0.1c0,0,3.6-0.1,8-0.1C131,41.6,134.6,41.6,134.6,41.7z"/>
						</g>
					</g>
				</g>
				<g>
					<g>
						<g>
							<path class="st2" d="M127.5,45c0,0-5.3,0.1-11.8,0.1c-6.5,0-11.8,0-11.8-0.1s5.3-0.1,11.8-0.1C122.2,44.9,127.5,45,127.5,45z
								"/>
						</g>
					</g>
				</g>
				<g>
					<g>
						<g>
							<path class="st2" d="M127.5,48.3c0,0-5.3,0.1-11.8,0.1c-6.5,0-11.8,0-11.8-0.1s5.3-0.1,11.8-0.1
								C122.2,48.2,127.5,48.3,127.5,48.3z"/>
						</g>
					</g>
				</g>
				<g>
					<g>
						<g>
							<path class="st2" d="M143.8,58.2c0,0-5.3,0.1-11.8,0.1c-6.5,0-11.8,0-11.8-0.1c0,0,5.3-0.1,11.8-0.1
								C138.5,58.2,143.8,58.2,143.8,58.2z"/>
						</g>
					</g>
				</g>
				<g>
					<g>
						<g>
							<path class="st2" d="M136.8,51.6c0,0-5.3,0.1-11.8,0.1c-6.5,0-11.8,0-11.8-0.1c0,0,5.3-0.1,11.8-0.1
								C131.5,51.5,136.8,51.6,136.8,51.6z"/>
						</g>
					</g>
				</g>
				<g>
					<g>
						<g>
							<path class="st2" d="M104.1,38.4c0,0-1.9,0.1-4.3,0.1c-2.4,0-4.3,0-4.3-0.1c0,0,1.9-0.1,4.3-0.1
								C102.2,38.3,104.1,38.3,104.1,38.4z"/>
						</g>
					</g>
				</g>
				<g>
					<g>
						<g>
							<path class="st2" d="M104.1,78.1c0,0-1.9,0.1-4.3,0.1c-2.4,0-4.3,0-4.3-0.1s1.9-0.1,4.3-0.1C102.2,78,104.1,78.1,104.1,78.1z
								"/>
						</g>
					</g>
				</g>
				<g>
					<g>
						<g>
							<path class="st2" d="M108.3,51.6c0,0-1.9,0.1-4.3,0.1c-2.4,0-4.3,0-4.3-0.1c0,0,1.9-0.1,4.3-0.1
								C106.4,51.5,108.3,51.6,108.3,51.6z"/>
						</g>
					</g>
				</g>
				<g>
					<g>
						<g>
							<path class="st2" d="M116,64.8c0,0-3.6,0.1-8,0.1c-4.4,0-8,0-8-0.1c0,0,3.6-0.1,8-0.1C112.4,64.8,116,64.8,116,64.8z"/>
						</g>
					</g>
				</g>
				<g>
					<g>
						<g>
							<path class="st2" d="M134.6,64.8c0,0-3.6,0.1-8,0.1c-4.4,0-8,0-8-0.1c0,0,3.6-0.1,8-0.1C131,64.8,134.6,64.8,134.6,64.8z"/>
						</g>
					</g>
				</g>
				<g>
					<g>
						<g>
							<path class="st2" d="M127.5,68.2c0,0-5.3,0.1-11.8,0.1c-6.5,0-11.8,0-11.8-0.1c0,0,5.3-0.1,11.8-0.1
								C122.2,68.1,127.5,68.1,127.5,68.2z"/>
						</g>
					</g>
				</g>
				<g>
					<g>
						<g>
							<path class="st2" d="M127.5,71.5c0,0-5.3,0.1-11.8,0.1c-6.5,0-11.8,0-11.8-0.1s5.3-0.1,11.8-0.1
								C122.2,71.4,127.5,71.4,127.5,71.5z"/>
						</g>
					</g>
				</g>
				<g>
					<g>
						<g>
							<path class="st2" d="M136.8,74.8c0,0-5.3,0.1-11.8,0.1c-6.5,0-11.8,0-11.8-0.1c0,0,5.3-0.1,11.8-0.1
								C131.5,74.7,136.8,74.7,136.8,74.8z"/>
						</g>
					</g>
				</g>
				<g>
					<g>
						<g>
							<path class="st2" d="M108.3,74.8c0,0-1.9,0.1-4.3,0.1c-2.4,0-4.3,0-4.3-0.1c0,0,1.9-0.1,4.3-0.1
								C106.4,74.7,108.3,74.7,108.3,74.8z"/>
						</g>
					</g>
				</g>
				<g>
					<g>
						<g>
							<path class="st2" d="M90.8,84.9c0,0-0.7,0.1-1.7,0.1c-0.9,0-1.7,0-1.7-0.1c0,0,0.7-0.1,1.7-0.1
								C90.1,84.8,90.8,84.8,90.8,84.9z"/>
						</g>
					</g>
				</g>
				<g>
					<g>
						<g>
							<path class="st2" d="M90.8,91.5c0,0-0.7,0.1-1.7,0.1c-0.9,0-1.7,0-1.7-0.1c0,0,0.7-0.1,1.7-0.1
								C90.1,91.4,90.8,91.4,90.8,91.5z"/>
						</g>
					</g>
				</g>
				<g>
					<g>
						<g>
							<path class="st2" d="M127.5,84.9c0,0-5.3,0.1-11.8,0.1c-6.5,0-11.8,0-11.8-0.1s5.3-0.1,11.8-0.1
								C122.2,84.8,127.5,84.8,127.5,84.9z"/>
						</g>
					</g>
				</g>
			</g>
		</g>
		<g>
			<rect x="34.4" y="14.5" class="st5" width="37.1" height="35"/>
			<g>
				<g>
					<g>
						<g>
							<path class="st2" d="M41,47.4c0,0-0.1-6.8-0.1-15.2c0-8.4,0-15.2,0.1-15.2c0,0,0.1,6.8,0.1,15.2C41,40.6,41,47.4,41,47.4z"/>
						</g>
					</g>
				</g>
				<g>
					<g>
						<g>
							<path class="st2" d="M39.9,19.6c0,0-0.4,0-0.9,0c-0.5,0-0.9,0-0.9,0c0,0,0.4,0,0.9,0C39.5,19.5,39.9,19.6,39.9,19.6z"/>
						</g>
					</g>
				</g>
				<g>
					<g>
						<g>
							<path class="st2" d="M39.9,18c0,0-0.4,0-0.9,0c-0.5,0-0.9,0-0.9,0c0,0,0.4,0,0.9,0C39.6,17.9,39.9,17.9,39.9,18z"/>
						</g>
					</g>
				</g>
				<g>
					<g>
						<g>
							<path class="st2" d="M39.9,21.4c0,0-0.4,0-0.9,0c-0.5,0-0.9,0-0.9,0c0,0,0.4,0,0.9,0C39.5,21.3,39.9,21.3,39.9,21.4z"/>
						</g>
					</g>
				</g>
				<g>
					<g>
						<g>
							<path class="st2" d="M39.9,23.1c0,0-0.4,0-0.9,0c-0.5,0-0.9,0-0.9,0c0,0,0.4,0,0.9,0C39.5,23.1,39.9,23.1,39.9,23.1z"/>
						</g>
					</g>
				</g>
				<g>
					<g>
						<g>
							<path class="st2" d="M39.9,24.9c0,0-0.4,0-0.9,0c-0.5,0-0.9,0-0.9,0c0,0,0.4,0,0.9,0C39.5,24.8,39.9,24.8,39.9,24.9z"/>
						</g>
					</g>
				</g>
				<g>
					<g>
						<g>
							<path class="st2" d="M39.9,26.6c0,0-0.4,0-0.9,0c-0.5,0-0.9,0-0.9,0c0,0,0.4,0,0.9,0C39.5,26.6,39.9,26.6,39.9,26.6z"/>
						</g>
					</g>
				</g>
				<g>
					<g>
						<g>
							<path class="st2" d="M39.9,28.4c0,0-0.4,0-0.9,0c-0.5,0-0.9,0-0.9,0c0,0,0.4,0,0.9,0C39.5,28.3,39.9,28.4,39.9,28.4z"/>
						</g>
					</g>
				</g>
				<g>
					<g>
						<g>
							<path class="st2" d="M39.9,30.2c0,0-0.4,0-0.9,0c-0.5,0-0.9,0-0.9,0c0,0,0.4,0,0.9,0C39.5,30.1,39.9,30.1,39.9,30.2z"/>
						</g>
					</g>
				</g>
				<g>
					<g>
						<g>
							<path class="st2" d="M39.9,31.9c0,0-0.4,0-0.9,0c-0.5,0-0.9,0-0.9,0c0,0,0.4,0,0.9,0C39.5,31.9,39.9,31.9,39.9,31.9z"/>
						</g>
					</g>
				</g>
				<g>
					<g>
						<g>
							<path class="st2" d="M39.9,33.7c0,0-0.4,0-0.9,0c-0.5,0-0.9,0-0.9,0c0,0,0.4,0,0.9,0C39.5,33.6,39.9,33.6,39.9,33.7z"/>
						</g>
					</g>
				</g>
				<g>
					<g>
						<g>
							<path class="st2" d="M39.9,35.4c0,0-0.4,0-0.9,0c-0.5,0-0.9,0-0.9,0c0,0,0.4,0,0.9,0C39.5,35.4,39.9,35.4,39.9,35.4z"/>
						</g>
					</g>
				</g>
				<g>
					<g>
						<g>
							<path class="st2" d="M39.9,37.2c0,0-0.4,0-0.9,0c-0.5,0-0.9,0-0.9,0c0,0,0.4,0,0.9,0C39.5,37.1,39.9,37.2,39.9,37.2z"/>
						</g>
					</g>
				</g>
				<g>
					<g>
						<g>
							<path class="st2" d="M39.9,39c0,0-0.4,0-0.9,0c-0.5,0-0.9,0-0.9,0c0,0,0.4,0,0.9,0C39.5,38.9,39.9,38.9,39.9,39z"/>
						</g>
					</g>
				</g>
				<g>
					<g>
						<g>
							<path class="st2" d="M39.9,40.7c0,0-0.4,0-0.9,0c-0.5,0-0.9,0-0.9,0c0,0,0.4,0,0.9,0C39.5,40.7,39.9,40.7,39.9,40.7z"/>
						</g>
					</g>
				</g>
				<g>
					<g>
						<g>
							<path class="st2" d="M39.9,42.5c0,0-0.4,0-0.9,0c-0.5,0-0.9,0-0.9,0c0,0,0.4,0,0.9,0C39.5,42.4,39.9,42.4,39.9,42.5z"/>
						</g>
					</g>
				</g>
				<g>
					<g>
						<g>
							<path class="st2" d="M39.9,44.2c0,0-0.4,0-0.9,0c-0.5,0-0.9,0-0.9,0c0,0,0.4,0,0.9,0C39.5,44.2,39.9,44.2,39.9,44.2z"/>
						</g>
					</g>
				</g>
				<g>
					<g>
						<g>
							<path class="st2" d="M46.9,19.5c0,0-1,0-2.3,0c-1.3,0-2.3,0-2.3,0c0,0,1,0,2.3,0C45.9,19.4,46.9,19.5,46.9,19.5z"/>
						</g>
					</g>
				</g>
				<g>
					<g>
						<g>
							<path class="st2" d="M46.9,44.2c0,0-1,0-2.3,0c-1.3,0-2.3,0-2.3,0c0,0,1,0,2.3,0C45.9,44.2,46.9,44.2,46.9,44.2z"/>
						</g>
					</g>
				</g>
				<g>
					<g>
						<g>
							<path class="st2" d="M53.3,23.1c0,0-1.9,0-4.3,0c-2.4,0-4.3,0-4.3,0c0,0,1.9,0,4.3,0C51.4,23.1,53.3,23.1,53.3,23.1z"/>
						</g>
					</g>
				</g>
				<g>
					<g>
						<g>
							<path class="st2" d="M63.2,23.1c0,0-1.9,0-4.3,0c-2.4,0-4.3,0-4.3,0c0,0,1.9,0,4.3,0C61.2,23.1,63.2,23.1,63.2,23.1z"/>
						</g>
					</g>
				</g>
				<g>
					<g>
						<g>
							<path class="st2" d="M59.4,24.9c0,0-2.8,0-6.3,0c-3.5,0-6.3,0-6.3,0c0,0,2.8,0,6.3,0C56.6,24.8,59.4,24.8,59.4,24.9z"/>
						</g>
					</g>
				</g>
				<g>
					<g>
						<g>
							<path class="st2" d="M59.4,26.6c0,0-2.8,0-6.3,0c-3.5,0-6.3,0-6.3,0c0,0,2.8,0,6.3,0C56.6,26.6,59.4,26.6,59.4,26.6z"/>
						</g>
					</g>
				</g>
				<g>
					<g>
						<g>
							<path class="st2" d="M68,31.9c0,0-2.8,0-6.3,0c-3.5,0-6.3,0-6.3,0c0,0,2.8,0,6.3,0C65.2,31.9,68,31.9,68,31.9z"/>
						</g>
					</g>
				</g>
				<g>
					<g>
						<g>
							<path class="st2" d="M64.3,28.4c0,0-2.8,0-6.3,0c-3.5,0-6.3,0-6.3,0c0,0,2.8,0,6.3,0C61.5,28.3,64.3,28.4,64.3,28.4z"/>
						</g>
					</g>
				</g>
				<g>
					<g>
						<g>
							<path class="st2" d="M46.9,21.4c0,0-1,0-2.3,0c-1.3,0-2.3,0-2.3,0c0,0,1,0,2.3,0C45.9,21.3,46.9,21.3,46.9,21.4z"/>
						</g>
					</g>
				</g>
				<g>
					<g>
						<g>
							<path class="st2" d="M46.9,42.5c0,0-1,0-2.3,0c-1.3,0-2.3,0-2.3,0c0,0,1,0,2.3,0C45.9,42.4,46.9,42.4,46.9,42.5z"/>
						</g>
					</g>
				</g>
				<g>
					<g>
						<g>
							<path class="st2" d="M49.2,28.4c0,0-1,0-2.3,0c-1.3,0-2.3,0-2.3,0c0,0,1,0,2.3,0C48.2,28.3,49.2,28.4,49.2,28.4z"/>
						</g>
					</g>
				</g>
				<g>
					<g>
						<g>
							<path class="st2" d="M53.3,35.4c0,0-1.9,0-4.3,0c-2.4,0-4.3,0-4.3,0c0,0,1.9,0,4.3,0C51.4,35.4,53.3,35.4,53.3,35.4z"/>
						</g>
					</g>
				</g>
				<g>
					<g>
						<g>
							<path class="st2" d="M63.2,35.4c0,0-1.9,0-4.3,0c-2.4,0-4.3,0-4.3,0c0,0,1.9,0,4.3,0C61.2,35.4,63.2,35.4,63.2,35.4z"/>
						</g>
					</g>
				</g>
				<g>
					<g>
						<g>
							<path class="st2" d="M59.4,37.2c0,0-2.8,0-6.3,0c-3.5,0-6.3,0-6.3,0c0,0,2.8,0,6.3,0C56.6,37.1,59.4,37.2,59.4,37.2z"/>
						</g>
					</g>
				</g>
				<g>
					<g>
						<g>
							<path class="st2" d="M59.4,38.9c0,0-2.8,0-6.3,0c-3.5,0-6.3,0-6.3,0s2.8,0,6.3,0C56.6,38.9,59.4,38.9,59.4,38.9z"/>
						</g>
					</g>
				</g>
				<g>
					<g>
						<g>
							<path class="st2" d="M64.3,40.7c0,0-2.8,0-6.3,0c-3.5,0-6.3,0-6.3,0c0,0,2.8,0,6.3,0C61.5,40.7,64.3,40.7,64.3,40.7z"/>
						</g>
					</g>
				</g>
				<g>
					<g>
						<g>
							<path class="st2" d="M49.2,40.7c0,0-1,0-2.3,0c-1.3,0-2.3,0-2.3,0c0,0,1,0,2.3,0C48.2,40.7,49.2,40.7,49.2,40.7z"/>
						</g>
					</g>
				</g>
				<g>
					<g>
						<g>
							<path class="st2" d="M39.9,46.1c0,0-0.4,0-0.9,0c-0.5,0-0.9,0-0.9,0c0,0,0.4,0,0.9,0C39.5,46,39.9,46,39.9,46.1z"/>
						</g>
					</g>
				</g>
				<g>
					<g>
						<g>
							<path class="st2" d="M39.9,49.6c0,0-0.4,0-0.9,0c-0.5,0-0.9,0-0.9,0c0,0,0.4,0,0.9,0C39.5,49.5,39.9,49.6,39.9,49.6z"/>
						</g>
					</g>
				</g>
				<g>
					<g>
						<g>
							<path class="st2" d="M59.4,46.1c0,0-2.8,0-6.3,0c-3.5,0-6.3,0-6.3,0s2.8,0,6.3,0C56.6,46,59.4,46,59.4,46.1z"/>
						</g>
					</g>
				</g>
			</g>
		</g>
		<g>
			<polygon class="st3" points="122.9,57.9 37.4,57.9 37.4,138.7 93.8,138.7 108.9,151.4 109.3,138.7 122.9,138.7 			"/>
			<g>
				<g>
					<g>
						<g>
							<path class="st6" d="M51.4,129.6c-0.1,0-0.1-14.2-0.1-31.8c0-17.5,0-31.8,0.1-31.8c0.1,0,0.1,14.2,0.1,31.8
								C51.5,115.4,51.5,129.6,51.4,129.6z"/>
						</g>
					</g>
				</g>
				<g>
					<g>
						<g>
							<path class="st6" d="M49.4,71c0,0-0.7,0.1-1.7,0.1c-0.9,0-1.7,0-1.7-0.1c0,0,0.7-0.1,1.7-0.1C48.6,70.9,49.4,71,49.4,71z"/>
						</g>
					</g>
				</g>
				<g>
					<g>
						<g>
							<path class="st6" d="M49.5,68c0,0-0.7,0.1-1.7,0.1c-0.9,0-1.7,0-1.7-0.1c0,0,0.7-0.1,1.7-0.1C48.8,67.9,49.5,67.9,49.5,68z"
								/>
						</g>
					</g>
				</g>
				<g>
					<g>
						<g>
							<path class="st6" d="M49.4,74.3c0,0-0.7,0.1-1.7,0.1c-0.9,0-1.7,0-1.7-0.1c0,0,0.7-0.1,1.7-0.1
								C48.6,74.3,49.4,74.3,49.4,74.3z"/>
						</g>
					</g>
				</g>
				<g>
					<g>
						<g>
							<path class="st6" d="M49.4,77.7c0,0-0.7,0.1-1.7,0.1c-0.9,0-1.7,0-1.7-0.1c0,0,0.7-0.1,1.7-0.1
								C48.6,77.6,49.4,77.6,49.4,77.7z"/>
						</g>
					</g>
				</g>
				<g>
					<g>
						<g>
							<path class="st6" d="M49.4,81c0,0-0.7,0.1-1.7,0.1c-0.9,0-1.7,0-1.7-0.1c0,0,0.7-0.1,1.7-0.1C48.6,80.9,49.4,80.9,49.4,81z"
								/>
						</g>
					</g>
				</g>
				<g>
					<g>
						<g>
							<path class="st6" d="M49.4,84.3c0,0-0.7,0.1-1.7,0.1c-0.9,0-1.7,0-1.7-0.1s0.7-0.1,1.7-0.1C48.6,84.2,49.4,84.2,49.4,84.3z"
								/>
						</g>
					</g>
				</g>
				<g>
					<g>
						<g>
							<path class="st6" d="M49.4,87.6c0,0-0.7,0.1-1.7,0.1c-0.9,0-1.7,0-1.7-0.1c0,0,0.7-0.1,1.7-0.1
								C48.6,87.5,49.4,87.5,49.4,87.6z"/>
						</g>
					</g>
				</g>
				<g>
					<g>
						<g>
							<path class="st6" d="M49.4,90.9c0,0-0.7,0.1-1.7,0.1c-0.9,0-1.7,0-1.7-0.1c0,0,0.7-0.1,1.7-0.1
								C48.6,90.8,49.4,90.8,49.4,90.9z"/>
						</g>
					</g>
				</g>
				<g>
					<g>
						<g>
							<path class="st6" d="M49.4,94.2c0,0-0.7,0.1-1.7,0.1c-0.9,0-1.7,0-1.7-0.1c0,0,0.7-0.1,1.7-0.1
								C48.6,94.1,49.4,94.2,49.4,94.2z"/>
						</g>
					</g>
				</g>
				<g>
					<g>
						<g>
							<path class="st6" d="M49.4,97.5c0,0-0.7,0.1-1.7,0.1c-0.9,0-1.7,0-1.7-0.1c0,0,0.7-0.1,1.7-0.1
								C48.6,97.4,49.4,97.5,49.4,97.5z"/>
						</g>
					</g>
				</g>
				<g>
					<g>
						<g>
							<path class="st6" d="M49.4,100.8c0,0-0.7,0.1-1.7,0.1c-0.9,0-1.7,0-1.7-0.1s0.7-0.1,1.7-0.1
								C48.6,100.7,49.4,100.8,49.4,100.8z"/>
						</g>
					</g>
				</g>
				<g>
					<g>
						<g>
							<path class="st6" d="M49.4,104.1c0,0-0.7,0.1-1.7,0.1c-0.9,0-1.7,0-1.7-0.1s0.7-0.1,1.7-0.1C48.6,104,49.4,104.1,49.4,104.1z
								"/>
						</g>
					</g>
				</g>
				<g>
					<g>
						<g>
							<path class="st6" d="M49.4,107.4c0,0-0.7,0.1-1.7,0.1c-0.9,0-1.7,0-1.7-0.1c0,0,0.7-0.1,1.7-0.1
								C48.6,107.4,49.4,107.4,49.4,107.4z"/>
						</g>
					</g>
				</g>
				<g>
					<g>
						<g>
							<path class="st6" d="M49.4,110.8c0,0-0.7,0.1-1.7,0.1c-0.9,0-1.7,0-1.7-0.1c0,0,0.7-0.1,1.7-0.1
								C48.6,110.7,49.4,110.7,49.4,110.8z"/>
						</g>
					</g>
				</g>
				<g>
					<g>
						<g>
							<path class="st6" d="M49.4,114.1c0,0-0.7,0.1-1.7,0.1c-0.9,0-1.7,0-1.7-0.1s0.7-0.1,1.7-0.1C48.6,114,49.4,114,49.4,114.1z"
								/>
						</g>
					</g>
				</g>
				<g>
					<g>
						<g>
							<path class="st6" d="M49.4,117.4c0,0-0.7,0.1-1.7,0.1c-0.9,0-1.7,0-1.7-0.1c0,0,0.7-0.1,1.7-0.1
								C48.6,117.3,49.4,117.3,49.4,117.4z"/>
						</g>
					</g>
				</g>
				<g>
					<g>
						<g>
							<path class="st6" d="M62.6,70.8c0,0-1.9,0.1-4.3,0.1c-2.4,0-4.3,0-4.3-0.1s1.9-0.1,4.3-0.1C60.7,70.7,62.6,70.8,62.6,70.8z"
								/>
						</g>
					</g>
				</g>
				<g>
					<g>
						<g>
							<path class="st6" d="M62.6,117.3c0,0-1.9,0-4.3,0c-2.4,0-4.3,0-4.3,0s1.9,0,4.3,0C60.7,117.3,62.6,117.3,62.6,117.3z"/>
						</g>
					</g>
				</g>
				<g>
					<g>
						<g>
							<path class="st7" d="M74.6,77.7c0,0-3.6,0.1-8,0.1c-4.4,0-8,0-8-0.1c0,0,3.6-0.1,8-0.1C71,77.6,74.6,77.6,74.6,77.7z"/>
						</g>
					</g>
				</g>
				<g>
					<g>
						<g>
							<path class="st6" d="M93.2,77.7c0,0-3.6,0.1-8,0.1c-4.4,0-8,0-8-0.1c0,0,3.6-0.1,8-0.1C89.6,77.6,93.2,77.6,93.2,77.7z"/>
						</g>
					</g>
				</g>
				<g>
					<g>
						<g>
							<path class="st6" d="M86.1,81c0,0-5.3,0.1-11.8,0.1c-6.5,0-11.8,0-11.8-0.1c0,0,5.3-0.1,11.8-0.1
								C80.8,80.9,86.1,80.9,86.1,81z"/>
						</g>
					</g>
				</g>
				<g>
					<g>
						<g>
							<path class="st7" d="M86.1,84.3c0,0-5.3,0.1-11.8,0.1c-6.5,0-11.8,0-11.8-0.1s5.3-0.1,11.8-0.1
								C80.8,84.2,86.1,84.2,86.1,84.3z"/>
						</g>
					</g>
				</g>
				<g>
					<g>
						<g>
							<path class="st7" d="M102.4,94.2c0,0-5.3,0.1-11.8,0.1c-6.5,0-11.8,0-11.8-0.1c0,0,5.3-0.1,11.8-0.1
								C97.1,94.1,102.4,94.2,102.4,94.2z"/>
						</g>
					</g>
				</g>
				<g>
					<g>
						<g>
							<path class="st6" d="M95.3,87.6c0,0-5.3,0.1-11.8,0.1c-6.5,0-11.8,0-11.8-0.1c0,0,5.3-0.1,11.8-0.1
								C90,87.5,95.3,87.5,95.3,87.6z"/>
						</g>
					</g>
				</g>
				<g>
					<g>
						<g>
							<path class="st6" d="M114.2,81c0,0-5.3,0.1-11.8,0.1c-6.5,0-11.8,0-11.8-0.1c0,0,5.3-0.1,11.8-0.1
								C108.9,80.9,114.2,80.9,114.2,81z"/>
						</g>
					</g>
				</g>
				<g>
					<g>
						<g>
							<path class="st7" d="M62.6,74.3c0,0-1.9,0.1-4.3,0.1c-2.4,0-4.3,0-4.3-0.1c0,0,1.9-0.1,4.3-0.1
								C60.7,74.3,62.6,74.3,62.6,74.3z"/>
						</g>
					</g>
				</g>
				<g>
					<g>
						<g>
							<path class="st6" d="M62.6,114.1c0,0-1.9,0.1-4.3,0.1c-2.4,0-4.3,0-4.3-0.1s1.9-0.1,4.3-0.1C60.7,114,62.6,114,62.6,114.1z"
								/>
						</g>
					</g>
				</g>
				<g>
					<g>
						<g>
							<path class="st6" d="M66.9,87.6c0,0-1.9,0.1-4.3,0.1c-2.4,0-4.3,0-4.3-0.1c0,0,1.9-0.1,4.3-0.1C65,87.5,66.9,87.5,66.9,87.6z
								"/>
						</g>
					</g>
				</g>
				<g>
					<g>
						<g>
							<path class="st7" d="M74.6,100.8c0,0-3.6,0.1-8,0.1c-4.4,0-8,0-8-0.1s3.6-0.1,8-0.1C71,100.7,74.6,100.8,74.6,100.8z"/>
						</g>
					</g>
				</g>
				<g>
					<g>
						<g>
							<path class="st6" d="M93.2,100.8c0,0-3.6,0.1-8,0.1c-4.4,0-8,0-8-0.1s3.6-0.1,8-0.1C89.6,100.7,93.2,100.8,93.2,100.8z"/>
						</g>
					</g>
				</g>
				<g>
					<g>
						<g>
							<path class="st6" d="M86.1,104.1c0,0-5.3,0.1-11.8,0.1c-6.5,0-11.8,0-11.8-0.1c0,0,5.3-0.1,11.8-0.1
								C80.8,104,86.1,104.1,86.1,104.1z"/>
						</g>
					</g>
				</g>
				<g>
					<g>
						<g>
							<path class="st7" d="M86.1,107.4c0,0-5.3,0.1-11.8,0.1c-6.5,0-11.8,0-11.8-0.1s5.3-0.1,11.8-0.1
								C80.8,107.3,86.1,107.4,86.1,107.4z"/>
						</g>
					</g>
				</g>
				<g>
					<g>
						<g>
							<path class="st6" d="M95.3,110.7c0,0-5.3,0.1-11.8,0.1c-6.5,0-11.8,0-11.8-0.1c0,0,5.3-0.1,11.8-0.1
								C90,110.6,95.3,110.7,95.3,110.7z"/>
						</g>
					</g>
				</g>
				<g>
					<g>
						<g>
							<path class="st6" d="M114.2,104.1c0,0-5.3,0.1-11.8,0.1c-6.5,0-11.8,0-11.8-0.1c0,0,5.3-0.1,11.8-0.1
								C108.9,104,114.2,104.1,114.2,104.1z"/>
						</g>
					</g>
				</g>
				<g>
					<g>
						<g>
							<path class="st6" d="M66.9,110.7c0,0-1.9,0.1-4.3,0.1c-2.4,0-4.3,0-4.3-0.1c0,0,1.9-0.1,4.3-0.1
								C65,110.6,66.9,110.7,66.9,110.7z"/>
						</g>
					</g>
				</g>
				<g>
					<g>
						<g>
							<path class="st6" d="M49.4,120.8c0,0-0.7,0.1-1.7,0.1c-0.9,0-1.7,0-1.7-0.1c0,0,0.7-0.1,1.7-0.1
								C48.6,120.7,49.4,120.8,49.4,120.8z"/>
						</g>
					</g>
				</g>
				<g>
					<g>
						<g>
							<path class="st6" d="M49.4,124.1c0,0-0.7,0.1-1.7,0.1c-0.9,0-1.7,0-1.7-0.1c0,0,0.7-0.1,1.7-0.1
								C48.6,124.1,49.4,124.1,49.4,124.1z"/>
						</g>
					</g>
				</g>
				<g>
					<g>
						<g>
							<path class="st6" d="M49.4,127.5c0,0-0.7,0.1-1.7,0.1c-0.9,0-1.7,0-1.7-0.1s0.7-0.1,1.7-0.1
								C48.6,127.4,49.4,127.4,49.4,127.5z"/>
						</g>
					</g>
				</g>
				<g>
					<g>
						<g>
							<path class="st7" d="M62.6,127.5c0,0-1.9,0.1-4.3,0.1c-2.4,0-4.3,0-4.3-0.1s1.9-0.1,4.3-0.1
								C60.7,127.4,62.6,127.4,62.6,127.5z"/>
						</g>
					</g>
				</g>
				<g>
					<g>
						<g>
							<path class="st7" d="M86.1,120.8c0,0-5.3,0.1-11.8,0.1c-6.5,0-11.8,0-11.8-0.1s5.3-0.1,11.8-0.1
								C80.8,120.7,86.1,120.8,86.1,120.8z"/>
						</g>
					</g>
				</g>
				<g>
					<g>
						<g>
							<path class="st6" d="M95.3,124.1c0,0-5.3,0.1-11.8,0.1c-6.5,0-11.8,0-11.8-0.1c0,0,5.3-0.1,11.8-0.1
								C90,124,95.3,124.1,95.3,124.1z"/>
						</g>
					</g>
				</g>
				<g>
					<g>
						<g>
							<path class="st6" d="M66.9,124.1c0,0-1.9,0.1-4.3,0.1c-2.4,0-4.3,0-4.3-0.1c0,0,1.9-0.1,4.3-0.1
								C65,124,66.9,124.1,66.9,124.1z"/>
						</g>
					</g>
				</g>
			</g>
			<rect x="37.4" y="57.9" class="st2" width="85.5" height="4.5"/>
			<g>
				<path class="st6" d="M122.9,57.9c0,0,0,0.5,0,1.5c0,1,0,2.4,0,4.3c0,3.8,0,9.3,0,16.3c0,14.1,0,34.3,0.1,58.7l0,0.1l-0.1,0
					c-4.3,0-8.9,0-13.6,0l0.1-0.1c-0.1,4-0.3,8.3-0.4,12.7l0,0.3l-0.2-0.2c-4.8-4-9.9-8.3-15.1-12.7l0.1,0c-14.9,0-30.8,0-47.3,0
					c-3.1,0-6.1,0-9.1,0h-0.1l0-0.1c0-29.7,0-57.3,0-80.8l0-0.1l0.1,0c25.7,0,47.1,0,62.1,0.1c7.5,0,13.3,0,17.3,0c2,0,3.5,0,4.5,0
					C122.3,57.9,122.9,57.9,122.9,57.9s-0.5,0-1.6,0c-1,0-2.6,0-4.6,0c-4,0-9.9,0-17.3,0c-14.9,0-36.3,0-62,0.1l0.1-0.1
					c0,23.5,0,51.1,0,80.8l-0.1-0.1c3,0,6.1,0,9.1,0c16.5,0,32.4,0,47.3,0h0.1l0,0c5.2,4.4,10.3,8.7,15,12.7l-0.2,0.1
					c0.1-4.4,0.3-8.7,0.4-12.7l0-0.1l0.1,0c4.7,0,9.3,0,13.6,0l-0.1,0.1c0-24.4,0-44.5,0.1-58.6c0-7.1,0-12.6,0-16.3
					c0-1.9,0-3.3,0-4.3C122.9,58.4,122.9,57.9,122.9,57.9z"/>
			</g>
			<path class="st6" d="M40.7,60.3c0,0.4-0.3,0.7-0.7,0.7c-0.4,0-0.7-0.3-0.7-0.7s0.3-0.7,0.7-0.7C40.4,59.6,40.7,59.9,40.7,60.3z"
				/>
			<path class="st6" d="M42.7,60.3c0,0.4-0.3,0.7-0.7,0.7c-0.4,0-0.7-0.3-0.7-0.7s0.3-0.7,0.7-0.7C42.4,59.6,42.7,59.9,42.7,60.3z"
				/>
			<path class="st6" d="M44.6,60.3c0,0.4-0.3,0.7-0.7,0.7c-0.4,0-0.7-0.3-0.7-0.7s0.3-0.7,0.7-0.7C44.3,59.6,44.6,59.9,44.6,60.3z"
				/>
			<g>
				<path class="st6" d="M122.9,57.9c0,0,0,0.5,0,1.5c0,1,0,2.4,0,4.3c0,3.8,0,9.3,0,16.3c0,14.1,0,34.3,0.1,58.7l0,0.1l-0.1,0
					c-4.3,0-8.9,0-13.6,0l0.1-0.1c-0.1,4-0.3,8.3-0.4,12.7l0,0.3l-0.2-0.2c-4.8-4-9.9-8.3-15.1-12.7l0.1,0c-14.9,0-30.8,0-47.3,0
					c-3.1,0-6.1,0-9.1,0h-0.1l0-0.1c0-29.7,0-57.3,0-80.8l0-0.1l0.1,0c25.7,0,47.1,0,62.1,0.1c7.5,0,13.3,0,17.3,0c2,0,3.5,0,4.5,0
					C122.3,57.9,122.9,57.9,122.9,57.9s-0.5,0-1.6,0c-1,0-2.6,0-4.6,0c-4,0-9.9,0-17.3,0c-14.9,0-36.3,0-62,0.1l0.1-0.1
					c0,23.5,0,51.1,0,80.8l-0.1-0.1c3,0,6.1,0,9.1,0c16.5,0,32.4,0,47.3,0h0.1l0,0c5.2,4.4,10.3,8.7,15,12.7l-0.2,0.1
					c0.1-4.4,0.3-8.7,0.4-12.7l0-0.1l0.1,0c4.7,0,9.3,0,13.6,0l-0.1,0.1c0-24.4,0-44.5,0.1-58.6c0-7.1,0-12.6,0-16.3
					c0-1.9,0-3.3,0-4.3C122.9,58.4,122.9,57.9,122.9,57.9z"/>
			</g>
		</g>
		<g>
			<polygon class="st8" points="105.5,195.3 109.4,220.6 123.4,220.6 126.9,195.3 			"/>
			<path class="st8" d="M104,195.3c0.1-1.7,0.5-3.2,1.9-4.2h21c1.2,0.8,1.5,2.4,1.7,4.2H104z"/>
			<polygon class="st8" points="107.2,191 109,188.6 123.6,188.6 125.1,191 			"/>
			<g>
				<path class="st6" d="M126.8,191c0,0.1-4.5,0.1-10.1,0.1c-5.6,0-10.1-0.1-10.1-0.1c0-0.1,4.5-0.1,10.1-0.1
					C122.3,190.8,126.8,190.9,126.8,191z"/>
			</g>
			<g>
				<path class="st6" d="M128.6,195.3c0,0.1-5.4,0.1-12.2,0.1c-6.7,0-12.2-0.1-12.2-0.1c0-0.1,5.4-0.1,12.2-0.1
					C123.1,195.1,128.6,195.2,128.6,195.3z"/>
			</g>
			<polygon class="st6" points="106.4,201 126.1,201 125,209.3 107.7,209.3 			"/>
		</g>
		<g>
			<g>
				<g>
					<g>
						<g>
							<g>
								<polygon class="st6" points="120.4,136.2 122.7,163.7 125.9,164.1 123.7,135.6 								"/>
							</g>
							<path class="st9" d="M116.4,137.8l9.8,2.2l8.7,7.8l-3.4,3.9l-7.8-8.3C123.6,143.4,115,141.4,116.4,137.8z"/>
							<path class="st9" d="M137,154C137,154,137.1,154,137,154l-2.2-6.2l-7.9-3.5c-0.4,0.3-0.7,0.8-1,1.2c-0.9-1.2-2.1-2.2-3.4-3
								l-1.6-0.9c-1.1-0.4-2.5,0-3.2,1c-0.7,0.9-0.6,2.3,0.2,3.2c-0.7,0.3-1.3,1-1.3,1.7c-0.1,0.8,0.3,1.5,1,1.9
								c-1.5,0.9-1.6,3.2-0.3,4.2c-0.6,0.5-0.8,1.3-0.6,2c0.2,0.7,0.7,1.3,1.2,1.9c0.9,0.9,1.9,1.8,3,2.5c0.4,0.2,0.8,0.5,1.2,0.6
								c0.5,0.1,0.9-0.2,1.2-0.5c0.3-0.4,0.6-0.7,0.5-1.2l4.8,3.3l4.3,8.5l10.9-6.3L137,154z"/>
							<g>
								<path class="st10" d="M129.8,156.2c0,0-0.1,0-0.2-0.1c-0.2-0.1-0.4-0.2-0.7-0.4c-0.5-0.4-1.2-1.1-1.8-2.1
									c-0.5-1-0.9-2.4-0.5-3.9c0.1-0.4,0.2-0.7,0.4-1.1c0.1-0.4,0.2-0.7,0-1.1c-0.2-0.3-0.6-0.5-1-0.7c-0.4-0.2-0.7-0.5-1-0.9
									c-0.3-0.3-0.6-0.7-0.8-1.1c-0.2-0.4-0.3-0.8-0.6-1.1c-0.2-0.3-0.5-0.6-0.9-0.7c-0.4-0.1-0.8-0.2-1.2-0.3
									c-1.5-0.4-2.9-0.9-3.9-1.6c-1-0.7-1.5-1.6-1.5-2.2c0-0.2,0-0.3,0-0.4c0-0.1,0.1-0.2,0.1-0.3c0-0.2,0.1-0.2,0.1-0.2
									c0,0,0,0.1,0,0.3c0,0.1,0,0.2,0,0.3c0,0.1,0,0.3,0,0.4c0,0.6,0.5,1.5,1.5,2.1c1,0.7,2.3,1.1,3.8,1.5
									c0.4,0.1,0.8,0.2,1.2,0.3c0.4,0.1,0.8,0.4,1,0.8c0.2,0.4,0.4,0.8,0.6,1.1c0.2,0.4,0.4,0.7,0.7,1c0.3,0.3,0.6,0.6,1,0.8
									c0.4,0.2,0.8,0.4,1.1,0.8c0.3,0.4,0.2,0.9,0.1,1.3c-0.1,0.4-0.3,0.7-0.4,1.1c-0.3,1.4,0,2.8,0.4,3.8c0.5,1,1.2,1.7,1.7,2.1
									C129.5,156,129.9,156.1,129.8,156.2z"/>
							</g>
							<g>
								<path class="st10" d="M124.9,145.8c0,0,0.1,0.1,0.4,0.4c0.2,0.3,0.5,0.7,0.8,1.2c0.1,0.3,0.3,0.6,0.2,1
									c-0.1,0.4-0.2,0.7-0.5,1.1c-0.2,0.3-0.6,0.7-1.1,0.8c-0.5,0.1-1-0.1-1.4-0.3c-1.8-0.8-3.1-1.8-4-2.7c-0.4-0.4-0.8-0.8-1-1.1
									c-0.2-0.3-0.3-0.4-0.3-0.4c0,0,0.5,0.5,1.4,1.3c0.9,0.8,2.3,1.8,4,2.5c0.4,0.2,0.9,0.3,1.3,0.3c0.4-0.1,0.7-0.4,0.9-0.7
									c0.2-0.3,0.4-0.6,0.4-1c0.1-0.3,0-0.6-0.2-0.9c-0.2-0.5-0.5-0.9-0.7-1.2C125,145.9,124.9,145.8,124.9,145.8z"/>
							</g>
							<g>
								<path class="st10" d="M123.6,149.8c0,0,0.2,0.1,0.5,0.3c0.3,0.2,0.8,0.6,1.3,1.1c0.2,0.3,0.4,0.6,0.6,1
									c0.1,0.4,0.2,0.9,0,1.4c-0.2,0.5-0.5,0.9-1,1.2c-0.5,0.2-1.2,0.2-1.7,0c-2.1-0.9-3.6-2.3-4.6-3.4c-0.5-0.5-0.8-1-1-1.3
									c-0.2-0.3-0.3-0.5-0.3-0.5c0,0,0.5,0.7,1.5,1.7c1,1,2.5,2.3,4.5,3.3c0.5,0.2,1,0.3,1.5,0.1c0.4-0.2,0.7-0.6,0.9-1
									c0.1-0.4,0.1-0.8,0-1.2c-0.1-0.4-0.3-0.7-0.5-1c-0.4-0.6-0.9-0.9-1.2-1.2C123.8,149.9,123.6,149.8,123.6,149.8z"/>
							</g>
							<g>
								<path class="st10" d="M125.2,154.3c0,0,0.1,0.1,0.3,0.4c0.2,0.3,0.4,0.7,0.5,1.2c0,0.3,0,0.6-0.1,0.9
									c-0.1,0.3-0.4,0.6-0.8,0.8c-0.4,0.2-0.8,0.1-1.3,0c-0.4-0.1-0.8-0.3-1.2-0.5c-1.6-0.7-3-1.6-3.9-2.3
									c-0.5-0.3-0.8-0.6-1.1-0.8c-0.2-0.2-0.4-0.3-0.4-0.3c0,0,0.6,0.4,1.5,1c0.9,0.6,2.3,1.4,3.9,2.2c0.4,0.2,0.8,0.4,1.2,0.4
									c0.4,0.1,0.8,0.1,1.1,0c0.3-0.1,0.6-0.4,0.7-0.6c0.1-0.3,0.2-0.6,0.2-0.8c0-0.5-0.3-0.9-0.4-1.2
									C125.3,154.4,125.2,154.3,125.2,154.3z"/>
							</g>
						</g>
						<g>
							<path class="st10" d="M123,157.1c0,0,0.2,0.2,0.4,0.6c0.1,0.2,0.2,0.4,0.3,0.7c0.1,0.3,0.2,0.7,0.1,1
								c-0.1,0.4-0.3,0.7-0.5,0.9c-0.3,0.2-0.6,0.3-0.8,0.3c-0.5,0-0.8-0.3-0.7-0.3c0,0,0.3,0.1,0.7,0.1c0.2,0,0.5-0.1,0.7-0.3
								c0.2-0.2,0.4-0.5,0.4-0.8c0.2-0.6-0.2-1.2-0.3-1.6C123,157.4,123,157.1,123,157.1z"/>
						</g>
					</g>
					<path class="st6" d="M125.6,160.6l-0.1-3.1c-0.8,0.3-1.5,0.3-2.3,0c0,0,0.5,1.2,0.3,2.3c-0.2,1.1-0.2,1.1-0.2,1.1L125.6,160.6z
						"/>
				</g>
				<g>
					<path class="st8" d="M112.7,121.6c-0.7-8.6,1.6-15.1,5.1-16.1c0.5-0.1,2.3-1,2.7-0.8c3.4,1,5.8,7.8,6.4,15.3
						c0.5,6.4,0.1,12.5-2.3,15.2c-0.8,0.9-2.6,1-3.6,1.1C117.2,136.7,113.4,130.2,112.7,121.6z"/>
					<path class="st11" d="M121.1,104.7c-4.2,0.9-6.8,8.2-6.2,16.4c0.8,9.6,4.5,15,8.5,14.6c0.5-0.1,1-0.4,1.4-0.6
						c2.3-2.7,2.8-8.8,2.3-15.2C126.5,112.3,124.4,105.7,121.1,104.7z"/>
					<path class="st6" d="M126.8,120.3c0.5,6.4-0.1,12.4-2.4,15.1c3.2-1.7,5.4-8.2,4.8-15.8c-0.7-8.6-4.6-15.4-8.6-14.9
						c-0.1,0-0.2,0.2-0.3,0.3C123.7,106,126.2,112.8,126.8,120.3z"/>
					<g>
						<path class="st6" d="M114.9,121c0,0,0,0.1,0,0.2c0,0.1,0,0.3,0.1,0.5c0.1,0.5,0.1,1.2,0.3,2.1c0.2,0.9,0.4,2,0.8,3.3
							c0.4,1.3,0.9,2.7,1.7,4.1c0.4,0.7,0.9,1.5,1.4,2.2c0.6,0.7,1.3,1.4,2.2,1.8c0.9,0.4,2,0.5,3,0c1-0.5,1.7-1.3,2.3-2.2
							c1.2-1.9,1.8-4.1,2.2-6.4c0.4-2.3,0.4-4.8,0.2-7.3c-0.2-2.5-0.7-4.9-1.4-7.2c-0.8-2.2-1.8-4.4-3.4-5.9
							c-0.8-0.8-1.8-1.4-2.8-1.4c-1.1-0.1-2.1,0.4-2.8,1c-0.7,0.7-1.3,1.5-1.7,2.2c-0.4,0.8-0.7,1.6-1,2.4c-1,3.2-1.1,5.9-1.2,7.7
							c0,0.9,0,1.6,0,2.1c0,0.2,0,0.4,0,0.6C114.9,121,114.9,121,114.9,121c0,0,0-0.1,0-0.2c0-0.1,0-0.3-0.1-0.6
							c0-0.5-0.1-1.2-0.1-2.1c0-1.8,0.1-4.5,1.1-7.7c0.2-0.8,0.6-1.6,1-2.4c0.4-0.8,1-1.6,1.7-2.3c0.7-0.7,1.8-1.2,2.9-1.1
							c1.1,0.1,2.2,0.7,3,1.5c1.6,1.6,2.7,3.8,3.4,6c0.8,2.3,1.2,4.7,1.4,7.2c0.2,2.5,0.1,5-0.3,7.4c-0.4,2.3-1,4.6-2.3,6.5
							c-0.6,0.9-1.4,1.8-2.4,2.3c-0.5,0.2-1.1,0.4-1.6,0.3c-0.6,0-1.1-0.2-1.6-0.4c-0.9-0.4-1.7-1.1-2.3-1.9
							c-0.6-0.7-1.1-1.5-1.4-2.2c-0.8-1.5-1.3-2.9-1.6-4.2c-0.4-1.3-0.6-2.4-0.7-3.3c-0.1-0.9-0.2-1.6-0.3-2.1c0-0.2,0-0.4,0-0.6
							C114.9,121.1,114.9,121,114.9,121z"/>
					</g>
					<g>
						<path class="st6" d="M123.3,118.9c0.1,0-0.6,2.4-1.4,5.3c-0.9,2.9-1.6,5.3-1.7,5.3c-0.1,0,0.6-2.4,1.4-5.3
							C122.5,121.2,123.3,118.9,123.3,118.9z"/>
					</g>
					<g>
						<path class="st6" d="M123.7,114.1c0.1,0-0.6,2.4-1.4,5.3c-0.9,2.9-1.6,5.3-1.7,5.3c-0.1,0,0.6-2.4,1.4-5.3
							C122.8,116.4,123.6,114.1,123.7,114.1z"/>
					</g>
				</g>
			</g>
			<g>
				<g>
					<path class="st6" d="M217.3,84.3l-50.9,8.4c0.2,0.8,0.3,1.5,0.5,2.2l-0.1-0.3c2.1,9,4.1,18.6,0.5,27.1c-1.2,2.8-3,5.5-3,8.6
						c0,1.4,0.4,2.8,0.5,4.2c0.1,1.4-0.3,3-1.4,3.9c-1.3,1-3.4,1.1-3.9,2.6c-0.3,1,0.4,2,1.1,2.8c2,2.1,4.5,3.9,7.2,5.1
						c0.4,1.8,1.1,3.6,2.4,5c3.3-1.5,6.6-2.9,9.9-4.4c-0.2-1-0.4-2-0.6-3c0.5,1.3,1.9,2.2,3.3,2.5c1.9,0.4,3.8,0,5.6-0.4
						c10.7-2.5,21.1-6.1,31-10.7c1.3-0.6,8-1.1,8-1.1C228.6,120.9,223.5,99.1,217.3,84.3z"/>
					<g>
						<g>
							<g>
								<g>
									<g>
										<g>
											<g>
												<g>
													<g>
														<path class="st6" d="M215.9,81.6c-3.5-7-7.2-14.2-14.7-17.4c-6.7-2.8-13.3-2.4-20.3-0.5c-3.4,1-7,3.4-9.6,5.8
															c-3.6,3.2-4.1,8.1-5,12.7c-1.8,9.2,1.7,20.1,5.2,22.6l41.1,9.4c5.6-4.7,9.5-7.2,9.4-14.2
															C222,95.2,218.1,85.9,215.9,81.6z"/>
													</g>
												</g>
											</g>
											<g>
												<g>
													<g>
														<path class="st9" d="M202.3,71.2l-24.5-0.9c-7.6,0.7-10.6,10.4-9.5,17.6c1.2,8,3.1,17.6,5.4,23.3
															c4.6,11.4,14.5,11,14.5,11c0,0,0.1,0.2,0.9,3.7l1.8,7.9c5.3,8.9,15.2,5.7,26.9-2l-10.5-57.1
															C206.7,72.4,204.6,70.9,202.3,71.2z"/>
													</g>
												</g>
												<g>
													<g>
														<g>
															<g>
																<path class="st6" d="M173.1,96.5c0.1,0.8,1,1.3,1.9,1.2c0.9-0.1,1.5-0.9,1.3-1.7c-0.1-0.8-1-1.3-1.9-1.2
																	C173.6,94.9,173,95.7,173.1,96.5z"/>
															</g>
														</g>
													</g>
												</g>
												<g>
													<g>
														<g>
															<g>
																<path class="st6" d="M171.8,93.6c0.2,0.2,1.3-0.9,3-1.3c1.7-0.4,3.2,0.2,3.3,0c0.1-0.1-0.2-0.4-0.8-0.7
																	c-0.6-0.3-1.6-0.5-2.7-0.2c-1.1,0.2-1.9,0.8-2.3,1.3C171.8,93.1,171.7,93.5,171.8,93.6z"/>
															</g>
														</g>
													</g>
												</g>
												<g>
													<g>
														<g>
															<g>
																<path class="st6" d="M189.2,92.8c0.1,0.8,1,1.3,1.9,1.2c0.9-0.1,1.5-0.9,1.3-1.7c-0.1-0.8-1-1.3-1.9-1.2
																	C189.6,91.3,189,92,189.2,92.8z"/>
															</g>
														</g>
													</g>
												</g>
												<g>
													<g>
														<g>
															<g>
																<path class="st6" d="M188.5,89.8c0.2,0.2,1.3-0.9,3-1.3c1.7-0.4,3.2,0.2,3.3,0c0.1-0.1-0.2-0.4-0.8-0.7
																	c-0.6-0.3-1.6-0.5-2.7-0.2c-1.1,0.2-1.9,0.8-2.3,1.3C188.5,89.3,188.4,89.7,188.5,89.8z"/>
															</g>
														</g>
													</g>
												</g>
												<g>
													<g>
														<g>
															<g>
																<path class="st6" d="M185,102.6c0-0.1-1.1-0.1-2.9,0.1c-0.4,0-0.9,0-1-0.2c-0.2-0.3-0.1-0.8,0-1.3
																	c0.2-1.1,0.4-2.2,0.6-3.4c0.8-4.9,1.3-8.8,1.1-8.9c-0.2,0-1,3.9-1.8,8.8c-0.2,1.2-0.4,2.3-0.5,3.4
																	c-0.1,0.5-0.2,1.1,0.1,1.7c0.2,0.3,0.6,0.4,0.9,0.5c0.3,0,0.5,0,0.8-0.1C183.9,102.9,185,102.7,185,102.6z"/>
															</g>
														</g>
													</g>
												</g>
												<g>
													<g>
														<g>
															<g>
																<path class="st10" d="M188.1,122.1c0,0,8.5-1.2,15.8-7.6c0,0-2.3,9.1-15,10.5L188.1,122.1z"/>
															</g>
														</g>
													</g>
												</g>
												<g>
													<g>
														<g>
															<path class="st10" d="M191.4,104.5c-0.5-0.5-1.4-0.7-2.1-0.6c-1.1,0.2-1.9,0.7-2.4,1.8c-0.2,0.3,0,1.1,0.2,1.3
																c0.1,0.2,0,0.1,0.3,0.2c0.8,0.4,1.6,0.8,2.4,0.8c0.9,0,1.8-0.4,2.2-1.3C192.2,106,192,105.1,191.4,104.5z"/>
														</g>
													</g>
												</g>
												<g>
													<g>
														<g>
															<g>
																<path class="st6" d="M190.6,102.7c-0.3,0,0.1,1.8-1.2,3.4c-1.3,1.6-3.4,1.8-3.3,2c0,0.1,0.5,0.3,1.4,0.1
																	c0.8-0.1,2-0.6,2.8-1.6c0.8-1,1-2.1,0.9-2.8C191,103.1,190.7,102.7,190.6,102.7z"/>
															</g>
														</g>
													</g>
												</g>
												<g>
													<g>
														<g>
															<g>
																<path class="st6" d="M186.6,84.8c0.2,0.4,1.9,0,4-0.1c2.1-0.1,3.8,0.2,4-0.2c0.1-0.2-0.3-0.6-1-0.9
																	c-0.7-0.3-1.8-0.6-3.1-0.5c-1.2,0-2.3,0.4-3,0.8C186.8,84.2,186.5,84.6,186.6,84.8z"/>
															</g>
														</g>
													</g>
												</g>
												<g>
													<g>
														<g>
															<g>
																<path class="st6" d="M171,90c0.5,0.2,1.6-0.6,3.1-1.2c1.5-0.6,2.9-0.8,3-1.3c0.1-0.2-0.3-0.5-1-0.6
																	c-0.7-0.1-1.7,0-2.8,0.4c-1,0.4-1.8,1.1-2.1,1.7C170.8,89.5,170.8,89.9,171,90z"/>
															</g>
														</g>
													</g>
												</g>
											</g>
										</g>
									</g>
								</g>
								<g>
									<g>
										<path class="st6" d="M177.2,68.9c0.5,4.9,2.5,9.6,5.7,13.5c0.9,1.1,1.9,2.1,3.1,2.8c1.3,0.7,2.9,0.9,4.2,0.3
											c-2.8-2.1-4.8-5-5.8-8.3c2.3,3,4.8,6,8,8.1c3.2,2.1,7.4,3.3,11.1,2.1l-0.9-2.3c1,1.6,2.4,3.1,4.2,3.8
											c1.8,0.7,4.2,0.4,5.3-1.1c-2.8-5.6-0.7-12.8-4.5-17.8c-2.7-3.4-7.5-4.8-12-5c-6.3-0.4-12.8,0.9-18.4,3.6"/>
									</g>
								</g>
								<g>
									<g>
										<g>
											<path class="st6" d="M177.7,68.9c0,0.1,0,0.2,0,0.3l0,0C177.8,69.1,177.7,69,177.7,68.9z"/>
										</g>
									</g>
									<g>
										<g>
											<path class="st6" d="M177.7,69.2l-0.8-0.1c-2.6-0.6-4.5-1.5-7.3,2.4c-1.5,2.1-2.6,5-3.2,7.8c-0.5,2.5-1.1,5.2-0.9,7.8
												c0.3,3.3,0.8,5.7,2.1,9c1.8-1.8,2.2-4.4,2.3-6.9c0.1-2.4-0.2-4.9,0.5-7.3c0.2,2,0.3,4.1,1.2,6c0.2,0.5,0.5,1,1.1,1.3
												c0.5,0.3,1.3,0.2,1.5-0.4c-1.4-2.1-1.9-4.6-1.8-7c0-2.4,0.5-4.9,1.1-7.3c0.5,4.1,1.7,8.1,3.6,11.8
												c0.3,0.5,0.6,1.1,1.1,1.4c0.8,0.5,1.8,0.2,2.7-0.1c0.9-0.3,1.7-0.8,2.7-0.7C179.9,81.6,177.9,75.4,177.7,69.2z"/>
										</g>
									</g>
								</g>
							</g>
						</g>
					</g>
				</g>
				<polygon class="st9" points="188.8,125 227.3,126.9 202.6,156.1 192.4,160.6 183.4,158.6 181.3,152.4 				"/>
			</g>
			<g>
				<path class="st6" d="M233.3,132.2c0,0-0.3,0-0.8,0.1c-0.5,0-1.2,0.1-2.1,0.2c-0.9,0.2-1.9,0.5-3,1c-1,0.6-2.2,1.3-3.1,2.2
					c-0.9,0.9-1.7,2-2.3,3c-0.6,1-1,1.9-1.4,2.7c-0.3,0.8-0.6,1.5-0.8,1.9c-0.2,0.5-0.3,0.7-0.3,0.7c0,0,0-0.3,0.2-0.7
					c0.1-0.5,0.4-1.1,0.7-1.9c0.3-0.8,0.8-1.8,1.3-2.8c0.6-1,1.3-2.1,2.3-3.1c1-1,2.1-1.7,3.2-2.2c1.1-0.6,2.2-0.8,3.1-1
					c0.9-0.1,1.7-0.2,2.2-0.2C233,132.2,233.3,132.2,233.3,132.2z"/>
			</g>
			<g>
				<path class="st7" d="M130.9,169.6c0,0,14.3,26.2,16.7,29.1c5.7,6.9,18.6,4.7,20.4,0.9c3.2-6.5,13.4-28.3,13.4-28.3l-3.4-7.8
					l-11.3-22.1l-11.1,36.3l-14.4-17.2L130.9,169.6z"/>
				<path class="st7" d="M248,183.4c0,0-1.3-36.9-2.9-42c-1.6-5.1-3.6-7.9-7.7-10.4c-4.6-2.8-9.5-3.6-10.1-4.1
					c0,0-14.1,14.8-21.1,23.2c-7,8.4-16.2,8.9-18.1,6.6c-1.9-2.2-3.3-6.7-1.6-13.9c1.6-7.2,2.3-17.8,2.3-17.8l-1.6,0.2
					c-9.3,1-17.3,6.8-20.2,15.2c-0.1,0.3-0.2,0.6-0.3,1c-3.3,10.7,9.6,26,9.6,25.3c0,3.2,0.3,6.2,0.8,8.4c1.9,7.1,18.3,19,19.2,22.5
					c0.9,3.5,1.7,25.7,1.7,25.7s28.5,0.1,39.9,0c9.3,0,29.8,0,29.8,0L248,183.4z"/>
				<g>
					<path class="st6" d="M175.4,139.6c0,0,0.1,0.1,0.1,0.4c0.1,0.3,0.2,0.7,0.3,1.2c0.3,1.1,0.5,2.7,0.6,4.6c0.1,2,0,4.3-0.3,6.9
						c-0.2,2.6-0.5,5.5-0.7,8.5c-0.2,3-0.1,5.9,0.3,8.4c0.4,2.6,1.1,4.8,2,6.6c0.9,1.8,1.8,3.1,2.5,4c0.3,0.4,0.6,0.8,0.8,1
						c0.2,0.2,0.3,0.4,0.3,0.4c0,0-0.1-0.1-0.3-0.3c-0.2-0.2-0.5-0.5-0.9-1c-0.7-0.9-1.7-2.2-2.6-4c-0.9-1.8-1.7-4.1-2.1-6.7
						c-0.4-2.6-0.5-5.5-0.3-8.5c0.2-3,0.5-5.9,0.7-8.5c0.2-2.6,0.4-4.9,0.3-6.9c0-2-0.3-3.6-0.5-4.6c-0.1-0.5-0.2-1-0.3-1.2
						C175.4,139.8,175.4,139.6,175.4,139.6z"/>
				</g>
				<g class="st12">
					<path d="M178.6,177.8c-3.4-2.1-5.2-6-5.8-9.8c-0.5-3.8,0.1-7.7,0.8-11.5c0.7-4.2,1.9-8,2.6-12.2c0.5,5.8-0.2,10.9-0.7,16.6
						s-0.2,11.8,3.1,16.5"/>
				</g>
				<g>
					<path class="st6" d="M165.2,189c-0.1,0-5.4-6.2-11.9-13.9c-6.5-7.7-11.8-14.1-11.7-14.1c0.1,0,5.4,6.2,11.9,13.9
						C160,182.6,165.3,188.9,165.2,189z"/>
				</g>
				<g class="st12">
					<path d="M210.6,145.7c0.8,1,1.6,1.9,2.6,2.6c1.1,0.6,2.5,0.9,3.6,0.3c1.3-0.7,1.8-2.3,2.2-3.6c1.9-6.3,6-12,11.5-16
						c-4.1,1.6-8.2,3.1-11.7,5.5c-3.6,2.4-6.6,5.7-7.8,9.7"/>
				</g>
				<g>
					<path class="st11" d="M214.4,173.6c0,0-0.1,0-0.4,0.1c-0.3,0-0.6,0.1-1.1,0.2c-0.5,0.1-1.1,0.2-1.7,0.3
						c-0.7,0.1-1.5,0.2-2.3,0.3c-1.7,0.2-3.8,0.4-6.1,0.5c-2.3,0.1-4.8,0.2-7.5,0.1c-2.7-0.1-5.2-0.2-7.5-0.4
						c-2.3-0.2-4.3-0.5-6-0.8c-0.9-0.1-1.6-0.3-2.3-0.4c-0.7-0.1-1.3-0.2-1.7-0.3c-0.5-0.1-0.8-0.2-1.1-0.2
						c-0.2-0.1-0.4-0.1-0.4-0.1c0,0,0.1,0,0.4,0c0.3,0,0.6,0.1,1.1,0.2c0.5,0.1,1.1,0.2,1.7,0.3c0.7,0.1,1.4,0.2,2.3,0.4
						c1.7,0.3,3.8,0.5,6,0.7c2.3,0.2,4.8,0.4,7.4,0.4c2.6,0.1,5.2,0,7.5-0.1c2.3-0.1,4.3-0.3,6.1-0.5c0.9-0.1,1.6-0.2,2.3-0.3
						c0.7-0.1,1.3-0.2,1.8-0.2c0.5-0.1,0.8-0.1,1.1-0.1C214.3,173.6,214.4,173.6,214.4,173.6z"/>
				</g>
				<g>
					<path class="st11" d="M217.1,153.8c0,0-0.1,0.1-0.3,0.3c-0.3,0.2-0.6,0.4-1,0.7c-0.2,0.2-0.5,0.3-0.7,0.5
						c-0.3,0.2-0.6,0.4-0.9,0.5c-0.7,0.4-1.4,0.9-2.3,1.3c-0.4,0.2-0.9,0.4-1.4,0.7c-0.5,0.2-1,0.4-1.5,0.6
						c-1.1,0.5-2.3,0.8-3.5,1.2c-2.5,0.7-5.3,1.2-8.4,1.5c-3,0.2-5.9,0-8.5-0.3c-1.3-0.2-2.5-0.4-3.6-0.7c-0.6-0.1-1.1-0.3-1.6-0.4
						c-0.5-0.2-1-0.3-1.5-0.5c-0.9-0.3-1.8-0.6-2.5-0.9c-0.4-0.1-0.7-0.3-1-0.4c-0.3-0.1-0.6-0.3-0.8-0.4c-0.5-0.2-0.8-0.4-1.1-0.6
						c-0.3-0.1-0.4-0.2-0.4-0.2c0,0,0.1,0.1,0.4,0.2c0.3,0.1,0.7,0.3,1.1,0.5c0.2,0.1,0.5,0.2,0.8,0.4c0.3,0.1,0.6,0.3,1,0.4
						c0.7,0.3,1.5,0.6,2.5,0.9c0.5,0.1,1,0.3,1.5,0.4c0.5,0.2,1.1,0.3,1.6,0.4c1.1,0.3,2.3,0.5,3.6,0.7c2.6,0.3,5.4,0.5,8.4,0.3
						c3-0.2,5.8-0.8,8.3-1.4c1.2-0.4,2.4-0.7,3.5-1.2c0.5-0.2,1.1-0.4,1.5-0.6c0.5-0.2,0.9-0.4,1.4-0.6c0.9-0.4,1.6-0.9,2.3-1.2
						c0.3-0.2,0.7-0.4,0.9-0.5c0.3-0.2,0.5-0.3,0.8-0.5c0.4-0.3,0.8-0.5,1-0.7C217,153.9,217.1,153.8,217.1,153.8z"/>
				</g>
				<g>
					<path class="st11" d="M149,172.7c0,0-0.1,0.2-0.4,0.4c-0.2,0.3-0.6,0.6-1.1,1.1c-1,0.9-2.3,2-4,3.2c-1.6,1.1-3.2,2.1-4.4,2.7
						c-0.6,0.3-1.1,0.5-1.4,0.7c-0.3,0.2-0.5,0.2-0.5,0.2c0,0,0.7-0.4,1.8-1.1c1.1-0.6,2.7-1.6,4.3-2.7c1.6-1.1,3-2.3,4-3.1
						C148.3,173.2,148.9,172.7,149,172.7z"/>
				</g>
				<g>
					<path class="st11" d="M161,184.5c0,0-0.1,0.3-0.2,0.7c-0.1,0.2-0.2,0.5-0.3,0.8c-0.1,0.3-0.3,0.7-0.5,1
						c-0.4,0.8-0.9,1.6-1.5,2.5c-0.6,0.9-1.4,1.9-2.3,2.8c-0.9,0.9-1.8,1.8-2.7,2.5c-0.9,0.7-1.8,1.3-2.5,1.7
						c-0.4,0.2-0.7,0.4-1,0.6c-0.3,0.2-0.6,0.3-0.8,0.4c-0.4,0.2-0.7,0.3-0.7,0.3c0,0,0.2-0.2,0.6-0.4c0.2-0.1,0.5-0.3,0.8-0.4
						c0.3-0.2,0.6-0.4,1-0.6c0.7-0.5,1.6-1,2.5-1.7c0.9-0.7,1.8-1.5,2.7-2.5c0.9-0.9,1.7-1.9,2.3-2.8c0.6-0.9,1.2-1.8,1.6-2.5
						c0.2-0.4,0.4-0.7,0.5-1c0.2-0.3,0.3-0.6,0.4-0.8C160.9,184.7,161,184.5,161,184.5z"/>
				</g>
				<g>
					<path class="st11" d="M174.6,186.1c0,0-0.2-0.2-0.5-0.7c-0.3-0.5-0.8-1.1-1.4-1.9c-0.6-0.8-1.3-1.7-2.2-2.7c-0.9-1-1.9-2-3-3
						c-1.1-1-2.3-1.9-3.3-2.7c-1.1-0.8-2.1-1.4-2.9-1.9c-0.9-0.5-1.6-0.9-2.1-1.2c-0.5-0.3-0.8-0.4-0.8-0.4c0,0,0.3,0.1,0.8,0.3
						c0.5,0.2,1.2,0.6,2.1,1.1c0.9,0.5,1.9,1.1,3,1.9c1.1,0.8,2.2,1.7,3.4,2.7c1.1,1,2.1,2.1,3,3c0.9,1,1.6,1.9,2.2,2.7
						c0.6,0.8,1,1.5,1.3,1.9C174.4,185.8,174.6,186.1,174.6,186.1z"/>
				</g>
				<g>
					<path class="st11" d="M175.4,162.3c0,0-0.7-0.5-1.7-1.2c-1.1-0.8-2.6-1.7-4.4-2.6c-1.8-0.9-3.5-1.6-4.8-2
						c-1.3-0.4-2.1-0.6-2-0.7c0,0,0.2,0,0.6,0.1c0.4,0.1,0.9,0.2,1.5,0.4c1.3,0.4,3,1,4.8,2c1.8,0.9,3.3,1.9,4.4,2.7
						c0.5,0.4,0.9,0.7,1.2,1C175.3,162.2,175.5,162.3,175.4,162.3z"/>
				</g>
				<g>
					<path class="st11" d="M176.3,146.7c0,0-0.5-0.2-1.4-0.7c-0.9-0.4-2.1-1-3.4-1.6c-1.4-0.6-2.6-1-3.5-1.3
						c-0.9-0.3-1.5-0.5-1.5-0.5c0,0,0.6,0.1,1.5,0.3c0.9,0.3,2.2,0.7,3.6,1.2c1.4,0.6,2.6,1.2,3.4,1.7
						C175.8,146.4,176.3,146.7,176.3,146.7z"/>
				</g>
				<g>
					<path class="st11" d="M186.5,135.4c0,0-0.7-0.3-1.8-0.7c-1.1-0.4-2.7-1-4.4-1.4c-1.8-0.5-3.4-0.8-4.6-0.9
						c-1.2-0.2-1.9-0.2-1.9-0.3c0,0,0.2,0,0.5,0c0.3,0,0.8,0,1.4,0.1c1.2,0.1,2.8,0.4,4.6,0.9c1.8,0.5,3.3,1,4.4,1.5
						c0.5,0.2,1,0.4,1.3,0.6C186.4,135.3,186.6,135.4,186.5,135.4z"/>
				</g>
				<g>
					<path class="st11" d="M210.5,190.9c0,0-0.3,0.1-0.8,0.1c-0.5,0-1.2,0.1-2.1,0.1c-1.8,0.1-4.3,0.1-7.1,0c-2.8-0.1-5.2-0.4-7-0.6
						c-0.9-0.1-1.6-0.2-2.1-0.3c-0.5-0.1-0.8-0.2-0.8-0.2c0,0,0.3,0,0.8,0.1c0.6,0.1,1.3,0.2,2.1,0.3c1.8,0.2,4.3,0.4,7,0.6
						c2.7,0.1,5.2,0.1,7,0.1c0.9,0,1.6,0,2.1-0.1C210.3,190.9,210.5,190.9,210.5,190.9z"/>
				</g>
				<g>
					<path class="st11" d="M261.4,211.6c0,0,0,0-0.2,0.1c-0.1,0-0.3,0.1-0.5,0.1c-0.4,0.1-1,0.3-1.7,0.5c-0.8,0.2-1.7,0.5-2.8,0.8
						c-1.1,0.3-2.3,0.6-3.7,0.9c-1.4,0.3-2.9,0.7-4.5,1c-1.6,0.4-3.4,0.7-5.2,1c-3.7,0.7-7.8,1.3-12.1,1.7
						c-4.3,0.4-8.4,0.7-12.2,0.8c-1.9,0-3.7,0.1-5.3,0.1c-1.7,0-3.2,0-4.6-0.1c-1.4,0-2.7-0.1-3.8-0.2c-1.1,0-2.1-0.1-2.9-0.2
						c-0.8-0.1-1.4-0.1-1.8-0.1c-0.2,0-0.4,0-0.5,0c-0.1,0-0.2,0-0.2,0c0,0,0.1,0,0.2,0c0.1,0,0.3,0,0.5,0c0.4,0,1,0.1,1.8,0.1
						c0.8,0,1.8,0.1,2.9,0.1c1.1,0,2.4,0.1,3.8,0.1c1.4,0,3,0.1,4.6,0c1.7,0,3.4-0.1,5.3-0.1c3.7-0.1,7.9-0.4,12.2-0.9
						c4.3-0.5,8.4-1.1,12-1.7c1.8-0.3,3.6-0.7,5.2-1c1.6-0.3,3.1-0.7,4.5-1c1.4-0.3,2.6-0.6,3.7-0.9c1.1-0.3,2-0.5,2.8-0.7
						c0.7-0.2,1.3-0.4,1.8-0.5c0.2,0,0.3-0.1,0.5-0.1C261.4,211.6,261.4,211.6,261.4,211.6z"/>
				</g>
				<g>
					<path class="st11" d="M255.8,198.3c0,0.1-5.4,0.7-12,1.3c-6.6,0.7-12,1.1-12,1.1c0-0.1,5.4-0.7,12-1.3
						C250.4,198.7,255.8,198.2,255.8,198.3z"/>
				</g>
				<g>
					<path class="st11" d="M247.5,183.7c0,0.1-2.7,0.8-6,1.6c-3.3,0.8-6.1,1.4-6.1,1.3c0-0.1,2.7-0.8,6-1.6
						C244.8,184.2,247.5,183.6,247.5,183.7z"/>
				</g>
				<g>
					<path class="st11" d="M245.9,170.4c0,0.1-1.7,0.5-3.8,1c-2.1,0.5-3.9,0.9-3.9,0.8c0-0.1,1.7-0.5,3.8-1
						C244.1,170.6,245.9,170.3,245.9,170.4z"/>
				</g>
				<g>
					<g class="st12">
						<path d="M197.8,215.9c6.6,1.3,12.6,3.4,19.3,2.7c6.7-0.7,13.5-3.7,16.9-9.1c2.6-4.1,3-9,3.4-13.7c0.9-10.2,1.8-20.5,2.7-30.7
							l-13.7,35.9l-6.6,9.5L197.8,215.9z"/>
					</g>
					<path class="st7" d="M172.6,202.6l37.9-6.1c0,0,7.9-45.3,8.1-46.2c0.2-0.8,2.9-14.9,10.4-16.1c7.5-1.2,14.4,1.6,14.8,8.5
						c0.4,5.5-8.1,44.9-13.4,63.1c-1.5,5.2-7.6,9.9-13.6,10c-15.5,0.3-44.2,0-44.2,0L172.6,202.6z"/>
					<g>
						<path class="st6" d="M218.7,150.3c-0.2,0.9-3.2,18.2-8,46.2l0,0.1l-0.1,0c-11.2,1.8-24,3.9-37.9,6.1l0.1-0.1
							c0,4.2,0.1,8.6,0.2,13.2l-0.1-0.1c4.6,0,9.4,0.1,14.4,0.1c8,0,15.9,0,23.4,0c1.9,0,3.8,0,5.6-0.1c1.9,0,3.7-0.3,5.3-1
							c3.3-1.3,6.1-3.7,7.8-6.5l0.3-0.5l0.3-0.6c0.2-0.4,0.3-0.8,0.4-1.1c0.2-0.8,0.4-1.6,0.7-2.3c0.4-1.5,0.8-3.1,1.2-4.6
							c0.8-3,1.5-6,2.2-8.8c1.4-5.7,2.6-11,3.7-15.9c2.1-9.7,3.7-17.6,4.7-23.1c0.2-1.4,0.4-2.6,0.6-3.7c0.1-0.5,0.1-1,0.2-1.5
							c0-0.4,0.1-0.9,0.1-1.2c0.1-0.7,0.1-1.3,0.1-1.7c0-0.4,0-0.6,0-0.6s0,0.2,0,0.6c0,0.4,0,0.9-0.1,1.7c0,0.4-0.1,0.8-0.1,1.2
							c-0.1,0.4-0.1,0.9-0.2,1.5c-0.1,1.1-0.3,2.3-0.6,3.7c-0.9,5.5-2.5,13.4-4.6,23.2c-1.1,4.9-2.3,10.2-3.7,15.9
							c-0.7,2.9-1.4,5.8-2.2,8.8c-0.4,1.5-0.8,3-1.2,4.6c-0.2,0.8-0.4,1.6-0.7,2.3c-0.1,0.4-0.3,0.8-0.4,1.2l-0.3,0.6l-0.3,0.5
							c-1.7,2.9-4.5,5.3-7.9,6.6c-1.7,0.7-3.6,1-5.4,1c-1.9,0-3.7,0-5.6,0.1c-7.6,0.1-15.4,0.1-23.4,0c-4.9,0-9.8-0.1-14.4-0.1
							l-0.1,0l0-0.1c-0.1-4.5-0.1-9-0.2-13.2l0-0.1l0.1,0c13.9-2.2,26.7-4.3,37.9-6.1l-0.1,0.1c2.5-14,4.5-25.5,5.9-33.6
							c0.7-4,1.3-7.2,1.7-9.3c0.2-1.1,0.4-1.9,0.5-2.4C218.6,150.6,218.7,150.3,218.7,150.3z"/>
					</g>
					<g>
						<path class="st11" d="M238.4,168c0,0-0.3,0-0.9-0.1c-0.6-0.1-1.4-0.2-2.4-0.3c-2-0.2-4.8-0.5-7.9-0.7
							c-3.1-0.2-5.9-0.2-7.9-0.1c-1,0-1.8,0-2.4,0c-0.6,0-0.9,0-0.9,0c0,0,0.3,0,0.9-0.1c0.6,0,1.4-0.1,2.4-0.1
							c2-0.1,4.8-0.1,7.9,0.1c3.1,0.2,5.9,0.5,7.9,0.7c1,0.1,1.8,0.3,2.4,0.4C238.1,168,238.4,168,238.4,168z"/>
					</g>
					<g>
						<path class="st11" d="M242.2,149.1c0,0-0.3,0-0.9-0.2c-0.5-0.1-1.3-0.3-2.3-0.4c-2-0.3-4.7-0.7-7.8-0.7c-3,0-5.8,0.3-7.8,0.7
							c-1,0.2-1.8,0.3-2.3,0.5c-0.5,0.1-0.8,0.2-0.9,0.2c0,0,0.3-0.1,0.8-0.3c0.5-0.2,1.3-0.3,2.3-0.5c2-0.4,4.7-0.8,7.8-0.8
							c3.1,0,5.8,0.3,7.8,0.7c1,0.2,1.8,0.4,2.3,0.5C242,149,242.2,149.1,242.2,149.1z"/>
					</g>
					<g>
						<path class="st11" d="M233.3,191.2c0,0-0.3-0.1-0.7-0.4c-0.2-0.2-0.5-0.3-0.8-0.5c-0.3-0.2-0.7-0.4-1.1-0.7
							c-0.8-0.5-1.9-1-3.1-1.5c-1.2-0.5-2.5-0.9-4-1.3c-1.5-0.3-2.9-0.5-4.2-0.7c-1.3-0.1-2.5-0.1-3.4-0.1c-0.5,0-0.9,0.1-1.3,0.1
							c-0.4,0-0.7,0.1-1,0.1c-0.5,0.1-0.9,0.1-0.9,0.1c0,0,0.3-0.1,0.8-0.2c0.3-0.1,0.6-0.1,1-0.1c0.4,0,0.8-0.1,1.3-0.1
							c1-0.1,2.2-0.1,3.5,0c1.3,0.1,2.7,0.3,4.2,0.6c1.5,0.4,2.8,0.8,4,1.3c1.2,0.5,2.2,1,3.1,1.5c0.4,0.2,0.8,0.5,1.1,0.7
							c0.3,0.2,0.6,0.4,0.8,0.6C233.1,191,233.3,191.2,233.3,191.2z"/>
					</g>
					<g>
						<path class="st11" d="M224.5,212.6c0,0-0.2-0.2-0.5-0.7c-0.3-0.5-0.7-1.1-1.2-1.9c-1-1.6-2.5-3.7-4.4-6
							c-1.9-2.2-3.7-4.1-5.1-5.4c-0.7-0.7-1.3-1.2-1.7-1.5c-0.4-0.4-0.6-0.6-0.6-0.6c0,0,0.3,0.2,0.7,0.5c0.4,0.3,1,0.8,1.7,1.5
							c1.4,1.3,3.3,3.2,5.2,5.4c1.9,2.2,3.3,4.4,4.3,6c0.5,0.8,0.9,1.5,1.1,1.9C224.4,212.3,224.5,212.6,224.5,212.6z"/>
					</g>
					<g>
						<path class="st11" d="M192.1,215.8c0,0,0-0.2,0-0.6c0-0.4,0-1,0-1.7c0-1.4-0.1-3.3-0.3-5.5c-0.2-2.1-0.4-4-0.6-5.4
							c-0.1-0.7-0.2-1.2-0.2-1.6c0-0.4-0.1-0.6,0-0.6c0,0,0.1,0.2,0.2,0.6c0.1,0.4,0.2,0.9,0.3,1.6c0.2,1.4,0.5,3.3,0.7,5.4
							c0.2,2.1,0.2,4.1,0.2,5.5c0,0.7,0,1.3,0,1.7C192.1,215.5,192.1,215.8,192.1,215.8z"/>
					</g>
					<g>
						<path class="st11" d="M241.5,136.2c0,0.1-3.9-0.1-8.7-0.3c-4.8-0.2-8.7-0.5-8.7-0.6c0-0.1,3.9,0.1,8.7,0.3
							C237.6,135.9,241.5,136.2,241.5,136.2z"/>
					</g>
				</g>
				<g class="st12">
					<path d="M210.6,196.4c-4.2-2-8.2-4.4-11.4-7.7c1.6,0,3.1,0.6,4.7,1c1.6,0.4,3.4,0.5,4.7-0.4c0.9-0.6,1.4-1.7,1.9-2.6
						c1.2-2.6,2.3-5.2,3.2-8.2C212.8,184.3,211.8,190.8,210.6,196.4"/>
				</g>
				<g class="st12">
					<path d="M155.7,177.4c4.5,2.7,8.3,6.2,11.3,10.3c0.2,0.3,0.4,0.6,0.2,0.9c-0.2,0.3-0.8,0.2-1.1,0
						C162.5,186.1,158.4,181,155.7,177.4"/>
				</g>
			</g>
			<g>
				<path class="st6" d="M221.7,96.9L211,78.6L200,79.8c-0.8,8.1,7.2,15.1,7,23.3c-0.1,3.4-1.5,6.7-1.1,10c0.4,3.1,2.6,5.9,3,9.1
					c0.6,3.7-1.3,7.3-2.7,10.8c-1.4,3.5-2.5,7.6-0.5,10.9c4.1,1.8,5.8,1.8,9.7,2.6c3-2.6,4.1-8.5,8.4-12.6c0,0,5.5-6.4,10.2-4.4
					c0,0,5.4-2.9-6.1-18.1C225.4,107.8,223.1,101.4,221.7,96.9z"/>
			</g>
			<g>
				<path class="st9" d="M133.3,203.9l8-5.6c0.8-0.5,1.8-0.8,2.7-0.7l6.4,0.5l14.9,6.1l7.3-0.9l0.1,12c0,0-6.5,0.3-9-0.1
					s-6.1-2.5-6.1-2.5s0.9,1.2,0.4,2.1c-0.4,0.9-3.8,2.4-3.8,2.4s-2.4,0.8-2.8-0.8c0,0-4.3,0.5-4.7-2.7c0,0-6.5-1-5.6-3.9
					c0.7-2.1,1.4-3.6,1.4-3.6l1.9-4l-2.2-0.4c0,0-3.9,2.7-5.6,3C134.9,205.1,133.3,203.9,133.3,203.9z"/>
				<g>
					<path class="st10" d="M149.4,204.4c0,0-0.6,0.3-1.4,1.1c-0.8,0.7-1.7,1.9-2,3.4c-0.1,0.8-0.1,1.5,0,2.2
						c0.1,0.7,0.2,1.3,0.4,1.8c0.3,1,0.4,1.6,0.4,1.6c0,0-0.1-0.1-0.2-0.4c-0.1-0.3-0.2-0.7-0.4-1.2c-0.2-0.5-0.3-1.1-0.4-1.8
						c-0.1-0.7-0.2-1.5-0.1-2.3c0.3-1.6,1.3-2.8,2.2-3.5c0.4-0.4,0.8-0.6,1.1-0.7C149.2,204.4,149.4,204.3,149.4,204.4z"/>
				</g>
				<g>
					<path class="st10" d="M152.8,207.7c0,0-0.2,0-0.5,0c-0.3,0-0.7,0.1-1.1,0.4c-0.4,0.3-0.9,0.7-1.1,1.3c-0.3,0.6-0.3,1.3-0.3,2
						c0.1,0.7,0.3,1.4,0.5,2.1c0.2,0.6,0.4,1.2,0.5,1.7c0.3,0.9,0.6,1.5,0.6,1.5c0,0-0.1-0.1-0.2-0.4c-0.1-0.2-0.3-0.6-0.5-1.1
						c-0.2-0.5-0.4-1-0.6-1.7c-0.2-0.6-0.4-1.3-0.5-2.1c-0.1-0.8,0-1.5,0.3-2.1c0.3-0.6,0.8-1.1,1.2-1.3c0.5-0.3,0.9-0.3,1.2-0.3
						C152.7,207.7,152.8,207.7,152.8,207.7z"/>
				</g>
				<g>
					<path class="st10" d="M155.4,212.8c0,0,0-0.2,0.2-0.3c0.2-0.2,0.5-0.3,0.9-0.4c0.4-0.1,0.7,0,0.9,0.2c0.2,0.2,0.2,0.3,0.2,0.3
						c0,0-0.1-0.1-0.3-0.2c-0.2-0.1-0.5-0.1-0.8-0.1C155.8,212.4,155.4,212.8,155.4,212.8z"/>
				</g>
				<g>
					<path class="st10" d="M155.7,210.3c0,0,0.2,0.1,0.2,0.3c0.1,0.2,0.1,0.5,0.1,0.9c0,0.4-0.1,0.7-0.3,0.9
						c-0.1,0.2-0.3,0.3-0.3,0.2c0,0,0.1-0.1,0.2-0.3c0.1-0.2,0.2-0.5,0.2-0.8c0-0.3,0-0.6,0-0.8
						C155.8,210.5,155.7,210.4,155.7,210.3z"/>
				</g>
				<g>
					<path class="st10" d="M141,209.8c0,0,0-0.2,0.2-0.5c0.1-0.3,0.3-0.8,0.5-1.3c0.4-1.1,1.1-2.6,1.8-4.2c0.3-0.6,0.5-1.2,0.7-1.7
						l0,0l0,0c0.5-0.5,1.1-0.9,1.7-1c0.6-0.2,1.1-0.2,1.6-0.2c0.4,0,0.8,0.1,1,0.2c0.2,0.1,0.3,0.1,0.3,0.2c0,0-0.5-0.2-1.3-0.2
						c-0.8,0-2.1,0.2-3,1.2l0,0c-0.2,0.5-0.5,1.1-0.7,1.7c-0.7,1.6-1.4,3.1-1.9,4.2c-0.2,0.5-0.4,1-0.6,1.3
						C141.1,209.6,141,209.8,141,209.8z"/>
				</g>
			</g>
		</g>
		<g>
			<g>
				<path class="st2" d="M71.6,165l26.4,55.7h61.4l0,0c-0.5-2.3-2.6-4-5.1-4l-52.7-0.4l-25.4-53.3c-0.6-1.2-2-1.7-3.2-1.2l0,0
					C71.6,162.5,71,163.8,71.6,165z"/>
				<g>
					<path class="st6" d="M71.6,165c0,0-0.1-0.1-0.1-0.3c-0.1-0.2-0.1-0.5-0.1-0.9c0-0.4,0.2-0.9,0.6-1.4c0.4-0.4,1.1-0.8,2-0.8
						c0.8,0,1.8,0.5,2.2,1.4c0.4,0.9,0.9,1.8,1.4,2.8c1,2,2.1,4.4,3.4,7c5,10.5,12.2,25.5,20.7,43.3l-0.1-0.1
						c8.6,0.1,17.9,0.1,27.6,0.2c4.9,0,9.9,0.1,15,0.1c2.5,0,5.1,0,7.7,0.1c0.6,0,1.3,0,1.9,0c0.6,0,1.3,0,2,0.2
						c1.3,0.4,2.4,1.2,3.1,2.3c0.2,0.3,0.3,0.6,0.5,1c0.1,0.2,0.1,0.3,0.1,0.5l0,0.1c-0.3,0.3-0.1,0.1-0.2,0.2h0h0h-0.1h-0.3
						c-0.7,0-1.4,0-2.2,0c-1.4,0-2.9,0-4.3,0c-2.8,0-5.7,0-8.4,0c-5.6,0-11,0-16.3,0c-10.6,0-20.6,0-29.8,0h-0.1l0-0.1
						c-7.9-16.7-14.5-30.6-19.1-40.4c-2.3-4.9-4.1-8.7-5.3-11.3c-0.6-1.3-1.1-2.3-1.4-3c-0.2-0.3-0.3-0.6-0.4-0.8
						C71.6,165.1,71.6,165,71.6,165s0,0.1,0.1,0.3c0.1,0.2,0.2,0.4,0.4,0.8c0.3,0.7,0.8,1.7,1.4,3c1.2,2.6,3.1,6.4,5.4,11.3
						c4.6,9.8,11.2,23.7,19.1,40.4l-0.1-0.1c9.2,0,19.2,0,29.8,0c5.3,0,10.7,0,16.3,0c2.8,0,5.6,0,8.4,0c1.4,0,2.8,0,4.3,0
						c0.7,0,1.4,0,2.2,0h0.3h0.1h0h0c-0.1,0.1,0.1-0.2-0.1,0.2l0-0.1c0-0.2-0.1-0.3-0.1-0.5c-0.1-0.3-0.3-0.6-0.4-0.9
						c-0.6-1.1-1.7-1.8-2.9-2.2c-0.6-0.2-1.2-0.2-1.9-0.2c-0.7,0-1.3,0-1.9,0c-2.6,0-5.2,0-7.7-0.1c-5.1,0-10.1-0.1-15-0.1
						c-9.8-0.1-19-0.1-27.6-0.2l-0.1,0l0-0.1c-8.5-17.9-15.6-32.8-20.6-43.4c-1.2-2.6-2.4-5-3.3-7c-0.5-1-0.9-2-1.3-2.8
						c-0.4-0.9-1.3-1.4-2.1-1.4c-0.8,0-1.5,0.3-1.9,0.7c-0.4,0.4-0.6,0.9-0.6,1.3c0,0.4,0,0.7,0.1,0.9C71.5,164.9,71.6,165,71.6,165
						z"/>
				</g>
			</g>
			<g>
				<path class="st6" d="M101.5,216.4c0.1,0-0.7,1-1.7,2.1c-1.1,1.1-1.9,2-1.9,1.9c-0.1,0,0.7-1,1.7-2.1
					C100.6,217.3,101.4,216.4,101.5,216.4z"/>
			</g>
			<g>
				<path class="st6" d="M104.3,218c0,0,0.1-0.1,0.2-0.1c0.1,0,0.3,0,0.5,0.2c0.2,0.1,0.3,0.4,0.3,0.7c0,0.3-0.3,0.6-0.7,0.7
					c-0.3,0.1-0.8-0.1-0.9-0.3c-0.2-0.3-0.1-0.6,0-0.8c0.1-0.2,0.3-0.3,0.4-0.4C104.2,218,104.2,218,104.3,218
					c0,0.1-0.3,0.1-0.4,0.5c-0.1,0.2-0.1,0.4,0,0.6c0.1,0.2,0.4,0.3,0.6,0.2c0.3-0.1,0.5-0.2,0.5-0.4c0-0.2-0.1-0.4-0.2-0.5
					C104.6,218,104.3,218.1,104.3,218z"/>
			</g>
			<g>
				<path class="st6" d="M107.1,218c0,0,0.1-0.1,0.2-0.1c0.1,0,0.3,0,0.5,0.2c0.2,0.1,0.3,0.4,0.3,0.7c0,0.3-0.3,0.6-0.7,0.7
					c-0.3,0.1-0.8-0.1-0.9-0.3c-0.2-0.3-0.1-0.6,0-0.8c0.1-0.2,0.3-0.3,0.4-0.4C107,218,107.1,218,107.1,218c0,0.1-0.3,0.1-0.4,0.5
					c-0.1,0.2-0.1,0.4,0,0.6c0.1,0.2,0.4,0.3,0.6,0.2c0.3-0.1,0.5-0.2,0.5-0.4c0-0.2-0.1-0.4-0.2-0.5
					C107.4,218,107.1,218.1,107.1,218z"/>
			</g>
		</g>
		<rect x="28.8" y="220.4" class="st6" width="242.4" height="6.2"/>
	</g>
</g>
</svg>
