<svg width="154" height="25" viewBox="0 0 154 25" fill="none" xmlns="http://www.w3.org/2000/svg">
<path opacity="0.8" d="M45.66 9.42C45.9933 8.9 46.4533 8.48 47.04 8.16C47.6267 7.84 48.3133 7.68 49.1 7.68C50.02 7.68 50.8533 7.91333 51.6 8.38C52.3467 8.84667 52.9333 9.51333 53.36 10.38C53.8 11.2467 54.02 12.2533 54.02 13.4C54.02 14.5467 53.8 15.56 53.36 16.44C52.9333 17.3067 52.3467 17.98 51.6 18.46C50.8533 18.9267 50.02 19.16 49.1 19.16C48.3267 19.16 47.64 19 47.04 18.68C46.4533 18.36 45.9933 17.9467 45.66 17.44V24.32H42.24V7.84H45.66V9.42ZM50.54 13.4C50.54 12.5467 50.3 11.88 49.82 11.4C49.3533 10.9067 48.7733 10.66 48.08 10.66C47.4 10.66 46.82 10.9067 46.34 11.4C45.8733 11.8933 45.64 12.5667 45.64 13.42C45.64 14.2733 45.8733 14.9467 46.34 15.44C46.82 15.9333 47.4 16.18 48.08 16.18C48.76 16.18 49.34 15.9333 49.82 15.44C50.3 14.9333 50.54 14.2533 50.54 13.4ZM59.2342 9.7C59.6342 9.08667 60.1342 8.60667 60.7342 8.26C61.3342 7.9 62.0009 7.72 62.7342 7.72V11.34H61.7942C60.9409 11.34 60.3009 11.5267 59.8742 11.9C59.4476 12.26 59.2342 12.9 59.2342 13.82V19H55.8142V7.84H59.2342V9.7ZM69.4489 19.16C68.3556 19.16 67.3689 18.9267 66.4889 18.46C65.6222 17.9933 64.9356 17.3267 64.4289 16.46C63.9356 15.5933 63.6889 14.58 63.6889 13.42C63.6889 12.2733 63.9422 11.2667 64.4489 10.4C64.9556 9.52 65.6489 8.84667 66.5289 8.38C67.4089 7.91333 68.3956 7.68 69.4889 7.68C70.5822 7.68 71.5689 7.91333 72.4489 8.38C73.3289 8.84667 74.0222 9.52 74.5289 10.4C75.0356 11.2667 75.2889 12.2733 75.2889 13.42C75.2889 14.5667 75.0289 15.58 74.5089 16.46C74.0022 17.3267 73.3022 17.9933 72.4089 18.46C71.5289 18.9267 70.5422 19.16 69.4489 19.16ZM69.4489 16.2C70.1022 16.2 70.6556 15.96 71.1089 15.48C71.5756 15 71.8089 14.3133 71.8089 13.42C71.8089 12.5267 71.5822 11.84 71.1289 11.36C70.6889 10.88 70.1422 10.64 69.4889 10.64C68.8222 10.64 68.2689 10.88 67.8289 11.36C67.3889 11.8267 67.1689 12.5133 67.1689 13.42C67.1689 14.3133 67.3822 15 67.8089 15.48C68.2489 15.96 68.7956 16.2 69.4489 16.2ZM82.7033 10.68H80.8633V19H77.4433V10.68H76.2033V7.84H77.4433V7.52C77.4433 6.14667 77.8366 5.10667 78.6233 4.4C79.4099 3.68 80.5633 3.32 82.0833 3.32C82.3366 3.32 82.5233 3.32667 82.6433 3.34V6.24C81.9899 6.2 81.5299 6.29333 81.2633 6.52C80.9966 6.74667 80.8633 7.15333 80.8633 7.74V7.84H82.7033V10.68ZM100.21 4.96V19H96.7903V10.58L93.6503 19H90.8903L87.7303 10.56V19H84.3103V4.96H88.3503L92.2903 14.68L96.1903 4.96H100.21ZM101.99 13.4C101.99 12.2533 102.203 11.2467 102.63 10.38C103.07 9.51333 103.663 8.84667 104.41 8.38C105.156 7.91333 105.99 7.68 106.91 7.68C107.696 7.68 108.383 7.84 108.97 8.16C109.57 8.48 110.03 8.9 110.35 9.42V7.84H113.77V19H110.35V17.42C110.016 17.94 109.55 18.36 108.95 18.68C108.363 19 107.676 19.16 106.89 19.16C105.983 19.16 105.156 18.9267 104.41 18.46C103.663 17.98 103.07 17.3067 102.63 16.44C102.203 15.56 101.99 14.5467 101.99 13.4ZM110.35 13.42C110.35 12.5667 110.11 11.8933 109.63 11.4C109.163 10.9067 108.59 10.66 107.91 10.66C107.23 10.66 106.65 10.9067 106.17 11.4C105.703 11.88 105.47 12.5467 105.47 13.4C105.47 14.2533 105.703 14.9333 106.17 15.44C106.65 15.9333 107.23 16.18 107.91 16.18C108.59 16.18 109.163 15.9333 109.63 15.44C110.11 14.9467 110.35 14.2733 110.35 13.42ZM123.044 7.72C124.351 7.72 125.391 8.14667 126.164 9C126.951 9.84 127.344 11 127.344 12.48V19H123.944V12.94C123.944 12.1933 123.751 11.6133 123.364 11.2C122.977 10.7867 122.457 10.58 121.804 10.58C121.151 10.58 120.631 10.7867 120.244 11.2C119.857 11.6133 119.664 12.1933 119.664 12.94V19H116.244V7.84H119.664V9.32C120.011 8.82667 120.477 8.44 121.064 8.16C121.651 7.86667 122.311 7.72 123.044 7.72ZM140.74 7.84V19H137.32V17.48C136.974 17.9733 136.5 18.3733 135.9 18.68C135.314 18.9733 134.66 19.12 133.94 19.12C133.087 19.12 132.334 18.9333 131.68 18.56C131.027 18.1733 130.52 17.62 130.16 16.9C129.8 16.18 129.62 15.3333 129.62 14.36V7.84H133.02V13.9C133.02 14.6467 133.214 15.2267 133.6 15.64C133.987 16.0533 134.507 16.26 135.16 16.26C135.827 16.26 136.354 16.0533 136.74 15.64C137.127 15.2267 137.32 14.6467 137.32 13.9V7.84H140.74Z" fill="#02073E"/>
<path fill-rule="evenodd" clip-rule="evenodd" d="M28.433 6.28764C28.4376 6.36938 28.4316 6.45238 28.4112 6.53582L26.5855 13.8681C26.4934 14.2371 26.1637 14.4973 25.7846 14.4995L14.8307 14.5549C14.8293 14.5549 14.828 14.5549 14.8265 14.5549H3.87255C3.49143 14.5549 3.15939 14.2939 3.0674 13.9227L1.24172 6.56247C1.22064 6.47731 1.21462 6.39173 1.21993 6.30787C0.513655 6.08467 0 5.42106 0 4.63918C0 3.67369 0.781697 2.88879 1.74264 2.88879C2.70359 2.88879 3.48529 3.67369 3.48529 4.63918C3.48529 5.18236 3.23731 5.66836 2.84905 5.99004L5.13475 8.30212C5.7125 8.88657 6.51407 9.22203 7.33413 9.22203C8.30388 9.22203 9.22841 8.75928 9.81063 7.98471L13.5671 2.98684C13.2515 2.67031 13.0561 2.23292 13.0561 1.7504C13.0561 0.785303 13.8378 0 14.7987 0C15.7597 0 16.5414 0.785303 16.5414 1.7504C16.5414 2.21832 16.3564 2.64279 16.0573 2.95717C16.0583 2.95847 16.0596 2.95976 16.0605 2.96104L19.7897 7.97268C20.3718 8.75456 21.2996 9.22203 22.2721 9.22203C23.0997 9.22203 23.878 8.8982 24.4632 8.31072L26.7633 6.00079C26.3669 5.67953 26.1122 5.18926 26.1122 4.63918C26.1122 3.67369 26.894 2.88879 27.8549 2.88879C28.8158 2.88879 29.5976 3.67369 29.5976 4.63918C29.5976 5.39998 29.1101 6.04767 28.433 6.28764ZM26.4073 17.1655C26.4073 16.7057 26.0358 16.3324 25.5775 16.3324H4.11231C3.65401 16.3324 3.28242 16.7057 3.28242 17.1655V19.1653C3.28242 19.6259 3.65401 19.9988 4.11231 19.9988H25.5775C26.0358 19.9988 26.4073 19.6259 26.4073 19.1653V17.1655Z" fill="#02073E"/>
</svg>
