<svg width="113" height="24" viewBox="0 0 113 24" fill="none" xmlns="http://www.w3.org/2000/svg">
<path opacity="0.8" d="M11.94 9.48C11.94 10.2933 11.7533 11.04 11.38 11.72C11.0067 12.3867 10.4333 12.9267 9.66 13.34C8.88667 13.7533 7.92667 13.96 6.78 13.96H4.66V19H1.24V4.96H6.78C7.9 4.96 8.84667 5.15333 9.62 5.54C10.3933 5.92667 10.9733 6.46 11.36 7.14C11.7467 7.82 11.94 8.6 11.94 9.48ZM6.52 11.24C7.17333 11.24 7.66 11.0867 7.98 10.78C8.3 10.4733 8.46 10.04 8.46 9.48C8.46 8.92 8.3 8.48667 7.98 8.18C7.66 7.87333 7.17333 7.72 6.52 7.72H4.66V11.24H6.52ZM17.1405 9.7C17.5405 9.08667 18.0405 8.60667 18.6405 8.26C19.2405 7.9 19.9071 7.72 20.6405 7.72V11.34H19.7005C18.8471 11.34 18.2071 11.5267 17.7805 11.9C17.3538 12.26 17.1405 12.9 17.1405 13.82V19H13.7205V7.84H17.1405V9.7ZM27.3552 19.16C26.2618 19.16 25.2752 18.9267 24.3952 18.46C23.5285 17.9933 22.8418 17.3267 22.3352 16.46C21.8418 15.5933 21.5952 14.58 21.5952 13.42C21.5952 12.2733 21.8485 11.2667 22.3552 10.4C22.8618 9.52 23.5552 8.84667 24.4352 8.38C25.3152 7.91333 26.3018 7.68 27.3952 7.68C28.4885 7.68 29.4752 7.91333 30.3552 8.38C31.2352 8.84667 31.9285 9.52 32.4352 10.4C32.9418 11.2667 33.1952 12.2733 33.1952 13.42C33.1952 14.5667 32.9352 15.58 32.4152 16.46C31.9085 17.3267 31.2085 17.9933 30.3152 18.46C29.4352 18.9267 28.4485 19.16 27.3552 19.16ZM27.3552 16.2C28.0085 16.2 28.5618 15.96 29.0152 15.48C29.4818 15 29.7152 14.3133 29.7152 13.42C29.7152 12.5267 29.4885 11.84 29.0352 11.36C28.5952 10.88 28.0485 10.64 27.3952 10.64C26.7285 10.64 26.1752 10.88 25.7352 11.36C25.2952 11.8267 25.0752 12.5133 25.0752 13.42C25.0752 14.3133 25.2885 15 25.7152 15.48C26.1552 15.96 26.7018 16.2 27.3552 16.2ZM40.6095 10.68H38.7695V19H35.3495V10.68H34.1095V7.84H35.3495V7.52C35.3495 6.14667 35.7429 5.10667 36.5295 4.4C37.3162 3.68 38.4695 3.32 39.9895 3.32C40.2429 3.32 40.4295 3.32667 40.5495 3.34V6.24C39.8962 6.2 39.4362 6.29333 39.1695 6.52C38.9029 6.74667 38.7695 7.15333 38.7695 7.74V7.84H40.6095V10.68ZM58.1166 4.96V19H54.6966V10.58L51.5566 19H48.7966L45.6366 10.56V19H42.2166V4.96H46.2566L50.1966 14.68L54.0966 4.96H58.1166ZM59.8959 13.4C59.8959 12.2533 60.1093 11.2467 60.5359 10.38C60.9759 9.51333 61.5693 8.84667 62.3159 8.38C63.0626 7.91333 63.8959 7.68 64.8159 7.68C65.6026 7.68 66.2893 7.84 66.8759 8.16C67.4759 8.48 67.9359 8.9 68.2559 9.42V7.84H71.6759V19H68.2559V17.42C67.9226 17.94 67.4559 18.36 66.8559 18.68C66.2693 19 65.5826 19.16 64.7959 19.16C63.8893 19.16 63.0626 18.9267 62.3159 18.46C61.5693 17.98 60.9759 17.3067 60.5359 16.44C60.1093 15.56 59.8959 14.5467 59.8959 13.4ZM68.2559 13.42C68.2559 12.5667 68.0159 11.8933 67.5359 11.4C67.0693 10.9067 66.4959 10.66 65.8159 10.66C65.1359 10.66 64.5559 10.9067 64.0759 11.4C63.6093 11.88 63.3759 12.5467 63.3759 13.4C63.3759 14.2533 63.6093 14.9333 64.0759 15.44C64.5559 15.9333 65.1359 16.18 65.8159 16.18C66.4959 16.18 67.0693 15.9333 67.5359 15.44C68.0159 14.9467 68.2559 14.2733 68.2559 13.42ZM80.9502 7.72C82.2568 7.72 83.2968 8.14667 84.0702 9C84.8568 9.84 85.2502 11 85.2502 12.48V19H81.8502V12.94C81.8502 12.1933 81.6568 11.6133 81.2702 11.2C80.8835 10.7867 80.3635 10.58 79.7102 10.58C79.0568 10.58 78.5368 10.7867 78.1502 11.2C77.7635 11.6133 77.5702 12.1933 77.5702 12.94V19H74.1502V7.84H77.5702V9.32C77.9168 8.82667 78.3835 8.44 78.9702 8.16C79.5568 7.86667 80.2168 7.72 80.9502 7.72ZM98.6467 7.84V19H95.2267V17.48C94.8801 17.9733 94.4067 18.3733 93.8067 18.68C93.2201 18.9733 92.5667 19.12 91.8467 19.12C90.9934 19.12 90.2401 18.9333 89.5867 18.56C88.9334 18.1733 88.4267 17.62 88.0667 16.9C87.7067 16.18 87.5267 15.3333 87.5267 14.36V7.84H90.9267V13.9C90.9267 14.6467 91.1201 15.2267 91.5067 15.64C91.8934 16.0533 92.4134 16.26 93.0667 16.26C93.7334 16.26 94.2601 16.0533 94.6467 15.64C95.0334 15.2267 95.2267 14.6467 95.2267 13.9V7.84H98.6467Z" fill="#02073E"/>
</svg>
