<?xml version="1.0" encoding="utf-8"?>
<!-- Generator: Adobe Illustrator 22.0.1, SVG Export Plug-In . SVG Version: 6.00 Build 0)  -->
<svg version="1.1" xmlns="http://www.w3.org/2000/svg" xmlns:xlink="http://www.w3.org/1999/xlink" x="0px" y="0px"
	 viewBox="0 0 1122 1122" style="enable-background:new 0 0 1122 1122;" xml:space="preserve">
<style type="text/css">
	.st0{fill:#909BA0;}
	.st1{fill:#2E4661;}
	.st2{opacity:0.12;fill:#272525;}
	.st3{fill:none;stroke:#59595B;stroke-width:40;stroke-miterlimit:10;}
	.st4{opacity:0.4;fill:#B3D1E2;}
	.st5{opacity:0.22;}
	.st6{fill:#FFFFFF;}
	.st7{opacity:0.31;fill:#FFFFFF;}
	.st8{fill:#A36652;}
	.st9{fill:#6A8678;}
</style>
<g id="BG">
</g>
<g id="Objects">
	<g>
		<g>
			<g>
				<g>
					<g>
						
							<rect x="681.1" y="558.2" transform="matrix(0.5296 -0.8483 0.8483 0.5296 -254.7144 942.3265)" class="st0" width="82.2" height="285.3"/>
						<path class="st1" d="M950.1,842.5l-0.5,0.8c-13.7,22-38.2,31.5-54.7,21.2L705.2,748.1l49.8-83.8l190,119.7
							C961.6,794.3,963.8,820.5,950.1,842.5z"/>
					</g>
					<polygon class="st2" points="591.7,666 603.7,674.7 711.9,646.6 621.7,589.1 					"/>
				</g>
				<g>
					
						<ellipse transform="matrix(0.7071 -0.7071 0.7071 0.7071 -236.3092 435.5347)" class="st3" cx="407.6" cy="503" rx="237.4" ry="237.4"/>
					<circle class="st4" cx="410.4" cy="500.8" r="212.9"/>
				</g>
			</g>
			<g>
				<g class="st5">
					<path class="st6" d="M257,492.2c-1-67.9,43.1-129.3,108.5-148.1c65.3-18.8,136.5,10,170.9,68.7c9.7,16.5,36,2.7,26.3-13.8
						c-39.6-67.5-118-102.4-194.5-86.2c-75.4,16-131,80.8-140,156.5c-0.9,7.3-1.1,14.7-1,22.1C227.5,510.5,257.3,511.5,257,492.2
						L257,492.2z"/>
				</g>
				
					<ellipse transform="matrix(0.9999 -1.659144e-02 1.659144e-02 0.9999 -7.5282 9.5278)" class="st7" cx="570.5" cy="458.5" rx="19.6" ry="19.6"/>
			</g>
		</g>
		<path class="st8" d="M707.8,745.3l47.4-79.7c1.6-2.7,0.9-6.3-1.6-8.2l-0.8-0.6c-3-2.2-7.2-1.3-9.1,1.9L696.9,739
			c-1.7,3-0.7,6.9,2.4,8.5l0.1,0.1C702.3,749.2,706,748.2,707.8,745.3z"/>
		<g>
			<path class="st9" d="M618,502.3c-0.2,51.2-18.8,100.8-52.6,139.2c-33.4,38-79.8,62.5-129.7,69.6c-51.1,7.2-103.8-5.7-146.4-34.3
				c-41.6-27.9-71.9-70.9-85.2-119c-13.8-49.9-8.1-104.3,15.2-150.5c22.4-44.5,60.9-80.3,106.8-99.5c47.9-20.1,102.3-21.3,151.3-4.3
				c47.2,16.3,87.3,50.3,112.4,93.3C608.4,428.8,617.9,465.4,618,502.3c0,7.3,11.4,7.3,11.3,0c-0.2-51.3-17.9-100.6-50.1-140.5
				c-31.4-38.9-76.5-66.1-125.3-76.6c-50.6-10.9-104.1-3.3-149.9,20.6c-44,22.9-79.6,61.4-99.7,106.7
				c-21,47.4-24.5,101.5-10.3,151.3c13.7,48.1,44.2,90.2,84.7,119.4c41.6,30,93.5,44.1,144.5,40.5c50.6-3.5,98.7-24.9,135.8-59.3
				c44.8-41.6,70.1-101.2,70.3-162.1C629.4,495,618.1,495,618,502.3z"/>
		</g>
	</g>
</g>
<g id="Text">
</g>
</svg>
