<svg width="266" height="348" viewBox="0 0 266 348" fill="none" xmlns="http://www.w3.org/2000/svg">
<circle cx="261.92" cy="188.524" r="3.52358" transform="rotate(90 261.92 188.524)" fill="#C5C5C5"/>
<circle cx="261.92" cy="240.203" r="3.52358" transform="rotate(90 261.92 240.203)" fill="#C5C5C5"/>
<circle cx="261.92" cy="291.882" r="3.52358" transform="rotate(90 261.92 291.882)" fill="#C5C5C5"/>
<circle cx="261.92" cy="343.561" r="3.52358" transform="rotate(90 261.92 343.561)" fill="#C5C5C5"/>
<circle cx="210.241" cy="188.524" r="3.52358" transform="rotate(90 210.241 188.524)" fill="#C5C5C5"/>
<circle cx="210.241" cy="240.203" r="3.52358" transform="rotate(90 210.241 240.203)" fill="#C5C5C5"/>
<circle cx="210.241" cy="291.882" r="3.52358" transform="rotate(90 210.241 291.882)" fill="#C5C5C5"/>
<circle cx="210.241" cy="343.561" r="3.52358" transform="rotate(90 210.241 343.561)" fill="#C5C5C5"/>
<circle cx="158.561" cy="188.524" r="3.52358" transform="rotate(90 158.561 188.524)" fill="#C5C5C5"/>
<circle cx="158.561" cy="240.203" r="3.52358" transform="rotate(90 158.561 240.203)" fill="#C5C5C5"/>
<circle cx="158.561" cy="291.882" r="3.52358" transform="rotate(90 158.561 291.882)" fill="#C5C5C5"/>
<circle cx="158.561" cy="343.561" r="3.52358" transform="rotate(90 158.561 343.561)" fill="#C5C5C5"/>
<circle cx="106.882" cy="188.524" r="3.52358" transform="rotate(90 106.882 188.524)" fill="#C5C5C5"/>
<circle cx="106.882" cy="240.203" r="3.52358" transform="rotate(90 106.882 240.203)" fill="#C5C5C5"/>
<circle cx="106.882" cy="291.882" r="3.52358" transform="rotate(90 106.882 291.882)" fill="#C5C5C5"/>
<circle cx="106.882" cy="343.561" r="3.52358" transform="rotate(90 106.882 343.561)" fill="#C5C5C5"/>
<circle cx="55.203" cy="188.524" r="3.52358" transform="rotate(90 55.203 188.524)" fill="#C5C5C5"/>
<circle cx="55.203" cy="240.203" r="3.52358" transform="rotate(90 55.203 240.203)" fill="#C5C5C5"/>
<circle cx="55.203" cy="291.882" r="3.52358" transform="rotate(90 55.203 291.882)" fill="#C5C5C5"/>
<circle cx="55.203" cy="343.561" r="3.52358" transform="rotate(90 55.203 343.561)" fill="#C5C5C5"/>
<circle cx="3.52378" cy="188.524" r="3.52358" transform="rotate(90 3.52378 188.524)" fill="#C5C5C5"/>
<circle cx="3.52378" cy="240.203" r="3.52358" transform="rotate(90 3.52378 240.203)" fill="#C5C5C5"/>
<circle cx="3.52378" cy="291.882" r="3.52358" transform="rotate(90 3.52378 291.882)" fill="#C5C5C5"/>
<circle cx="3.52378" cy="343.561" r="3.52358" transform="rotate(90 3.52378 343.561)" fill="#C5C5C5"/>
<circle cx="54.8681" cy="37.8677" r="28.0887" transform="rotate(16.0891 54.8681 37.8677)" stroke="#FFBA49" stroke-width="5"/>
<circle cx="128" cy="145" r="14.5" stroke="#FFBA49" stroke-width="5"/>
</svg>
