<svg width="380" height="12" viewBox="0 0 380 12" fill="none" xmlns="http://www.w3.org/2000/svg">
<path d="M378.226 1.95934C378.572 2.15694 378.828 2.39756 378.974 2.66221C379.12 2.92687 379.151 3.20831 379.066 3.4843C378.975 4.22555 378.458 4.57868 377.14 4.60478C374.128 4.66502 371.116 4.69225 368.103 4.68649C356.978 4.67086 345.86 4.93896 334.74 5.32861C324.899 5.6736 315.057 6.00431 305.213 6.27891C289.576 6.71499 273.939 7.1041 258.302 7.5065C252.512 7.65468 246.72 7.77841 240.935 7.92443C240.238 7.94058 239.55 8.03122 238.908 8.19135L324.159 8.83857C324.722 9.10455 325.077 9.4806 325.154 9.89197C325.232 10.3033 325.025 10.7199 324.576 11.0588C321.253 11.2512 317.917 11.336 314.587 11.313C305.558 11.2934 296.531 11.233 287.5 11.2074C279.856 11.1868 272.211 11.2 264.568 11.1866C251.714 11.163 238.861 11.1312 226.008 11.0912C218.828 11.0648 211.651 11.0016 204.474 10.9384C197.648 10.8729 190.827 10.7193 183.999 10.711C169.175 10.692 154.35 10.7112 139.524 10.7685C128.988 10.8097 118.435 10.9503 107.891 11.0214C102.331 11.0584 96.7706 11.0403 91.2123 11.0467C90.8647 11.0575 90.5168 11.0543 90.1714 11.0373C89.7072 11.0042 89.2881 10.8742 88.9992 10.6738C88.7102 10.4735 88.5732 10.2177 88.616 9.95854C88.7286 9.49427 88.8922 9.03348 89.1059 8.57874C91.8352 8.26507 94.5981 8.06541 97.3707 7.98149C105.584 7.59434 113.801 7.23643 122.019 6.90772C128.853 6.63821 135.687 6.37073 142.523 6.22268C153.877 5.98018 165.232 5.81422 176.585 5.64423C190.955 5.42923 205.323 5.25713 219.692 5.03703C231.273 4.8581 242.854 4.63624 254.43 4.42881C254.821 4.40068 255.209 4.35829 255.59 4.30191C254.408 3.9758 253.061 3.86397 251.737 3.98191C242.814 4.06833 233.892 4.15676 224.971 4.24724C213.736 4.35718 202.501 4.46748 191.267 4.57807C178.99 4.70415 166.712 4.8391 154.434 4.98289C144.589 5.09104 134.743 5.26358 124.9 5.3145C113.084 5.3749 101.271 5.3658 89.4581 5.33423C79.3834 5.30843 69.3108 5.24072 59.2404 5.13109C47.7881 5.00196 36.3445 4.75929 24.8906 4.63939C17.4951 4.56453 10.0767 4.62801 2.668 4.63002C2.43705 4.63495 2.20439 4.64707 1.97328 4.64486C0.694212 4.64869 0.178983 4.4994 0.0557313 4.0946C-0.0675205 3.6898 0.434431 3.39112 1.63174 3.28079C2.89166 3.15617 4.16086 3.06838 5.43399 3.01781C8.67581 2.91181 11.9212 2.79859 15.1628 2.77122C25.0079 2.68654 34.853 2.60492 44.6941 2.59282C53.3817 2.5829 62.0629 2.70383 70.7599 2.70188C84.422 2.69905 98.0855 2.67986 111.75 2.59632C122.636 2.53025 133.525 2.35996 144.412 2.23363C157.958 2.07569 171.503 1.91743 185.048 1.75884C200.108 1.58832 215.171 1.40237 230.226 1.26973C244.94 1.13992 259.655 1.04249 274.368 0.97738C285.719 0.920798 297.069 0.871358 308.417 0.892426C320.575 0.913559 332.732 0.963317 344.882 1.10921C355.177 1.23344 365.46 1.50801 375.746 1.7325C376.582 1.77891 377.41 1.85469 378.226 1.95934ZM260.093 4.2905L260.082 4.18863L259.041 4.21085L259.044 4.33641L260.093 4.2905Z" fill="#EF9E48"/>
</svg>
