<svg width="109" height="17" viewBox="0 0 109 17" fill="none" xmlns="http://www.w3.org/2000/svg">
<path d="M8.09375 0.5625L6.0625 4.71875L1.46875 5.375C0.65625 5.5 0.34375 6.5 0.9375 7.09375L4.21875 10.3125L3.4375 14.8438C3.3125 15.6562 4.1875 16.2812 4.90625 15.9062L9 13.75L13.0625 15.9062C13.7812 16.2812 14.6562 15.6562 14.5312 14.8438L13.75 10.3125L17.0312 7.09375C17.625 6.5 17.3125 5.5 16.5 5.375L11.9375 4.71875L9.875 0.5625C9.53125 -0.15625 8.46875 -0.1875 8.09375 0.5625ZM30.8937 0.5625L28.8625 4.71875L24.2687 5.375C23.4562 5.5 23.1437 6.5 23.7375 7.09375L27.0187 10.3125L26.2375 14.8438C26.1125 15.6562 26.9875 16.2812 27.7062 15.9062L31.8 13.75L35.8625 15.9062C36.5812 16.2812 37.4562 15.6562 37.3312 14.8438L36.55 10.3125L39.8312 7.09375C40.425 6.5 40.1125 5.5 39.3 5.375L34.7375 4.71875L32.675 0.5625C32.3312 -0.15625 31.2687 -0.1875 30.8937 0.5625ZM53.6937 0.5625L51.6625 4.71875L47.0687 5.375C46.2562 5.5 45.9437 6.5 46.5375 7.09375L49.8187 10.3125L49.0375 14.8438C48.9125 15.6562 49.7875 16.2812 50.5062 15.9062L54.6 13.75L58.6625 15.9062C59.3812 16.2812 60.2562 15.6562 60.1312 14.8438L59.35 10.3125L62.6312 7.09375C63.225 6.5 62.9125 5.5 62.1 5.375L57.5375 4.71875L55.475 0.5625C55.1312 -0.15625 54.0687 -0.1875 53.6937 0.5625ZM76.4938 0.5625L74.4625 4.71875L69.8688 5.375C69.0563 5.5 68.7438 6.5 69.3375 7.09375L72.6188 10.3125L71.8375 14.8438C71.7125 15.6562 72.5875 16.2812 73.3063 15.9062L77.4 13.75L81.4625 15.9062C82.1813 16.2812 83.0563 15.6562 82.9313 14.8438L82.15 10.3125L85.4313 7.09375C86.025 6.5 85.7125 5.5 84.9 5.375L80.3375 4.71875L78.275 0.5625C77.9313 -0.15625 76.8688 -0.1875 76.4938 0.5625ZM99.2937 0.5625L97.2625 4.71875L92.6687 5.375C91.8562 5.5 91.5437 6.5 92.1375 7.09375L95.4187 10.3125L94.6375 14.8438C94.5125 15.6562 95.3875 16.2812 96.1062 15.9062L100.2 13.75L104.262 15.9062C104.981 16.2812 105.856 15.6562 105.731 14.8438L104.95 10.3125L108.231 7.09375C108.825 6.5 108.512 5.5 107.7 5.375L103.137 4.71875L101.075 0.5625C100.731 -0.15625 99.6687 -0.1875 99.2937 0.5625Z" fill="#02073E"/>
</svg>
