<?xml version="1.0" encoding="utf-8"?>
<!-- Generator: Adobe Illustrator 22.0.1, SVG Export Plug-In . SVG Version: 6.00 Build 0)  -->
<svg version="1.1" id="Capa_1" xmlns="http://www.w3.org/2000/svg" xmlns:xlink="http://www.w3.org/1999/xlink" x="0px" y="0px"
	 viewBox="0 0 460.8 460.8" style="enable-background:new 0 0 460.8 460.8;" xml:space="preserve">
<style type="text/css">
	.st0{fill:#FFFFFF;}
</style>
<path class="st0" d="M285.1,230.4L456.2,59.3c6.1-6.1,6.1-15.9,0-22L423.5,4.6c-2.9-2.9-6.9-4.6-11-4.6c-4.1,0-8.1,1.6-11,4.6
	L230.4,175.7L59.3,4.6C56.3,1.7,52.4,0,48.3,0c-4.1,0-8.1,1.6-11,4.6L4.6,37.3c-6.1,6.1-6.1,15.9,0,22l171.1,171.1L4.6,401.5
	c-6.1,6.1-6.1,15.9,0,22l32.7,32.7c2.9,2.9,6.9,4.5,11,4.5s8.1-1.6,11-4.5l171.1-171.1l171.1,171.1c2.9,2.9,6.9,4.5,11,4.5
	c4.1,0,8.1-1.6,11-4.5l32.7-32.7c6.1-6.1,6.1-15.9,0-22L285.1,230.4z"/>
</svg>
